%TF.GenerationSoftware,KiCad,Pcbnew,8.0.3*%
%TF.CreationDate,2025-01-08T01:15:00+05:30*%
%TF.ProjectId,gps,6770732e-6b69-4636-9164-5f7063625858,rev?*%
%TF.SameCoordinates,Original*%
%TF.FileFunction,Copper,L2,Inr*%
%TF.FilePolarity,Positive*%
%FSLAX46Y46*%
G04 Gerber Fmt 4.6, Leading zero omitted, Abs format (unit mm)*
G04 Created by KiCad (PCBNEW 8.0.3) date 2025-01-08 01:15:00*
%MOMM*%
%LPD*%
G01*
G04 APERTURE LIST*
%TA.AperFunction,ComponentPad*%
%ADD10O,1.550000X2.350000*%
%TD*%
%TA.AperFunction,ComponentPad*%
%ADD11O,1.050000X2.700000*%
%TD*%
%TA.AperFunction,ComponentPad*%
%ADD12R,1.308000X1.308000*%
%TD*%
%TA.AperFunction,ComponentPad*%
%ADD13C,1.308000*%
%TD*%
%TA.AperFunction,ComponentPad*%
%ADD14O,2.800000X1.400000*%
%TD*%
%TA.AperFunction,ComponentPad*%
%ADD15C,1.500000*%
%TD*%
%TA.AperFunction,ComponentPad*%
%ADD16C,1.200000*%
%TD*%
%TA.AperFunction,ViaPad*%
%ADD17C,0.600000*%
%TD*%
G04 APERTURE END LIST*
D10*
%TO.N,GND*%
%TO.C,J5*%
X126963250Y-86582500D03*
X143413250Y-86582500D03*
D11*
X127263250Y-95482500D03*
X143663250Y-95482500D03*
%TD*%
D12*
%TO.N,BAT+*%
%TO.C,J2*%
X138932600Y-71568400D03*
D13*
%TO.N,BAT-*%
X136932600Y-71568400D03*
%TD*%
D14*
%TO.N,GND*%
%TO.C,J1*%
X121335800Y-72743800D03*
X121335800Y-65593800D03*
%TD*%
D15*
%TO.N,N/C*%
%TO.C,J4*%
X199075400Y-69737400D03*
D16*
X207375400Y-60737400D03*
%TD*%
D17*
%TO.N,SIM_PWRKEY*%
X162380000Y-77300000D03*
X176870000Y-70830000D03*
%TO.N,GPS_RXD*%
X163790000Y-72590000D03*
%TO.N,SD_CS*%
X149220000Y-63560000D03*
%TO.N,SD_MISO*%
X151650000Y-64060000D03*
%TO.N,GND*%
X144180000Y-66900000D03*
X192790000Y-67370000D03*
X132130000Y-83240000D03*
X125030000Y-79170000D03*
X163730000Y-81500000D03*
X188380000Y-67640000D03*
X170980000Y-66160000D03*
X171380000Y-81210000D03*
X119190000Y-78540000D03*
X129740000Y-60230000D03*
X125050000Y-81160000D03*
X180790000Y-71310000D03*
X133610000Y-67660000D03*
X125040000Y-77220000D03*
X131340000Y-77060000D03*
X119410000Y-80470000D03*
%TO.N,+3.3V*%
X136510000Y-58770000D03*
X186190000Y-57740000D03*
X181170000Y-65720000D03*
X182990000Y-60640000D03*
X137350000Y-58770000D03*
X134600000Y-58720000D03*
X187710000Y-56970000D03*
X134380000Y-83240000D03*
X181180000Y-66550000D03*
X166890000Y-63660000D03*
X118930000Y-81180000D03*
X191080000Y-66270000D03*
X165470000Y-63640000D03*
X134000000Y-81950000D03*
%TO.N,SD_MOSI*%
X147730000Y-64090000D03*
%TO.N,RXD_SIM*%
X189306200Y-62611000D03*
X192862200Y-62839600D03*
%TO.N,CTS*%
X144703800Y-77571600D03*
X146100800Y-82804000D03*
%TO.N,GPS_TXD*%
X179933600Y-63474600D03*
%TO.N,ESP_EN*%
X161690000Y-66290000D03*
X163750000Y-66300000D03*
%TO.N,TXD_SIM*%
X182854600Y-67208400D03*
X163830000Y-80238600D03*
%TO.N,RXD_0*%
X138500000Y-69220000D03*
X142090000Y-69210000D03*
%TO.N,SD_SCK*%
X149990000Y-74790000D03*
X148110000Y-87570000D03*
X129800000Y-80200000D03*
%TO.N,SIM_DTR*%
X173761400Y-72110600D03*
X173760000Y-67350000D03*
%TO.N,TXD_0*%
X138658600Y-68478400D03*
X141706600Y-68503800D03*
%TO.N,+5V*%
X196930000Y-83010000D03*
X137363200Y-60071000D03*
X131114800Y-65633600D03*
%TO.N,BAT+*%
X170027600Y-93116400D03*
%TO.N,Net-(J4-I{slash}O)*%
X204530000Y-77830000D03*
X203040000Y-79840000D03*
%TO.N,DTR*%
X139776200Y-70434200D03*
X137860000Y-75400000D03*
X140870000Y-77300000D03*
X136448800Y-68148200D03*
%TO.N,SD_SCK_LLS*%
X133197600Y-81940400D03*
X132080000Y-80594200D03*
%TO.N,SIM_VDD*%
X204419200Y-89585800D03*
X196900800Y-89001600D03*
%TO.N,Net-(J4-CLK)*%
X206560000Y-92330000D03*
X203630000Y-90430000D03*
%TO.N,SIM_RXD*%
X186283600Y-70027800D03*
X183692800Y-68072000D03*
%TD*%
%TA.AperFunction,Conductor*%
%TO.N,+3.3V*%
G36*
X194736494Y-56509951D02*
G01*
X194803523Y-56529662D01*
X194849257Y-56582483D01*
X194860442Y-56633507D01*
X194899553Y-67545531D01*
X194880109Y-67612640D01*
X194827469Y-67658584D01*
X194775530Y-67669975D01*
X193700522Y-67669764D01*
X193633486Y-67650066D01*
X193587742Y-67597253D01*
X193577326Y-67531881D01*
X193595565Y-67370003D01*
X193595565Y-67369996D01*
X193575369Y-67190750D01*
X193575368Y-67190745D01*
X193536356Y-67079255D01*
X193515789Y-67020478D01*
X193503189Y-67000426D01*
X193458822Y-66929816D01*
X193419816Y-66867738D01*
X193292262Y-66740184D01*
X193238408Y-66706345D01*
X193139523Y-66644211D01*
X192969254Y-66584631D01*
X192969249Y-66584630D01*
X192790004Y-66564435D01*
X192789996Y-66564435D01*
X192610750Y-66584630D01*
X192610745Y-66584631D01*
X192440476Y-66644211D01*
X192287737Y-66740184D01*
X192160184Y-66867737D01*
X192064211Y-67020476D01*
X192004631Y-67190745D01*
X192004630Y-67190750D01*
X191984435Y-67369996D01*
X191984435Y-67370004D01*
X192002633Y-67531525D01*
X191990578Y-67600347D01*
X191943229Y-67651726D01*
X191879389Y-67669408D01*
X189299610Y-67668902D01*
X189232574Y-67649204D01*
X189186830Y-67596391D01*
X189176414Y-67558784D01*
X189175340Y-67549255D01*
X189167622Y-67480750D01*
X189165369Y-67460750D01*
X189165368Y-67460745D01*
X189139793Y-67387655D01*
X189105789Y-67290478D01*
X189103372Y-67286632D01*
X189043126Y-67190750D01*
X189009816Y-67137738D01*
X188882262Y-67010184D01*
X188831589Y-66978344D01*
X188729523Y-66914211D01*
X188559254Y-66854631D01*
X188559249Y-66854630D01*
X188380004Y-66834435D01*
X188379996Y-66834435D01*
X188200750Y-66854630D01*
X188200745Y-66854631D01*
X188030476Y-66914211D01*
X187877737Y-67010184D01*
X187750184Y-67137737D01*
X187654211Y-67290476D01*
X187594631Y-67460745D01*
X187594630Y-67460749D01*
X187583625Y-67558427D01*
X187556558Y-67622841D01*
X187498963Y-67662396D01*
X187460381Y-67668543D01*
X184452837Y-67667953D01*
X184385801Y-67648255D01*
X184347867Y-67609924D01*
X184322619Y-67569742D01*
X184322617Y-67569739D01*
X184195062Y-67442184D01*
X184042323Y-67346211D01*
X183872054Y-67286631D01*
X183872049Y-67286630D01*
X183764633Y-67274528D01*
X183700219Y-67247462D01*
X183660663Y-67189867D01*
X183655296Y-67165190D01*
X183654456Y-67157738D01*
X183644313Y-67067707D01*
X183639969Y-67029150D01*
X183639968Y-67029145D01*
X183617720Y-66965565D01*
X183580389Y-66858878D01*
X183577720Y-66854631D01*
X183518987Y-66761158D01*
X183484416Y-66706138D01*
X183356862Y-66578584D01*
X183334656Y-66564631D01*
X183204123Y-66482611D01*
X183033854Y-66423031D01*
X183033849Y-66423030D01*
X182854604Y-66402835D01*
X182854596Y-66402835D01*
X182675350Y-66423030D01*
X182675345Y-66423031D01*
X182505076Y-66482611D01*
X182352337Y-66578584D01*
X182224784Y-66706137D01*
X182128811Y-66858876D01*
X182069231Y-67029145D01*
X182069230Y-67029150D01*
X182049035Y-67208396D01*
X182049035Y-67208403D01*
X182069230Y-67387649D01*
X182069232Y-67387657D01*
X182109423Y-67502517D01*
X182112984Y-67572296D01*
X182078255Y-67632923D01*
X182016261Y-67665150D01*
X181992357Y-67667471D01*
X174668688Y-67666037D01*
X174601652Y-67646339D01*
X174555908Y-67593526D01*
X174545492Y-67528153D01*
X174546577Y-67518528D01*
X174559677Y-67402262D01*
X174565565Y-67350002D01*
X174565565Y-67349996D01*
X174545369Y-67170750D01*
X174545368Y-67170745D01*
X174533818Y-67137737D01*
X174485789Y-67000478D01*
X174485756Y-67000426D01*
X174413724Y-66885788D01*
X174389816Y-66847738D01*
X174262262Y-66720184D01*
X174240241Y-66706347D01*
X174109523Y-66624211D01*
X173939254Y-66564631D01*
X173939249Y-66564630D01*
X173760004Y-66544435D01*
X173759996Y-66544435D01*
X173580750Y-66564630D01*
X173580745Y-66564631D01*
X173410476Y-66624211D01*
X173257737Y-66720184D01*
X173130184Y-66847737D01*
X173034211Y-67000476D01*
X172974631Y-67170745D01*
X172974630Y-67170750D01*
X172954435Y-67349996D01*
X172954435Y-67350003D01*
X172974467Y-67527799D01*
X172962412Y-67596621D01*
X172915063Y-67648000D01*
X172851223Y-67665682D01*
X144851216Y-67660199D01*
X144784180Y-67640501D01*
X144738436Y-67587688D01*
X144728506Y-67518528D01*
X144757543Y-67454978D01*
X144763546Y-67448531D01*
X144809816Y-67402262D01*
X144905789Y-67249522D01*
X144965368Y-67079255D01*
X144967065Y-67064198D01*
X144985565Y-66900003D01*
X144985565Y-66899996D01*
X144965369Y-66720750D01*
X144965368Y-66720745D01*
X144940446Y-66649522D01*
X144905789Y-66550478D01*
X144809816Y-66397738D01*
X144702074Y-66289996D01*
X160884435Y-66289996D01*
X160884435Y-66290003D01*
X160904630Y-66469249D01*
X160904631Y-66469254D01*
X160964211Y-66639523D01*
X161027461Y-66740184D01*
X161060184Y-66792262D01*
X161187738Y-66919816D01*
X161260547Y-66965565D01*
X161331557Y-67010184D01*
X161340478Y-67015789D01*
X161417014Y-67042570D01*
X161510745Y-67075368D01*
X161510750Y-67075369D01*
X161689996Y-67095565D01*
X161690000Y-67095565D01*
X161690004Y-67095565D01*
X161869249Y-67075369D01*
X161869252Y-67075368D01*
X161869255Y-67075368D01*
X162039522Y-67015789D01*
X162192262Y-66919816D01*
X162319816Y-66792262D01*
X162415789Y-66639522D01*
X162475368Y-66469255D01*
X162475369Y-66469249D01*
X162494439Y-66299996D01*
X162944435Y-66299996D01*
X162944435Y-66300003D01*
X162964630Y-66479249D01*
X162964631Y-66479254D01*
X163024211Y-66649523D01*
X163096607Y-66764740D01*
X163120184Y-66802262D01*
X163247738Y-66929816D01*
X163304632Y-66965565D01*
X163392025Y-67020478D01*
X163400478Y-67025789D01*
X163553258Y-67079249D01*
X163570745Y-67085368D01*
X163570750Y-67085369D01*
X163749996Y-67105565D01*
X163750000Y-67105565D01*
X163750004Y-67105565D01*
X163929249Y-67085369D01*
X163929252Y-67085368D01*
X163929255Y-67085368D01*
X164099522Y-67025789D01*
X164252262Y-66929816D01*
X164379816Y-66802262D01*
X164475789Y-66649522D01*
X164535368Y-66479255D01*
X164536495Y-66469254D01*
X164555565Y-66300003D01*
X164555565Y-66299996D01*
X164539791Y-66159996D01*
X170174435Y-66159996D01*
X170174435Y-66160003D01*
X170194630Y-66339249D01*
X170194631Y-66339254D01*
X170254211Y-66509523D01*
X170350184Y-66662262D01*
X170477738Y-66789816D01*
X170497546Y-66802262D01*
X170612721Y-66874632D01*
X170630478Y-66885789D01*
X170727719Y-66919815D01*
X170800745Y-66945368D01*
X170800750Y-66945369D01*
X170979996Y-66965565D01*
X170980000Y-66965565D01*
X170980004Y-66965565D01*
X171159249Y-66945369D01*
X171159252Y-66945368D01*
X171159255Y-66945368D01*
X171329522Y-66885789D01*
X171482262Y-66789816D01*
X171609816Y-66662262D01*
X171705789Y-66509522D01*
X171765368Y-66339255D01*
X171769791Y-66300000D01*
X171785565Y-66160003D01*
X171785565Y-66159996D01*
X171765369Y-65980750D01*
X171765368Y-65980745D01*
X171751277Y-65940476D01*
X171705789Y-65810478D01*
X171691500Y-65787738D01*
X171644473Y-65712895D01*
X171630202Y-65690182D01*
X173058088Y-65690182D01*
X173277566Y-65613384D01*
X173284193Y-65611272D01*
X173324642Y-65599619D01*
X173331379Y-65597881D01*
X173385989Y-65585418D01*
X173392809Y-65584062D01*
X173434293Y-65577014D01*
X173441180Y-65576042D01*
X173676092Y-65549575D01*
X173683021Y-65548990D01*
X173725039Y-65546630D01*
X173731993Y-65546435D01*
X173788007Y-65546435D01*
X173794961Y-65546630D01*
X173836979Y-65548990D01*
X173843908Y-65549575D01*
X174078820Y-65576042D01*
X174085707Y-65577014D01*
X174127191Y-65584062D01*
X174134011Y-65585418D01*
X174188621Y-65597881D01*
X174195358Y-65599619D01*
X174235807Y-65611272D01*
X174242434Y-65613384D01*
X174465578Y-65691465D01*
X174472079Y-65693947D01*
X174510965Y-65710055D01*
X174517312Y-65712895D01*
X174552930Y-65730048D01*
X174560088Y-65730048D01*
X175558088Y-65730048D01*
X177060088Y-65730048D01*
X178058088Y-65730048D01*
X179560088Y-65730048D01*
X179560088Y-65421447D01*
X183058088Y-65421447D01*
X183173420Y-65434442D01*
X183180307Y-65435414D01*
X183221791Y-65442462D01*
X183228611Y-65443818D01*
X183283221Y-65456281D01*
X183289958Y-65458019D01*
X183330407Y-65469672D01*
X183337034Y-65471784D01*
X183560178Y-65549865D01*
X183566679Y-65552347D01*
X183605565Y-65568455D01*
X183611912Y-65571295D01*
X183662379Y-65595599D01*
X183668559Y-65598792D01*
X183705390Y-65619148D01*
X183711380Y-65622681D01*
X183882252Y-65730048D01*
X184560088Y-65730048D01*
X185558088Y-65730048D01*
X187060088Y-65730048D01*
X188058088Y-65730048D01*
X189560088Y-65730048D01*
X189560088Y-65105928D01*
X190558088Y-65105928D01*
X190719145Y-65043535D01*
X190741154Y-65037273D01*
X190950652Y-64998111D01*
X190973437Y-64996000D01*
X191186563Y-64996000D01*
X191209348Y-64998111D01*
X191418846Y-65037273D01*
X191440855Y-65043535D01*
X191639589Y-65120525D01*
X191660072Y-65130725D01*
X191841276Y-65242921D01*
X191859538Y-65256711D01*
X192017040Y-65400294D01*
X192032455Y-65417204D01*
X192060088Y-65453795D01*
X192060088Y-64627408D01*
X193058088Y-64627408D01*
X193058088Y-65590325D01*
X193108820Y-65596042D01*
X193115707Y-65597014D01*
X193157191Y-65604062D01*
X193164011Y-65605418D01*
X193218621Y-65617881D01*
X193225358Y-65619619D01*
X193265807Y-65631272D01*
X193272434Y-65633384D01*
X193495578Y-65711465D01*
X193502079Y-65713947D01*
X193540948Y-65730048D01*
X193769039Y-65730048D01*
X193764259Y-64396867D01*
X193718980Y-64425319D01*
X193712990Y-64428852D01*
X193676159Y-64449208D01*
X193669979Y-64452401D01*
X193619512Y-64476705D01*
X193613165Y-64479545D01*
X193574279Y-64495653D01*
X193567778Y-64498135D01*
X193344634Y-64576216D01*
X193338007Y-64578328D01*
X193297558Y-64589981D01*
X193290821Y-64591719D01*
X193236211Y-64604182D01*
X193229391Y-64605538D01*
X193187907Y-64612586D01*
X193181020Y-64613558D01*
X193058088Y-64627408D01*
X192060088Y-64627408D01*
X192060088Y-64455130D01*
X192054421Y-64452401D01*
X192048241Y-64449208D01*
X192011410Y-64428852D01*
X192005420Y-64425319D01*
X191805252Y-64299544D01*
X191799467Y-64295678D01*
X191765139Y-64271320D01*
X191759582Y-64267138D01*
X191715790Y-64232214D01*
X191710856Y-64228048D01*
X190558088Y-64228048D01*
X190558088Y-65105928D01*
X189560088Y-65105928D01*
X189560088Y-64392273D01*
X189390108Y-64411425D01*
X189383179Y-64412010D01*
X189341161Y-64414370D01*
X189334207Y-64414565D01*
X189278193Y-64414565D01*
X189271239Y-64414370D01*
X189229221Y-64412010D01*
X189222292Y-64411425D01*
X188987380Y-64384958D01*
X188980493Y-64383986D01*
X188939009Y-64376938D01*
X188932189Y-64375582D01*
X188877579Y-64363119D01*
X188870842Y-64361381D01*
X188830393Y-64349728D01*
X188823766Y-64347616D01*
X188600622Y-64269535D01*
X188594121Y-64267053D01*
X188555235Y-64250945D01*
X188548888Y-64248105D01*
X188507240Y-64228048D01*
X188058088Y-64228048D01*
X188058088Y-65730048D01*
X187060088Y-65730048D01*
X187060088Y-64228048D01*
X185558088Y-64228048D01*
X185558088Y-65730048D01*
X184560088Y-65730048D01*
X184560088Y-64228048D01*
X183058088Y-64228048D01*
X183058088Y-65421447D01*
X179560088Y-65421447D01*
X179560088Y-65239281D01*
X179559589Y-65239182D01*
X179504979Y-65226719D01*
X179498242Y-65224981D01*
X179457793Y-65213328D01*
X179451166Y-65211216D01*
X179228022Y-65133135D01*
X179221521Y-65130653D01*
X179182635Y-65114545D01*
X179176288Y-65111705D01*
X179125821Y-65087401D01*
X179119641Y-65084208D01*
X179082810Y-65063852D01*
X179076820Y-65060319D01*
X178876652Y-64934544D01*
X178870867Y-64930678D01*
X178836539Y-64906320D01*
X178830982Y-64902138D01*
X178787190Y-64867214D01*
X178781876Y-64862727D01*
X178750500Y-64834687D01*
X178745447Y-64829909D01*
X178578291Y-64662753D01*
X178573513Y-64657700D01*
X178545473Y-64626324D01*
X178540986Y-64621010D01*
X178506062Y-64577218D01*
X178501880Y-64571661D01*
X178477522Y-64537333D01*
X178473656Y-64531548D01*
X178347881Y-64331380D01*
X178344348Y-64325390D01*
X178323992Y-64288559D01*
X178320799Y-64282379D01*
X178296495Y-64231912D01*
X178294766Y-64228048D01*
X178058088Y-64228048D01*
X178058088Y-65730048D01*
X177060088Y-65730048D01*
X177060088Y-64228048D01*
X175558088Y-64228048D01*
X175558088Y-65730048D01*
X174560088Y-65730048D01*
X174560088Y-64228048D01*
X173058088Y-64228048D01*
X173058088Y-65690182D01*
X171630202Y-65690182D01*
X171609816Y-65657738D01*
X171482262Y-65530184D01*
X171457508Y-65514630D01*
X171329523Y-65434211D01*
X171159254Y-65374631D01*
X171159249Y-65374630D01*
X170980004Y-65354435D01*
X170979996Y-65354435D01*
X170800750Y-65374630D01*
X170800745Y-65374631D01*
X170630476Y-65434211D01*
X170477737Y-65530184D01*
X170350184Y-65657737D01*
X170254211Y-65810476D01*
X170194631Y-65980745D01*
X170194630Y-65980750D01*
X170174435Y-66159996D01*
X164539791Y-66159996D01*
X164535369Y-66120750D01*
X164535368Y-66120745D01*
X164487212Y-65983123D01*
X164475789Y-65950478D01*
X164469504Y-65940476D01*
X164428311Y-65874918D01*
X164379816Y-65797738D01*
X164252262Y-65670184D01*
X164194033Y-65633596D01*
X164099523Y-65574211D01*
X163929254Y-65514631D01*
X163929249Y-65514630D01*
X163750004Y-65494435D01*
X163749996Y-65494435D01*
X163570750Y-65514630D01*
X163570745Y-65514631D01*
X163400476Y-65574211D01*
X163247737Y-65670184D01*
X163120184Y-65797737D01*
X163024211Y-65950476D01*
X162964631Y-66120745D01*
X162964630Y-66120750D01*
X162944435Y-66299996D01*
X162494439Y-66299996D01*
X162495565Y-66290003D01*
X162495565Y-66289996D01*
X162475369Y-66110750D01*
X162475368Y-66110745D01*
X162415788Y-65940476D01*
X162335594Y-65812849D01*
X162319816Y-65787738D01*
X162192262Y-65660184D01*
X162149954Y-65633600D01*
X162039523Y-65564211D01*
X161869254Y-65504631D01*
X161869249Y-65504630D01*
X161690004Y-65484435D01*
X161689996Y-65484435D01*
X161510750Y-65504630D01*
X161510745Y-65504631D01*
X161340476Y-65564211D01*
X161187737Y-65660184D01*
X161060184Y-65787737D01*
X160964211Y-65940476D01*
X160904631Y-66110745D01*
X160904630Y-66110750D01*
X160884435Y-66289996D01*
X144702074Y-66289996D01*
X144682262Y-66270184D01*
X144607168Y-66222999D01*
X144529523Y-66174211D01*
X144359254Y-66114631D01*
X144359249Y-66114630D01*
X144180004Y-66094435D01*
X144179996Y-66094435D01*
X144000750Y-66114630D01*
X144000745Y-66114631D01*
X143830476Y-66174211D01*
X143677737Y-66270184D01*
X143550184Y-66397737D01*
X143454211Y-66550476D01*
X143394631Y-66720745D01*
X143394630Y-66720750D01*
X143374435Y-66899996D01*
X143374435Y-66900003D01*
X143394630Y-67079249D01*
X143394631Y-67079254D01*
X143454211Y-67249523D01*
X143517347Y-67350002D01*
X143550184Y-67402262D01*
X143677738Y-67529816D01*
X143751386Y-67576092D01*
X143771849Y-67588950D01*
X143818140Y-67641285D01*
X143829876Y-67694389D01*
X143770442Y-84256777D01*
X143750517Y-84323745D01*
X143697549Y-84369310D01*
X143646778Y-84380332D01*
X117954246Y-84449664D01*
X117887153Y-84430160D01*
X117841256Y-84377480D01*
X117829911Y-84325753D01*
X117829135Y-83239996D01*
X117828573Y-82454000D01*
X118952573Y-82454000D01*
X118953127Y-83230048D01*
X119560088Y-83230048D01*
X119560088Y-82288306D01*
X119510073Y-82319275D01*
X119489589Y-82329475D01*
X119290855Y-82406465D01*
X119268846Y-82412727D01*
X119059348Y-82451889D01*
X119036563Y-82454000D01*
X118952573Y-82454000D01*
X117828573Y-82454000D01*
X117828149Y-81861197D01*
X120558088Y-81861197D01*
X120558088Y-83230048D01*
X122060088Y-83230048D01*
X123058088Y-83230048D01*
X124560088Y-83230048D01*
X124560088Y-82893999D01*
X124541912Y-82887639D01*
X125558088Y-82887639D01*
X125558088Y-83230048D01*
X127060088Y-83230048D01*
X128058088Y-83230048D01*
X129560088Y-83230048D01*
X129560088Y-81982848D01*
X129481180Y-81973958D01*
X129474293Y-81972986D01*
X129432809Y-81965938D01*
X129425989Y-81964582D01*
X129371379Y-81952119D01*
X129364642Y-81950381D01*
X129324193Y-81938728D01*
X129317566Y-81936616D01*
X129094422Y-81858535D01*
X129087921Y-81856053D01*
X129049035Y-81839945D01*
X129042688Y-81837105D01*
X128992221Y-81812801D01*
X128986041Y-81809608D01*
X128949210Y-81789252D01*
X128943220Y-81785719D01*
X128851438Y-81728048D01*
X128058088Y-81728048D01*
X128058088Y-83230048D01*
X127060088Y-83230048D01*
X127060088Y-81728048D01*
X126756658Y-81728048D01*
X126708535Y-81865578D01*
X126706053Y-81872079D01*
X126689945Y-81910965D01*
X126687105Y-81917312D01*
X126662801Y-81967779D01*
X126659608Y-81973959D01*
X126639252Y-82010790D01*
X126635719Y-82016780D01*
X126509944Y-82216948D01*
X126506078Y-82222733D01*
X126481720Y-82257061D01*
X126477538Y-82262618D01*
X126442614Y-82306410D01*
X126438127Y-82311724D01*
X126410087Y-82343100D01*
X126405309Y-82348153D01*
X126238153Y-82515309D01*
X126233100Y-82520087D01*
X126201724Y-82548127D01*
X126196410Y-82552614D01*
X126152618Y-82587538D01*
X126147061Y-82591720D01*
X126112733Y-82616078D01*
X126106948Y-82619944D01*
X125906780Y-82745719D01*
X125900790Y-82749252D01*
X125863959Y-82769608D01*
X125857779Y-82772801D01*
X125807312Y-82797105D01*
X125800965Y-82799945D01*
X125762079Y-82816053D01*
X125755578Y-82818535D01*
X125558088Y-82887639D01*
X124541912Y-82887639D01*
X124344422Y-82818535D01*
X124337921Y-82816053D01*
X124299035Y-82799945D01*
X124292688Y-82797105D01*
X124242221Y-82772801D01*
X124236041Y-82769608D01*
X124199210Y-82749252D01*
X124193220Y-82745719D01*
X123993052Y-82619944D01*
X123987267Y-82616078D01*
X123952939Y-82591720D01*
X123947382Y-82587538D01*
X123903590Y-82552614D01*
X123898276Y-82548127D01*
X123866900Y-82520087D01*
X123861847Y-82515309D01*
X123694691Y-82348153D01*
X123689913Y-82343100D01*
X123661873Y-82311724D01*
X123657386Y-82306410D01*
X123622462Y-82262618D01*
X123618280Y-82257061D01*
X123593922Y-82222733D01*
X123590056Y-82216948D01*
X123464281Y-82016780D01*
X123460748Y-82010790D01*
X123440392Y-81973959D01*
X123437199Y-81967779D01*
X123412895Y-81917312D01*
X123410055Y-81910965D01*
X123393947Y-81872079D01*
X123391465Y-81865578D01*
X123343342Y-81728048D01*
X123058088Y-81728048D01*
X123058088Y-83230048D01*
X122060088Y-83230048D01*
X122060088Y-81728048D01*
X120695414Y-81728048D01*
X120598153Y-81825309D01*
X120593100Y-81830087D01*
X120561724Y-81858127D01*
X120558088Y-81861197D01*
X117828149Y-81861197D01*
X117827154Y-80469996D01*
X118604435Y-80469996D01*
X118604435Y-80470003D01*
X118624630Y-80649249D01*
X118624631Y-80649254D01*
X118684211Y-80819523D01*
X118690679Y-80829816D01*
X118780184Y-80972262D01*
X118907738Y-81099816D01*
X118995612Y-81155031D01*
X119055851Y-81192882D01*
X119060478Y-81195789D01*
X119230745Y-81255368D01*
X119230750Y-81255369D01*
X119409996Y-81275565D01*
X119410000Y-81275565D01*
X119410004Y-81275565D01*
X119589249Y-81255369D01*
X119589252Y-81255368D01*
X119589255Y-81255368D01*
X119759522Y-81195789D01*
X119816486Y-81159996D01*
X124244435Y-81159996D01*
X124244435Y-81160003D01*
X124264630Y-81339249D01*
X124264631Y-81339254D01*
X124324211Y-81509523D01*
X124355628Y-81559522D01*
X124420184Y-81662262D01*
X124547738Y-81789816D01*
X124627518Y-81839945D01*
X124678658Y-81872079D01*
X124700478Y-81885789D01*
X124772427Y-81910965D01*
X124870745Y-81945368D01*
X124870750Y-81945369D01*
X125049996Y-81965565D01*
X125050000Y-81965565D01*
X125050004Y-81965565D01*
X125229249Y-81945369D01*
X125229252Y-81945368D01*
X125229255Y-81945368D01*
X125399522Y-81885789D01*
X125552262Y-81789816D01*
X125679816Y-81662262D01*
X125775789Y-81509522D01*
X125835368Y-81339255D01*
X125837539Y-81319988D01*
X125855565Y-81160003D01*
X125855565Y-81159996D01*
X125835369Y-80980750D01*
X125835368Y-80980745D01*
X125816138Y-80925788D01*
X125775789Y-80810478D01*
X125679816Y-80657738D01*
X125552262Y-80530184D01*
X125501053Y-80498007D01*
X125399523Y-80434211D01*
X125229254Y-80374631D01*
X125229249Y-80374630D01*
X125050004Y-80354435D01*
X125049996Y-80354435D01*
X124870750Y-80374630D01*
X124870745Y-80374631D01*
X124700476Y-80434211D01*
X124547737Y-80530184D01*
X124420184Y-80657737D01*
X124324211Y-80810476D01*
X124264631Y-80980745D01*
X124264630Y-80980750D01*
X124244435Y-81159996D01*
X119816486Y-81159996D01*
X119912262Y-81099816D01*
X120039816Y-80972262D01*
X120135789Y-80819522D01*
X120195368Y-80649255D01*
X120202256Y-80588122D01*
X120215565Y-80470003D01*
X120215565Y-80469996D01*
X120195369Y-80290750D01*
X120195368Y-80290745D01*
X120163615Y-80200000D01*
X120135789Y-80120478D01*
X120117855Y-80091937D01*
X120076915Y-80026781D01*
X120039816Y-79967738D01*
X119912262Y-79840184D01*
X119862364Y-79808831D01*
X119759523Y-79744211D01*
X119589254Y-79684631D01*
X119589249Y-79684630D01*
X119410004Y-79664435D01*
X119409996Y-79664435D01*
X119230750Y-79684630D01*
X119230745Y-79684631D01*
X119060476Y-79744211D01*
X118907737Y-79840184D01*
X118780184Y-79967737D01*
X118684211Y-80120476D01*
X118624631Y-80290745D01*
X118624630Y-80290750D01*
X118604435Y-80469996D01*
X117827154Y-80469996D01*
X117825774Y-78539996D01*
X118384435Y-78539996D01*
X118384435Y-78540003D01*
X118404630Y-78719249D01*
X118404631Y-78719254D01*
X118464211Y-78889523D01*
X118527817Y-78990750D01*
X118560184Y-79042262D01*
X118687738Y-79169816D01*
X118688031Y-79170000D01*
X118821569Y-79253908D01*
X118840478Y-79265789D01*
X118912427Y-79290965D01*
X119010745Y-79325368D01*
X119010750Y-79325369D01*
X119189996Y-79345565D01*
X119190000Y-79345565D01*
X119190004Y-79345565D01*
X119302915Y-79332843D01*
X120809993Y-79332843D01*
X120837538Y-79367382D01*
X120841720Y-79372939D01*
X120866078Y-79407267D01*
X120869944Y-79413052D01*
X120995719Y-79613220D01*
X120999252Y-79619210D01*
X121019608Y-79656041D01*
X121022801Y-79662221D01*
X121047105Y-79712688D01*
X121049945Y-79719035D01*
X121066053Y-79757921D01*
X121068535Y-79764422D01*
X121146616Y-79987566D01*
X121148728Y-79994193D01*
X121160381Y-80034642D01*
X121162119Y-80041379D01*
X121174582Y-80095989D01*
X121175938Y-80102809D01*
X121182986Y-80144293D01*
X121183958Y-80151180D01*
X121210425Y-80386092D01*
X121211010Y-80393021D01*
X121213370Y-80435039D01*
X121213565Y-80441993D01*
X121213565Y-80498007D01*
X121213370Y-80504961D01*
X121211010Y-80546979D01*
X121210425Y-80553908D01*
X121190580Y-80730048D01*
X122060088Y-80730048D01*
X123058088Y-80730048D01*
X123298224Y-80730048D01*
X123299619Y-80724642D01*
X123311272Y-80684193D01*
X123313384Y-80677566D01*
X123391465Y-80454422D01*
X123393947Y-80447921D01*
X123410055Y-80409035D01*
X123412895Y-80402688D01*
X123437199Y-80352221D01*
X123440392Y-80346041D01*
X123460748Y-80309210D01*
X123464281Y-80303220D01*
X123541131Y-80180914D01*
X123521131Y-80149084D01*
X126538868Y-80149084D01*
X126635719Y-80303220D01*
X126639252Y-80309210D01*
X126659608Y-80346041D01*
X126662801Y-80352221D01*
X126687105Y-80402688D01*
X126689945Y-80409035D01*
X126706053Y-80447921D01*
X126708535Y-80454422D01*
X126786616Y-80677566D01*
X126788728Y-80684193D01*
X126800381Y-80724642D01*
X126801776Y-80730048D01*
X127060088Y-80730048D01*
X127060088Y-80199996D01*
X128994435Y-80199996D01*
X128994435Y-80200003D01*
X129014630Y-80379249D01*
X129014631Y-80379254D01*
X129074211Y-80549523D01*
X129136877Y-80649254D01*
X129170184Y-80702262D01*
X129297738Y-80829816D01*
X129450478Y-80925789D01*
X129583290Y-80972262D01*
X129620745Y-80985368D01*
X129620750Y-80985369D01*
X129799996Y-81005565D01*
X129800000Y-81005565D01*
X129800004Y-81005565D01*
X129979249Y-80985369D01*
X129979252Y-80985368D01*
X129979255Y-80985368D01*
X130149522Y-80925789D01*
X130302262Y-80829816D01*
X130429816Y-80702262D01*
X130497718Y-80594196D01*
X131274435Y-80594196D01*
X131274435Y-80594203D01*
X131294630Y-80773449D01*
X131294631Y-80773454D01*
X131354211Y-80943723D01*
X131408514Y-81030145D01*
X131450184Y-81096462D01*
X131577738Y-81224016D01*
X131730478Y-81319989D01*
X131792576Y-81341718D01*
X131900745Y-81379568D01*
X131900750Y-81379569D01*
X132079996Y-81399765D01*
X132080000Y-81399765D01*
X132080004Y-81399765D01*
X132259249Y-81379569D01*
X132259252Y-81379568D01*
X132259255Y-81379568D01*
X132259256Y-81379567D01*
X132259259Y-81379567D01*
X132314714Y-81360161D01*
X132367424Y-81341717D01*
X132437202Y-81338155D01*
X132497830Y-81372884D01*
X132530057Y-81434877D01*
X132523653Y-81504453D01*
X132513373Y-81524730D01*
X132471812Y-81590874D01*
X132412231Y-81761145D01*
X132412230Y-81761150D01*
X132392035Y-81940396D01*
X132392035Y-81940403D01*
X132412230Y-82119649D01*
X132412231Y-82119654D01*
X132474111Y-82296495D01*
X132471992Y-82297236D01*
X132481613Y-82355635D01*
X132453896Y-82419771D01*
X132395903Y-82458741D01*
X132326048Y-82460171D01*
X132317591Y-82457547D01*
X132309266Y-82454634D01*
X132309249Y-82454630D01*
X132130004Y-82434435D01*
X132129996Y-82434435D01*
X131950750Y-82454630D01*
X131950745Y-82454631D01*
X131780476Y-82514211D01*
X131627737Y-82610184D01*
X131500184Y-82737737D01*
X131404211Y-82890476D01*
X131344631Y-83060745D01*
X131344630Y-83060750D01*
X131324435Y-83239996D01*
X131324435Y-83240003D01*
X131344630Y-83419249D01*
X131344631Y-83419254D01*
X131404211Y-83589523D01*
X131500184Y-83742262D01*
X131627738Y-83869816D01*
X131780478Y-83965789D01*
X131950745Y-84025368D01*
X131950750Y-84025369D01*
X132129996Y-84045565D01*
X132130000Y-84045565D01*
X132130004Y-84045565D01*
X132309249Y-84025369D01*
X132309252Y-84025368D01*
X132309255Y-84025368D01*
X132479522Y-83965789D01*
X132632262Y-83869816D01*
X132759816Y-83742262D01*
X132855789Y-83589522D01*
X132915368Y-83419255D01*
X132935565Y-83240000D01*
X132925821Y-83153522D01*
X132915369Y-83060750D01*
X132915368Y-83060745D01*
X132853489Y-82883905D01*
X132855609Y-82883163D01*
X132845984Y-82824781D01*
X132873693Y-82760641D01*
X132892887Y-82747739D01*
X135558088Y-82747739D01*
X135567938Y-82767521D01*
X135576203Y-82788858D01*
X135634528Y-82993849D01*
X135638733Y-83016342D01*
X135658398Y-83228559D01*
X135658398Y-83230048D01*
X137060088Y-83230048D01*
X138058088Y-83230048D01*
X139560088Y-83230048D01*
X140558088Y-83230048D01*
X142060088Y-83230048D01*
X142060088Y-81728048D01*
X140558088Y-81728048D01*
X140558088Y-83230048D01*
X139560088Y-83230048D01*
X139560088Y-81728048D01*
X138058088Y-81728048D01*
X138058088Y-83230048D01*
X137060088Y-83230048D01*
X137060088Y-81728048D01*
X135558088Y-81728048D01*
X135558088Y-82747739D01*
X132892887Y-82747739D01*
X132931680Y-82721663D01*
X133001535Y-82720223D01*
X133010013Y-82722853D01*
X133018342Y-82725767D01*
X133018345Y-82725768D01*
X133018346Y-82725768D01*
X133018350Y-82725769D01*
X133197596Y-82745965D01*
X133197600Y-82745965D01*
X133197604Y-82745965D01*
X133376849Y-82725769D01*
X133376852Y-82725768D01*
X133376855Y-82725768D01*
X133547122Y-82666189D01*
X133699862Y-82570216D01*
X133827416Y-82442662D01*
X133923389Y-82289922D01*
X133982968Y-82119655D01*
X133987638Y-82078211D01*
X134003165Y-81940403D01*
X134003165Y-81940396D01*
X133982969Y-81761150D01*
X133982968Y-81761145D01*
X133923388Y-81590876D01*
X133872270Y-81509522D01*
X133827416Y-81438138D01*
X133699862Y-81310584D01*
X133611988Y-81255369D01*
X133547123Y-81214611D01*
X133376854Y-81155031D01*
X133376849Y-81155030D01*
X133197604Y-81134835D01*
X133197596Y-81134835D01*
X133018350Y-81155030D01*
X133018342Y-81155032D01*
X132910174Y-81192882D01*
X132840395Y-81196443D01*
X132779768Y-81161714D01*
X132747541Y-81099721D01*
X132753946Y-81030145D01*
X132764227Y-81009867D01*
X132805788Y-80943724D01*
X132812064Y-80925788D01*
X132865368Y-80773455D01*
X132865369Y-80773449D01*
X132885565Y-80594203D01*
X132885565Y-80594196D01*
X132865369Y-80414950D01*
X132865368Y-80414945D01*
X132855272Y-80386092D01*
X132805789Y-80244678D01*
X132709816Y-80091938D01*
X132582262Y-79964384D01*
X132567913Y-79955368D01*
X132429523Y-79868411D01*
X132259254Y-79808831D01*
X132259249Y-79808830D01*
X132080004Y-79788635D01*
X132079996Y-79788635D01*
X131900750Y-79808830D01*
X131900745Y-79808831D01*
X131730476Y-79868411D01*
X131577737Y-79964384D01*
X131450184Y-80091937D01*
X131354211Y-80244676D01*
X131294631Y-80414945D01*
X131294630Y-80414950D01*
X131274435Y-80594196D01*
X130497718Y-80594196D01*
X130525789Y-80549522D01*
X130585368Y-80379255D01*
X130588535Y-80351148D01*
X130605565Y-80200003D01*
X130605565Y-80199996D01*
X130585369Y-80020750D01*
X130585368Y-80020745D01*
X130572496Y-79983959D01*
X130525789Y-79850478D01*
X130499620Y-79808831D01*
X130471716Y-79764422D01*
X130429816Y-79697738D01*
X130302262Y-79570184D01*
X130249754Y-79537191D01*
X130149523Y-79474211D01*
X129979254Y-79414631D01*
X129979249Y-79414630D01*
X129800004Y-79394435D01*
X129799996Y-79394435D01*
X129620750Y-79414630D01*
X129620745Y-79414631D01*
X129450476Y-79474211D01*
X129297737Y-79570184D01*
X129170184Y-79697737D01*
X129074211Y-79850476D01*
X129014631Y-80020745D01*
X129014630Y-80020750D01*
X128994435Y-80199996D01*
X127060088Y-80199996D01*
X127060088Y-79228048D01*
X133256313Y-79228048D01*
X133263100Y-79234113D01*
X133268153Y-79238891D01*
X133435309Y-79406047D01*
X133440087Y-79411100D01*
X133468127Y-79442476D01*
X133472614Y-79447790D01*
X133507538Y-79491582D01*
X133511720Y-79497139D01*
X133536078Y-79531467D01*
X133539944Y-79537252D01*
X133665719Y-79737420D01*
X133669252Y-79743410D01*
X133689608Y-79780241D01*
X133692801Y-79786421D01*
X133717105Y-79836888D01*
X133719945Y-79843235D01*
X133736053Y-79882121D01*
X133738535Y-79888622D01*
X133816616Y-80111766D01*
X133818728Y-80118393D01*
X133830381Y-80158842D01*
X133832119Y-80165579D01*
X133844582Y-80220189D01*
X133845938Y-80227009D01*
X133852229Y-80264037D01*
X133903178Y-80281865D01*
X133909679Y-80284347D01*
X133948565Y-80300455D01*
X133954912Y-80303295D01*
X134005379Y-80327599D01*
X134011559Y-80330792D01*
X134048390Y-80351148D01*
X134054380Y-80354681D01*
X134254548Y-80480456D01*
X134260333Y-80484322D01*
X134294661Y-80508680D01*
X134300218Y-80512862D01*
X134344010Y-80547786D01*
X134349324Y-80552273D01*
X134380700Y-80580313D01*
X134385753Y-80585091D01*
X134530710Y-80730048D01*
X134560088Y-80730048D01*
X135558088Y-80730048D01*
X137060088Y-80730048D01*
X138058088Y-80730048D01*
X139560088Y-80730048D01*
X140558088Y-80730048D01*
X142060088Y-80730048D01*
X142060088Y-79228048D01*
X140558088Y-79228048D01*
X140558088Y-80730048D01*
X139560088Y-80730048D01*
X139560088Y-79228048D01*
X138058088Y-79228048D01*
X138058088Y-80730048D01*
X137060088Y-80730048D01*
X137060088Y-79228048D01*
X135558088Y-79228048D01*
X135558088Y-80730048D01*
X134560088Y-80730048D01*
X134560088Y-79228048D01*
X133256313Y-79228048D01*
X127060088Y-79228048D01*
X126832073Y-79228048D01*
X126831010Y-79246979D01*
X126830425Y-79253908D01*
X126803958Y-79488820D01*
X126802986Y-79495707D01*
X126795938Y-79537191D01*
X126794582Y-79544011D01*
X126782119Y-79598621D01*
X126780381Y-79605358D01*
X126768728Y-79645807D01*
X126766616Y-79652434D01*
X126688535Y-79875578D01*
X126686053Y-79882079D01*
X126669945Y-79920965D01*
X126667105Y-79927312D01*
X126642801Y-79977779D01*
X126639608Y-79983959D01*
X126619252Y-80020790D01*
X126615718Y-80026781D01*
X126538868Y-80149084D01*
X123521131Y-80149084D01*
X123444281Y-80026780D01*
X123440748Y-80020790D01*
X123420392Y-79983959D01*
X123417199Y-79977779D01*
X123392895Y-79927312D01*
X123390055Y-79920965D01*
X123373947Y-79882079D01*
X123371465Y-79875578D01*
X123293384Y-79652434D01*
X123291272Y-79645807D01*
X123279619Y-79605358D01*
X123277881Y-79598621D01*
X123265418Y-79544011D01*
X123264062Y-79537191D01*
X123257014Y-79495707D01*
X123256042Y-79488820D01*
X123229575Y-79253908D01*
X123228990Y-79246979D01*
X123227927Y-79228048D01*
X123058088Y-79228048D01*
X123058088Y-80730048D01*
X122060088Y-80730048D01*
X122060088Y-79228048D01*
X120854669Y-79228048D01*
X120848535Y-79245579D01*
X120846053Y-79252079D01*
X120829945Y-79290965D01*
X120827105Y-79297312D01*
X120809993Y-79332843D01*
X119302915Y-79332843D01*
X119369249Y-79325369D01*
X119369252Y-79325368D01*
X119369255Y-79325368D01*
X119539522Y-79265789D01*
X119691976Y-79169996D01*
X124224435Y-79169996D01*
X124224435Y-79170003D01*
X124244630Y-79349249D01*
X124244631Y-79349254D01*
X124304211Y-79519523D01*
X124319598Y-79544011D01*
X124400184Y-79672262D01*
X124527738Y-79799816D01*
X124542087Y-79808832D01*
X124669797Y-79889078D01*
X124680478Y-79895789D01*
X124752427Y-79920965D01*
X124850745Y-79955368D01*
X124850750Y-79955369D01*
X125029996Y-79975565D01*
X125030000Y-79975565D01*
X125030004Y-79975565D01*
X125209249Y-79955369D01*
X125209252Y-79955368D01*
X125209255Y-79955368D01*
X125379522Y-79895789D01*
X125532262Y-79799816D01*
X125659816Y-79672262D01*
X125755789Y-79519522D01*
X125815368Y-79349255D01*
X125817217Y-79332843D01*
X125835565Y-79170003D01*
X125835565Y-79169996D01*
X125815369Y-78990750D01*
X125815368Y-78990745D01*
X125779949Y-78889523D01*
X125755789Y-78820478D01*
X125659816Y-78667738D01*
X125532262Y-78540184D01*
X125531963Y-78539996D01*
X125379523Y-78444211D01*
X125209254Y-78384631D01*
X125209249Y-78384630D01*
X125030004Y-78364435D01*
X125029996Y-78364435D01*
X124850750Y-78384630D01*
X124850745Y-78384631D01*
X124680476Y-78444211D01*
X124527737Y-78540184D01*
X124400184Y-78667737D01*
X124304211Y-78820476D01*
X124244631Y-78990745D01*
X124244630Y-78990750D01*
X124224435Y-79169996D01*
X119691976Y-79169996D01*
X119692262Y-79169816D01*
X119819816Y-79042262D01*
X119915789Y-78889522D01*
X119975368Y-78719255D01*
X119981173Y-78667737D01*
X119995565Y-78540003D01*
X119995565Y-78539996D01*
X119975369Y-78360750D01*
X119975368Y-78360745D01*
X119924122Y-78214293D01*
X119915789Y-78190478D01*
X119819816Y-78037738D01*
X119692262Y-77910184D01*
X119539523Y-77814211D01*
X119369254Y-77754631D01*
X119369249Y-77754630D01*
X119190004Y-77734435D01*
X119189996Y-77734435D01*
X119010750Y-77754630D01*
X119010745Y-77754631D01*
X118840476Y-77814211D01*
X118687737Y-77910184D01*
X118560184Y-78037737D01*
X118464211Y-78190476D01*
X118404631Y-78360745D01*
X118404630Y-78360750D01*
X118384435Y-78539996D01*
X117825774Y-78539996D01*
X117824934Y-77365852D01*
X120558088Y-77365852D01*
X120578127Y-77388276D01*
X120582614Y-77393590D01*
X120617538Y-77437382D01*
X120621720Y-77442939D01*
X120646078Y-77477267D01*
X120649944Y-77483052D01*
X120775719Y-77683220D01*
X120779252Y-77689210D01*
X120799608Y-77726041D01*
X120802801Y-77732221D01*
X120827105Y-77782688D01*
X120829945Y-77789035D01*
X120846053Y-77827921D01*
X120848535Y-77834422D01*
X120926616Y-78057566D01*
X120928728Y-78064193D01*
X120940381Y-78104642D01*
X120942119Y-78111379D01*
X120954582Y-78165989D01*
X120955938Y-78172809D01*
X120962986Y-78214293D01*
X120963958Y-78221180D01*
X120964957Y-78230048D01*
X122060088Y-78230048D01*
X122060088Y-78202957D01*
X126546435Y-78202957D01*
X126563458Y-78230048D01*
X127060088Y-78230048D01*
X128058088Y-78230048D01*
X129560088Y-78230048D01*
X129560088Y-77325974D01*
X129539575Y-77143908D01*
X129538990Y-77136979D01*
X129536630Y-77094961D01*
X129536435Y-77088007D01*
X129536435Y-77059996D01*
X130534435Y-77059996D01*
X130534435Y-77060003D01*
X130554630Y-77239249D01*
X130554631Y-77239254D01*
X130614211Y-77409523D01*
X130658027Y-77479255D01*
X130710184Y-77562262D01*
X130837738Y-77689816D01*
X130895390Y-77726041D01*
X130985542Y-77782688D01*
X130990478Y-77785789D01*
X131129463Y-77834422D01*
X131160745Y-77845368D01*
X131160750Y-77845369D01*
X131339996Y-77865565D01*
X131340000Y-77865565D01*
X131340004Y-77865565D01*
X131519249Y-77845369D01*
X131519252Y-77845368D01*
X131519255Y-77845368D01*
X131689522Y-77785789D01*
X131842262Y-77689816D01*
X131936693Y-77595385D01*
X133058088Y-77595385D01*
X133058088Y-78230048D01*
X134560088Y-78230048D01*
X135558088Y-78230048D01*
X137060088Y-78230048D01*
X137060088Y-77187560D01*
X138058088Y-77187560D01*
X138058088Y-78230048D01*
X139330319Y-78230048D01*
X139284281Y-78156780D01*
X139280748Y-78150790D01*
X139260392Y-78113959D01*
X139257199Y-78107779D01*
X139232895Y-78057312D01*
X139230055Y-78050965D01*
X139213947Y-78012079D01*
X139211465Y-78005578D01*
X139133384Y-77782434D01*
X139131272Y-77775807D01*
X139119619Y-77735358D01*
X139117881Y-77728621D01*
X139105418Y-77674011D01*
X139104062Y-77667191D01*
X139097014Y-77625707D01*
X139096042Y-77618820D01*
X139069575Y-77383908D01*
X139068990Y-77376979D01*
X139066630Y-77334961D01*
X139066435Y-77328007D01*
X139066435Y-77299996D01*
X140064435Y-77299996D01*
X140064435Y-77300003D01*
X140084630Y-77479249D01*
X140084631Y-77479254D01*
X140144211Y-77649523D01*
X140192291Y-77726041D01*
X140240184Y-77802262D01*
X140367738Y-77929816D01*
X140393159Y-77945789D01*
X140520121Y-78025565D01*
X140520478Y-78025789D01*
X140657863Y-78073862D01*
X140690745Y-78085368D01*
X140690750Y-78085369D01*
X140869996Y-78105565D01*
X140870000Y-78105565D01*
X140870004Y-78105565D01*
X141049249Y-78085369D01*
X141049252Y-78085368D01*
X141049255Y-78085368D01*
X141219522Y-78025789D01*
X141372262Y-77929816D01*
X141499816Y-77802262D01*
X141595789Y-77649522D01*
X141655368Y-77479255D01*
X141664382Y-77399254D01*
X141675565Y-77300003D01*
X141675565Y-77299996D01*
X141655369Y-77120750D01*
X141655368Y-77120745D01*
X141632731Y-77056053D01*
X141595789Y-76950478D01*
X141499816Y-76797738D01*
X141372262Y-76670184D01*
X141219523Y-76574211D01*
X141049254Y-76514631D01*
X141049249Y-76514630D01*
X140870004Y-76494435D01*
X140869996Y-76494435D01*
X140690750Y-76514630D01*
X140690745Y-76514631D01*
X140520476Y-76574211D01*
X140367737Y-76670184D01*
X140240184Y-76797737D01*
X140144211Y-76950476D01*
X140084631Y-77120745D01*
X140084630Y-77120750D01*
X140064435Y-77299996D01*
X139066435Y-77299996D01*
X139066435Y-77271993D01*
X139066630Y-77265039D01*
X139068990Y-77223021D01*
X139069575Y-77216092D01*
X139096042Y-76981180D01*
X139097014Y-76974293D01*
X139104062Y-76932809D01*
X139105418Y-76925989D01*
X139117881Y-76871379D01*
X139119619Y-76864642D01*
X139131272Y-76824193D01*
X139133384Y-76817566D01*
X139164708Y-76728048D01*
X139075414Y-76728048D01*
X139048153Y-76755309D01*
X139043100Y-76760087D01*
X139011724Y-76788127D01*
X139006410Y-76792614D01*
X138962618Y-76827538D01*
X138957061Y-76831720D01*
X138922733Y-76856078D01*
X138916948Y-76859944D01*
X138716780Y-76985719D01*
X138710790Y-76989252D01*
X138673959Y-77009608D01*
X138667779Y-77012801D01*
X138617312Y-77037105D01*
X138610965Y-77039945D01*
X138572079Y-77056053D01*
X138565578Y-77058535D01*
X138342434Y-77136616D01*
X138335807Y-77138728D01*
X138295358Y-77150381D01*
X138288621Y-77152119D01*
X138234011Y-77164582D01*
X138227191Y-77165938D01*
X138185707Y-77172986D01*
X138178820Y-77173958D01*
X138058088Y-77187560D01*
X137060088Y-77187560D01*
X137060088Y-77016589D01*
X137052221Y-77012801D01*
X137046041Y-77009608D01*
X137009210Y-76989252D01*
X137003220Y-76985719D01*
X136803052Y-76859944D01*
X136797267Y-76856078D01*
X136762939Y-76831720D01*
X136757382Y-76827538D01*
X136713590Y-76792614D01*
X136708276Y-76788127D01*
X136676900Y-76760087D01*
X136671847Y-76755309D01*
X136644586Y-76728048D01*
X135558088Y-76728048D01*
X135558088Y-78230048D01*
X134560088Y-78230048D01*
X134560088Y-76728048D01*
X133111925Y-76728048D01*
X133112986Y-76734293D01*
X133113958Y-76741180D01*
X133140425Y-76976092D01*
X133141010Y-76983021D01*
X133143370Y-77025039D01*
X133143565Y-77031993D01*
X133143565Y-77088007D01*
X133143370Y-77094961D01*
X133141010Y-77136979D01*
X133140425Y-77143908D01*
X133113958Y-77378820D01*
X133112986Y-77385707D01*
X133105938Y-77427191D01*
X133104582Y-77434011D01*
X133092119Y-77488621D01*
X133090381Y-77495358D01*
X133078728Y-77535807D01*
X133076616Y-77542435D01*
X133058088Y-77595385D01*
X131936693Y-77595385D01*
X131969816Y-77562262D01*
X132065789Y-77409522D01*
X132125368Y-77239255D01*
X132127197Y-77223021D01*
X132145565Y-77060003D01*
X132145565Y-77059996D01*
X132125369Y-76880750D01*
X132125368Y-76880745D01*
X132106750Y-76827538D01*
X132065789Y-76710478D01*
X131969816Y-76557738D01*
X131842262Y-76430184D01*
X131817198Y-76414435D01*
X131689523Y-76334211D01*
X131519254Y-76274631D01*
X131519249Y-76274630D01*
X131340004Y-76254435D01*
X131339996Y-76254435D01*
X131160750Y-76274630D01*
X131160745Y-76274631D01*
X130990476Y-76334211D01*
X130837737Y-76430184D01*
X130710184Y-76557737D01*
X130614211Y-76710476D01*
X130554631Y-76880745D01*
X130554630Y-76880750D01*
X130534435Y-77059996D01*
X129536435Y-77059996D01*
X129536435Y-77031993D01*
X129536630Y-77025039D01*
X129538990Y-76983021D01*
X129539575Y-76976092D01*
X129560088Y-76794025D01*
X129560088Y-76728048D01*
X128058088Y-76728048D01*
X128058088Y-78230048D01*
X127060088Y-78230048D01*
X127060088Y-76728048D01*
X126773286Y-76728048D01*
X126776616Y-76737566D01*
X126778728Y-76744193D01*
X126790381Y-76784642D01*
X126792119Y-76791379D01*
X126804582Y-76845989D01*
X126805938Y-76852809D01*
X126812986Y-76894293D01*
X126813958Y-76901180D01*
X126840425Y-77136092D01*
X126841010Y-77143021D01*
X126843370Y-77185039D01*
X126843565Y-77191993D01*
X126843565Y-77248007D01*
X126843370Y-77254961D01*
X126841010Y-77296979D01*
X126840425Y-77303908D01*
X126813958Y-77538820D01*
X126812986Y-77545707D01*
X126805938Y-77587191D01*
X126804582Y-77594011D01*
X126792119Y-77648621D01*
X126790381Y-77655358D01*
X126778728Y-77695807D01*
X126776616Y-77702434D01*
X126698535Y-77925578D01*
X126696053Y-77932079D01*
X126679945Y-77970965D01*
X126677105Y-77977312D01*
X126652801Y-78027779D01*
X126649608Y-78033959D01*
X126629252Y-78070790D01*
X126625718Y-78076781D01*
X126546435Y-78202957D01*
X122060088Y-78202957D01*
X122060088Y-77219996D01*
X124234435Y-77219996D01*
X124234435Y-77220003D01*
X124254630Y-77399249D01*
X124254631Y-77399254D01*
X124314211Y-77569523D01*
X124379866Y-77674011D01*
X124410184Y-77722262D01*
X124537738Y-77849816D01*
X124628080Y-77906582D01*
X124668658Y-77932079D01*
X124690478Y-77945789D01*
X124762427Y-77970965D01*
X124860745Y-78005368D01*
X124860750Y-78005369D01*
X125039996Y-78025565D01*
X125040000Y-78025565D01*
X125040004Y-78025565D01*
X125219249Y-78005369D01*
X125219252Y-78005368D01*
X125219255Y-78005368D01*
X125389522Y-77945789D01*
X125542262Y-77849816D01*
X125669816Y-77722262D01*
X125765789Y-77569522D01*
X125825368Y-77399255D01*
X125825369Y-77399249D01*
X125845565Y-77220003D01*
X125845565Y-77219996D01*
X125825369Y-77040750D01*
X125825368Y-77040745D01*
X125807350Y-76989252D01*
X125765789Y-76870478D01*
X125669816Y-76717738D01*
X125542262Y-76590184D01*
X125490623Y-76557737D01*
X125389523Y-76494211D01*
X125219254Y-76434631D01*
X125219249Y-76434630D01*
X125040004Y-76414435D01*
X125039996Y-76414435D01*
X124860750Y-76434630D01*
X124860745Y-76434631D01*
X124690476Y-76494211D01*
X124537737Y-76590184D01*
X124410184Y-76717737D01*
X124314211Y-76870476D01*
X124254631Y-77040745D01*
X124254630Y-77040750D01*
X124234435Y-77219996D01*
X122060088Y-77219996D01*
X122060088Y-76728048D01*
X120558088Y-76728048D01*
X120558088Y-77365852D01*
X117824934Y-77365852D01*
X117822691Y-74228048D01*
X118946691Y-74228048D01*
X118947764Y-75730048D01*
X119560088Y-75730048D01*
X120558088Y-75730048D01*
X122060088Y-75730048D01*
X122060088Y-74942300D01*
X120558088Y-74942300D01*
X120558088Y-75730048D01*
X119560088Y-75730048D01*
X119560088Y-74690352D01*
X123058088Y-74690352D01*
X123058088Y-75730048D01*
X124030809Y-75730048D01*
X124183220Y-75634281D01*
X124189210Y-75630748D01*
X124226041Y-75610392D01*
X124232221Y-75607199D01*
X124282688Y-75582895D01*
X124289035Y-75580055D01*
X124327921Y-75563947D01*
X124334422Y-75561465D01*
X124521914Y-75495859D01*
X125558088Y-75495859D01*
X125745578Y-75561465D01*
X125752079Y-75563947D01*
X125790965Y-75580055D01*
X125797312Y-75582895D01*
X125847779Y-75607199D01*
X125853959Y-75610392D01*
X125890790Y-75630748D01*
X125896780Y-75634281D01*
X126049191Y-75730048D01*
X127060088Y-75730048D01*
X128058088Y-75730048D01*
X129560088Y-75730048D01*
X133058088Y-75730048D01*
X134560088Y-75730048D01*
X135558088Y-75730048D01*
X136087752Y-75730048D01*
X136087014Y-75725707D01*
X136086042Y-75718820D01*
X136059575Y-75483908D01*
X136058990Y-75476979D01*
X136056630Y-75434961D01*
X136056435Y-75428007D01*
X136056435Y-75399996D01*
X137054435Y-75399996D01*
X137054435Y-75400003D01*
X137074630Y-75579249D01*
X137074631Y-75579254D01*
X137134211Y-75749523D01*
X137230184Y-75902262D01*
X137357738Y-76029816D01*
X137510478Y-76125789D01*
X137680745Y-76185368D01*
X137680750Y-76185369D01*
X137859996Y-76205565D01*
X137860000Y-76205565D01*
X137860004Y-76205565D01*
X138039249Y-76185369D01*
X138039252Y-76185368D01*
X138039255Y-76185368D01*
X138209522Y-76125789D01*
X138362262Y-76029816D01*
X138489816Y-75902262D01*
X138585789Y-75749522D01*
X138645368Y-75579255D01*
X138647093Y-75563947D01*
X138651452Y-75525263D01*
X140558088Y-75525263D01*
X140786092Y-75499575D01*
X140793021Y-75498990D01*
X140835039Y-75496630D01*
X140841993Y-75496435D01*
X140898007Y-75496435D01*
X140904961Y-75496630D01*
X140946979Y-75498990D01*
X140953908Y-75499575D01*
X141188820Y-75526042D01*
X141195707Y-75527014D01*
X141237191Y-75534062D01*
X141244011Y-75535418D01*
X141298621Y-75547881D01*
X141305358Y-75549619D01*
X141345807Y-75561272D01*
X141352434Y-75563384D01*
X141575578Y-75641465D01*
X141582079Y-75643947D01*
X141620965Y-75660055D01*
X141627312Y-75662895D01*
X141677779Y-75687199D01*
X141683959Y-75690392D01*
X141720790Y-75710748D01*
X141726781Y-75714282D01*
X141751872Y-75730048D01*
X142060088Y-75730048D01*
X142060088Y-74228048D01*
X140558088Y-74228048D01*
X140558088Y-75525263D01*
X138651452Y-75525263D01*
X138665565Y-75400003D01*
X138665565Y-75399996D01*
X138645369Y-75220750D01*
X138645368Y-75220745D01*
X138585788Y-75050476D01*
X138506439Y-74924193D01*
X138489816Y-74897738D01*
X138362262Y-74770184D01*
X138241688Y-74694422D01*
X138209523Y-74674211D01*
X138039254Y-74614631D01*
X138039249Y-74614630D01*
X137860004Y-74594435D01*
X137859996Y-74594435D01*
X137680750Y-74614630D01*
X137680745Y-74614631D01*
X137510476Y-74674211D01*
X137357737Y-74770184D01*
X137230184Y-74897737D01*
X137134211Y-75050476D01*
X137074631Y-75220745D01*
X137074630Y-75220750D01*
X137054435Y-75399996D01*
X136056435Y-75399996D01*
X136056435Y-75371993D01*
X136056630Y-75365039D01*
X136058990Y-75323021D01*
X136059575Y-75316092D01*
X136086042Y-75081180D01*
X136087014Y-75074293D01*
X136094062Y-75032809D01*
X136095418Y-75025989D01*
X136107881Y-74971379D01*
X136109619Y-74964642D01*
X136121272Y-74924193D01*
X136123384Y-74917566D01*
X136201465Y-74694422D01*
X136203947Y-74687921D01*
X136220055Y-74649035D01*
X136222895Y-74642688D01*
X136247199Y-74592221D01*
X136250392Y-74586041D01*
X136270748Y-74549210D01*
X136274281Y-74543220D01*
X136400056Y-74343052D01*
X136403922Y-74337267D01*
X136428280Y-74302939D01*
X136432462Y-74297382D01*
X136467386Y-74253590D01*
X136471873Y-74248276D01*
X136489950Y-74228048D01*
X135558088Y-74228048D01*
X135558088Y-75730048D01*
X134560088Y-75730048D01*
X134560088Y-74228048D01*
X133058088Y-74228048D01*
X133058088Y-75730048D01*
X129560088Y-75730048D01*
X129560088Y-75434741D01*
X130558088Y-75434741D01*
X130582688Y-75422895D01*
X130589035Y-75420055D01*
X130627921Y-75403947D01*
X130634422Y-75401465D01*
X130857566Y-75323384D01*
X130864193Y-75321272D01*
X130904642Y-75309619D01*
X130911379Y-75307881D01*
X130965989Y-75295418D01*
X130972809Y-75294062D01*
X131014293Y-75287014D01*
X131021180Y-75286042D01*
X131256092Y-75259575D01*
X131263021Y-75258990D01*
X131305039Y-75256630D01*
X131311993Y-75256435D01*
X131368007Y-75256435D01*
X131374961Y-75256630D01*
X131416979Y-75258990D01*
X131423908Y-75259575D01*
X131658820Y-75286042D01*
X131665707Y-75287014D01*
X131707191Y-75294062D01*
X131714011Y-75295418D01*
X131768621Y-75307881D01*
X131775358Y-75309619D01*
X131815807Y-75321272D01*
X131822434Y-75323384D01*
X132045578Y-75401465D01*
X132052079Y-75403947D01*
X132060088Y-75407264D01*
X132060088Y-74228048D01*
X130558088Y-74228048D01*
X130558088Y-75434741D01*
X129560088Y-75434741D01*
X129560088Y-74228048D01*
X128058088Y-74228048D01*
X128058088Y-75730048D01*
X127060088Y-75730048D01*
X127060088Y-74228048D01*
X125558088Y-74228048D01*
X125558088Y-75495859D01*
X124521914Y-75495859D01*
X124557566Y-75483384D01*
X124560088Y-75482580D01*
X124560088Y-74228048D01*
X123660699Y-74228048D01*
X123509707Y-74379040D01*
X123506198Y-74382414D01*
X123484570Y-74402407D01*
X123480930Y-74405642D01*
X123451123Y-74431100D01*
X123447360Y-74434188D01*
X123424227Y-74452425D01*
X123420344Y-74455365D01*
X123235753Y-74589480D01*
X123231755Y-74592266D01*
X123207257Y-74608634D01*
X123203158Y-74611258D01*
X123169734Y-74631740D01*
X123165536Y-74634201D01*
X123139840Y-74648592D01*
X123135543Y-74650888D01*
X123058088Y-74690352D01*
X119560088Y-74690352D01*
X119560088Y-74663132D01*
X119536057Y-74650888D01*
X119531760Y-74648592D01*
X119506064Y-74634201D01*
X119501866Y-74631740D01*
X119468442Y-74611258D01*
X119464343Y-74608634D01*
X119439845Y-74592266D01*
X119435847Y-74589480D01*
X119251256Y-74455365D01*
X119247373Y-74452425D01*
X119224240Y-74434188D01*
X119220477Y-74431100D01*
X119190670Y-74405642D01*
X119187030Y-74402407D01*
X119165402Y-74382414D01*
X119161893Y-74379040D01*
X119010901Y-74228048D01*
X118946691Y-74228048D01*
X117822691Y-74228048D01*
X117821562Y-72649313D01*
X119435300Y-72649313D01*
X119435300Y-72838286D01*
X119464859Y-73024918D01*
X119523254Y-73204636D01*
X119579890Y-73315789D01*
X119609040Y-73372999D01*
X119720110Y-73525873D01*
X119853727Y-73659490D01*
X120006601Y-73770560D01*
X120086147Y-73811090D01*
X120174963Y-73856345D01*
X120174965Y-73856345D01*
X120174968Y-73856347D01*
X120271297Y-73887646D01*
X120354681Y-73914740D01*
X120541314Y-73944300D01*
X120541319Y-73944300D01*
X122130286Y-73944300D01*
X122316918Y-73914740D01*
X122496632Y-73856347D01*
X122664999Y-73770560D01*
X122817873Y-73659490D01*
X122951490Y-73525873D01*
X123062560Y-73372999D01*
X123148347Y-73204632D01*
X123206740Y-73024918D01*
X123236300Y-72838286D01*
X123236300Y-72649313D01*
X123206740Y-72462681D01*
X123169969Y-72349514D01*
X123148347Y-72282968D01*
X123148345Y-72282965D01*
X123148345Y-72282963D01*
X123062559Y-72114600D01*
X123048586Y-72095368D01*
X122951490Y-71961727D01*
X122817873Y-71828110D01*
X122680150Y-71728048D01*
X123985683Y-71728048D01*
X124046476Y-71847362D01*
X124048601Y-71851744D01*
X124060944Y-71878519D01*
X124062899Y-71882987D01*
X124077897Y-71919203D01*
X124079669Y-71923733D01*
X124089853Y-71951341D01*
X124091447Y-71955936D01*
X124161955Y-72172932D01*
X124163370Y-72177596D01*
X124171373Y-72205976D01*
X124172603Y-72210694D01*
X124181751Y-72248813D01*
X124182793Y-72253563D01*
X124188533Y-72282425D01*
X124189388Y-72287214D01*
X124225081Y-72512565D01*
X124225749Y-72517395D01*
X124229212Y-72546667D01*
X124229689Y-72551511D01*
X124232763Y-72590591D01*
X124233050Y-72595450D01*
X124234205Y-72624864D01*
X124234300Y-72629729D01*
X124234300Y-72857871D01*
X124234205Y-72862736D01*
X124233050Y-72892150D01*
X124232763Y-72897009D01*
X124229689Y-72936089D01*
X124229212Y-72940933D01*
X124225749Y-72970205D01*
X124225081Y-72975035D01*
X124189388Y-73200386D01*
X124188533Y-73205175D01*
X124183586Y-73230048D01*
X124560088Y-73230048D01*
X125558088Y-73230048D01*
X127060088Y-73230048D01*
X128058088Y-73230048D01*
X129560088Y-73230048D01*
X130558088Y-73230048D01*
X132060088Y-73230048D01*
X133058088Y-73230048D01*
X134560088Y-73230048D01*
X140701791Y-73230048D01*
X142060088Y-73230048D01*
X142060088Y-71728048D01*
X141085099Y-71728048D01*
X141085100Y-72283648D01*
X141085055Y-72286972D01*
X141084516Y-72307073D01*
X141084383Y-72310393D01*
X141082951Y-72337080D01*
X141082729Y-72340389D01*
X141081119Y-72360382D01*
X141080808Y-72363685D01*
X141069638Y-72467575D01*
X141068571Y-72475243D01*
X141060664Y-72521429D01*
X141059119Y-72529019D01*
X141044774Y-72589730D01*
X141042758Y-72597209D01*
X141029150Y-72642072D01*
X141026671Y-72649412D01*
X140953013Y-72846902D01*
X140949625Y-72855082D01*
X140927367Y-72903819D01*
X140923405Y-72911733D01*
X140889228Y-72974323D01*
X140884710Y-72981937D01*
X140855746Y-73027004D01*
X140850698Y-73034274D01*
X140721714Y-73206573D01*
X140716161Y-73213464D01*
X140701791Y-73230048D01*
X134560088Y-73230048D01*
X134560088Y-71728048D01*
X133058088Y-71728048D01*
X133058088Y-73230048D01*
X132060088Y-73230048D01*
X132060088Y-71728048D01*
X130558088Y-71728048D01*
X130558088Y-73230048D01*
X129560088Y-73230048D01*
X129560088Y-71728048D01*
X128058088Y-71728048D01*
X128058088Y-73230048D01*
X127060088Y-73230048D01*
X127060088Y-71728048D01*
X125558088Y-71728048D01*
X125558088Y-73230048D01*
X124560088Y-73230048D01*
X124560088Y-71728048D01*
X123985683Y-71728048D01*
X122680150Y-71728048D01*
X122664999Y-71717040D01*
X122496636Y-71631254D01*
X122316918Y-71572859D01*
X122288758Y-71568399D01*
X135773154Y-71568399D01*
X135773154Y-71568400D01*
X135792895Y-71781447D01*
X135792896Y-71781450D01*
X135851446Y-71987235D01*
X135851449Y-71987241D01*
X135914866Y-72114600D01*
X135946819Y-72178770D01*
X136075759Y-72349514D01*
X136233878Y-72493658D01*
X136233883Y-72493661D01*
X136233886Y-72493663D01*
X136415786Y-72606291D01*
X136415787Y-72606291D01*
X136415790Y-72606293D01*
X136615303Y-72683585D01*
X136825620Y-72722900D01*
X136825622Y-72722900D01*
X137039578Y-72722900D01*
X137039580Y-72722900D01*
X137249897Y-72683585D01*
X137449410Y-72606293D01*
X137631322Y-72493658D01*
X137664193Y-72463691D01*
X137726995Y-72433075D01*
X137796382Y-72441272D01*
X137846995Y-72481016D01*
X137921054Y-72579946D01*
X137956246Y-72606291D01*
X138036264Y-72666193D01*
X138036271Y-72666197D01*
X138171117Y-72716491D01*
X138171116Y-72716491D01*
X138178044Y-72717235D01*
X138230727Y-72722900D01*
X139634472Y-72722899D01*
X139694083Y-72716491D01*
X139828931Y-72666196D01*
X139944146Y-72579946D01*
X140030396Y-72464731D01*
X140080691Y-72329883D01*
X140087100Y-72270273D01*
X140087099Y-71252788D01*
X140106783Y-71185750D01*
X140145124Y-71147797D01*
X140278462Y-71064016D01*
X140406016Y-70936462D01*
X140501989Y-70783722D01*
X140561568Y-70613455D01*
X140564863Y-70584211D01*
X140581765Y-70434203D01*
X140581765Y-70434196D01*
X140561569Y-70254950D01*
X140561568Y-70254945D01*
X140501989Y-70084678D01*
X140406016Y-69931938D01*
X140278462Y-69804384D01*
X140125723Y-69708411D01*
X139955454Y-69648831D01*
X139955449Y-69648830D01*
X139776204Y-69628635D01*
X139776196Y-69628635D01*
X139596950Y-69648830D01*
X139596945Y-69648831D01*
X139426675Y-69708411D01*
X139406929Y-69720819D01*
X139339692Y-69739818D01*
X139272857Y-69719449D01*
X139227644Y-69666181D01*
X139218408Y-69596924D01*
X139223918Y-69574869D01*
X139285366Y-69399262D01*
X139285369Y-69399249D01*
X139305565Y-69220003D01*
X139305565Y-69219997D01*
X139289126Y-69074104D01*
X139285368Y-69040745D01*
X139285367Y-69040744D01*
X139284949Y-69037027D01*
X139297003Y-68968205D01*
X139303167Y-68957184D01*
X139384389Y-68827922D01*
X139443968Y-68657655D01*
X139443969Y-68657649D01*
X139461304Y-68503796D01*
X140901035Y-68503796D01*
X140901035Y-68503803D01*
X140921230Y-68683049D01*
X140921231Y-68683054D01*
X140980811Y-68853323D01*
X141076784Y-69006062D01*
X141204339Y-69133617D01*
X141217163Y-69141674D01*
X141230711Y-69150187D01*
X141277003Y-69202521D01*
X141287961Y-69241299D01*
X141304630Y-69389249D01*
X141304631Y-69389254D01*
X141364211Y-69559523D01*
X141420328Y-69648832D01*
X141460184Y-69712262D01*
X141587738Y-69839816D01*
X141603653Y-69849816D01*
X141738819Y-69934747D01*
X141740478Y-69935789D01*
X141889726Y-69988013D01*
X141910745Y-69995368D01*
X141910750Y-69995369D01*
X142089996Y-70015565D01*
X142090000Y-70015565D01*
X142090004Y-70015565D01*
X142269249Y-69995369D01*
X142269252Y-69995368D01*
X142269255Y-69995368D01*
X142439522Y-69935789D01*
X142592262Y-69839816D01*
X142719816Y-69712262D01*
X142815789Y-69559522D01*
X142875368Y-69389255D01*
X142888849Y-69269608D01*
X142895565Y-69210003D01*
X142895565Y-69209996D01*
X142875369Y-69030750D01*
X142875368Y-69030745D01*
X142849623Y-68957170D01*
X142815789Y-68860478D01*
X142719816Y-68707738D01*
X142592262Y-68580184D01*
X142592260Y-68580182D01*
X142592258Y-68580181D01*
X142565885Y-68563609D01*
X142519594Y-68511274D01*
X142508638Y-68472499D01*
X142505603Y-68445565D01*
X142502895Y-68421522D01*
X142491969Y-68324549D01*
X142491968Y-68324545D01*
X142458902Y-68230048D01*
X142432389Y-68154278D01*
X142428567Y-68148196D01*
X142341433Y-68009523D01*
X142336416Y-68001538D01*
X142208862Y-67873984D01*
X142168438Y-67848584D01*
X142056123Y-67778011D01*
X141885854Y-67718431D01*
X141885849Y-67718430D01*
X141706604Y-67698235D01*
X141706596Y-67698235D01*
X141527350Y-67718430D01*
X141527345Y-67718431D01*
X141357076Y-67778011D01*
X141204337Y-67873984D01*
X141076784Y-68001537D01*
X140980811Y-68154276D01*
X140921231Y-68324545D01*
X140921230Y-68324550D01*
X140901035Y-68503796D01*
X139461304Y-68503796D01*
X139464165Y-68478403D01*
X139464165Y-68478396D01*
X139443969Y-68299150D01*
X139443968Y-68299145D01*
X139433705Y-68269816D01*
X139384389Y-68128878D01*
X139288416Y-67976138D01*
X139160862Y-67848584D01*
X139146015Y-67839255D01*
X139008123Y-67752611D01*
X138837854Y-67693031D01*
X138837849Y-67693030D01*
X138658604Y-67672835D01*
X138658596Y-67672835D01*
X138479350Y-67693030D01*
X138479345Y-67693031D01*
X138309076Y-67752611D01*
X138156337Y-67848584D01*
X138028784Y-67976137D01*
X137932811Y-68128876D01*
X137873231Y-68299145D01*
X137873230Y-68299150D01*
X137853035Y-68478396D01*
X137853035Y-68478403D01*
X137873650Y-68661373D01*
X137861595Y-68730195D01*
X137855424Y-68741228D01*
X137774211Y-68870476D01*
X137714631Y-69040745D01*
X137714630Y-69040750D01*
X137694435Y-69219996D01*
X137694435Y-69220003D01*
X137714630Y-69399249D01*
X137714631Y-69399254D01*
X137774211Y-69569523D01*
X137824044Y-69648831D01*
X137870184Y-69722262D01*
X137997738Y-69849816D01*
X138088080Y-69906582D01*
X138134561Y-69935788D01*
X138150478Y-69945789D01*
X138320745Y-70005368D01*
X138320750Y-70005369D01*
X138499996Y-70025565D01*
X138500000Y-70025565D01*
X138500004Y-70025565D01*
X138679249Y-70005369D01*
X138679252Y-70005368D01*
X138679255Y-70005368D01*
X138849522Y-69945789D01*
X138869266Y-69933382D01*
X138936501Y-69914381D01*
X139003337Y-69934747D01*
X139048552Y-69988013D01*
X139057792Y-70057269D01*
X139052282Y-70079329D01*
X138990830Y-70254950D01*
X138985328Y-70303785D01*
X138958261Y-70368198D01*
X138900666Y-70407753D01*
X138862108Y-70413900D01*
X138230729Y-70413900D01*
X138230723Y-70413901D01*
X138171116Y-70420308D01*
X138036271Y-70470602D01*
X138036264Y-70470606D01*
X137921055Y-70556852D01*
X137846996Y-70655782D01*
X137791062Y-70697652D01*
X137721370Y-70702636D01*
X137664194Y-70673109D01*
X137631322Y-70643142D01*
X137631316Y-70643138D01*
X137631313Y-70643136D01*
X137449413Y-70530508D01*
X137449407Y-70530506D01*
X137448261Y-70530062D01*
X137249897Y-70453215D01*
X137039580Y-70413900D01*
X136825620Y-70413900D01*
X136615303Y-70453215D01*
X136489133Y-70502093D01*
X136415792Y-70530506D01*
X136415786Y-70530508D01*
X136233886Y-70643136D01*
X136233883Y-70643138D01*
X136233879Y-70643140D01*
X136233878Y-70643142D01*
X136075759Y-70787286D01*
X136075758Y-70787287D01*
X135946819Y-70958029D01*
X135851449Y-71149558D01*
X135851446Y-71149564D01*
X135792896Y-71355349D01*
X135792895Y-71355352D01*
X135773154Y-71568399D01*
X122288758Y-71568399D01*
X122130286Y-71543300D01*
X122130281Y-71543300D01*
X120541319Y-71543300D01*
X120541314Y-71543300D01*
X120354681Y-71572859D01*
X120174963Y-71631254D01*
X120006600Y-71717040D01*
X119945988Y-71761078D01*
X119853727Y-71828110D01*
X119853725Y-71828112D01*
X119853724Y-71828112D01*
X119720112Y-71961724D01*
X119720112Y-71961725D01*
X119720110Y-71961727D01*
X119701574Y-71987240D01*
X119609040Y-72114600D01*
X119523254Y-72282963D01*
X119464859Y-72462681D01*
X119435300Y-72649313D01*
X117821562Y-72649313D01*
X117819115Y-69228048D01*
X118943116Y-69228048D01*
X118944189Y-70730048D01*
X119560088Y-70730048D01*
X123058088Y-70730048D01*
X124560088Y-70730048D01*
X125558088Y-70730048D01*
X127060088Y-70730048D01*
X128058088Y-70730048D01*
X129560088Y-70730048D01*
X130558088Y-70730048D01*
X132060088Y-70730048D01*
X132060088Y-69372304D01*
X133058088Y-69372304D01*
X133058088Y-70730048D01*
X134560088Y-70730048D01*
X134560088Y-69228048D01*
X134494903Y-69228048D01*
X134466780Y-69245719D01*
X134460790Y-69249252D01*
X134423959Y-69269608D01*
X134417779Y-69272801D01*
X134367312Y-69297105D01*
X134360965Y-69299945D01*
X134322079Y-69316053D01*
X134315578Y-69318535D01*
X134092434Y-69396616D01*
X134085807Y-69398728D01*
X134045358Y-69410381D01*
X134038621Y-69412119D01*
X133984011Y-69424582D01*
X133977191Y-69425938D01*
X133935707Y-69432986D01*
X133928820Y-69433958D01*
X133693908Y-69460425D01*
X133686979Y-69461010D01*
X133644961Y-69463370D01*
X133638007Y-69463565D01*
X133581993Y-69463565D01*
X133575039Y-69463370D01*
X133533021Y-69461010D01*
X133526092Y-69460425D01*
X133291180Y-69433958D01*
X133284293Y-69432986D01*
X133242809Y-69425938D01*
X133235989Y-69424582D01*
X133181379Y-69412119D01*
X133174642Y-69410381D01*
X133134193Y-69398728D01*
X133127566Y-69396616D01*
X133058088Y-69372304D01*
X132060088Y-69372304D01*
X132060088Y-69228048D01*
X130558088Y-69228048D01*
X130558088Y-70730048D01*
X129560088Y-70730048D01*
X129560088Y-69228048D01*
X128058088Y-69228048D01*
X128058088Y-70730048D01*
X127060088Y-70730048D01*
X127060088Y-69228048D01*
X125558088Y-69228048D01*
X125558088Y-70730048D01*
X124560088Y-70730048D01*
X124560088Y-69228048D01*
X123058088Y-69228048D01*
X123058088Y-70730048D01*
X119560088Y-70730048D01*
X119560088Y-70545300D01*
X120558088Y-70545300D01*
X122060088Y-70545300D01*
X122060088Y-69228048D01*
X120558088Y-69228048D01*
X120558088Y-70545300D01*
X119560088Y-70545300D01*
X119560088Y-69228048D01*
X118943116Y-69228048D01*
X117819115Y-69228048D01*
X117817522Y-67000426D01*
X118941522Y-67000426D01*
X118942401Y-68230048D01*
X119560088Y-68230048D01*
X120558088Y-68230048D01*
X122060088Y-68230048D01*
X122060088Y-67792300D01*
X120558088Y-67792300D01*
X120558088Y-68230048D01*
X119560088Y-68230048D01*
X119560088Y-67540352D01*
X123058088Y-67540352D01*
X123058088Y-68230048D01*
X124560088Y-68230048D01*
X125558088Y-68230048D01*
X127060088Y-68230048D01*
X128058088Y-68230048D01*
X129560088Y-68230048D01*
X129560088Y-67344225D01*
X130558088Y-67344225D01*
X130558088Y-68230048D01*
X131904041Y-68230048D01*
X131873384Y-68142434D01*
X131871272Y-68135807D01*
X131859619Y-68095358D01*
X131857881Y-68088621D01*
X131845418Y-68034011D01*
X131844062Y-68027191D01*
X131837014Y-67985707D01*
X131836042Y-67978820D01*
X131809575Y-67743908D01*
X131808990Y-67736979D01*
X131806630Y-67694961D01*
X131806435Y-67688007D01*
X131806435Y-67659996D01*
X132804435Y-67659996D01*
X132804435Y-67660003D01*
X132824630Y-67839249D01*
X132824631Y-67839254D01*
X132884211Y-68009523D01*
X132925849Y-68075789D01*
X132980184Y-68162262D01*
X133107738Y-68289816D01*
X133260478Y-68385789D01*
X133430745Y-68445368D01*
X133430750Y-68445369D01*
X133609996Y-68465565D01*
X133610000Y-68465565D01*
X133610004Y-68465565D01*
X133789249Y-68445369D01*
X133789252Y-68445368D01*
X133789255Y-68445368D01*
X133959522Y-68385789D01*
X134112262Y-68289816D01*
X134239816Y-68162262D01*
X134248654Y-68148196D01*
X135643235Y-68148196D01*
X135643235Y-68148203D01*
X135663430Y-68327449D01*
X135663431Y-68327454D01*
X135723011Y-68497723D01*
X135771104Y-68574262D01*
X135818984Y-68650462D01*
X135946538Y-68778016D01*
X135978007Y-68797789D01*
X136066386Y-68853322D01*
X136099278Y-68873989D01*
X136109498Y-68877565D01*
X136269545Y-68933568D01*
X136269550Y-68933569D01*
X136448796Y-68953765D01*
X136448800Y-68953765D01*
X136448804Y-68953765D01*
X136628049Y-68933569D01*
X136628052Y-68933568D01*
X136628055Y-68933568D01*
X136798322Y-68873989D01*
X136951062Y-68778016D01*
X137078616Y-68650462D01*
X137174589Y-68497722D01*
X137234168Y-68327455D01*
X137234169Y-68327449D01*
X137254365Y-68148203D01*
X137254365Y-68148196D01*
X137234169Y-67968950D01*
X137234168Y-67968945D01*
X137192052Y-67848584D01*
X137174589Y-67798678D01*
X137170581Y-67792300D01*
X137108207Y-67693032D01*
X137078616Y-67645938D01*
X136951062Y-67518384D01*
X136798323Y-67422411D01*
X136628054Y-67362831D01*
X136628049Y-67362830D01*
X136448804Y-67342635D01*
X136448796Y-67342635D01*
X136269550Y-67362830D01*
X136269545Y-67362831D01*
X136099276Y-67422411D01*
X135946537Y-67518384D01*
X135818984Y-67645937D01*
X135723011Y-67798676D01*
X135663431Y-67968945D01*
X135663430Y-67968950D01*
X135643235Y-68148196D01*
X134248654Y-68148196D01*
X134335789Y-68009522D01*
X134395368Y-67839255D01*
X134395485Y-67838216D01*
X134415565Y-67660003D01*
X134415565Y-67659996D01*
X134395369Y-67480750D01*
X134395368Y-67480745D01*
X134369419Y-67406586D01*
X134335789Y-67310478D01*
X134332576Y-67305365D01*
X134271649Y-67208400D01*
X134239816Y-67157738D01*
X134112262Y-67030184D01*
X134072755Y-67005360D01*
X133959523Y-66934211D01*
X133789254Y-66874631D01*
X133789249Y-66874630D01*
X133610004Y-66854435D01*
X133609996Y-66854435D01*
X133430750Y-66874630D01*
X133430745Y-66874631D01*
X133260476Y-66934211D01*
X133107737Y-67030184D01*
X132980184Y-67157737D01*
X132884211Y-67310476D01*
X132824631Y-67480745D01*
X132824630Y-67480750D01*
X132804435Y-67659996D01*
X131806435Y-67659996D01*
X131806435Y-67631993D01*
X131806630Y-67625039D01*
X131808990Y-67583021D01*
X131809575Y-67576092D01*
X131836042Y-67341180D01*
X131837014Y-67334293D01*
X131844062Y-67292809D01*
X131845418Y-67285989D01*
X131846430Y-67281554D01*
X131826879Y-67289653D01*
X131820378Y-67292135D01*
X131597234Y-67370216D01*
X131590607Y-67372328D01*
X131550158Y-67383981D01*
X131543421Y-67385719D01*
X131488811Y-67398182D01*
X131481991Y-67399538D01*
X131440507Y-67406586D01*
X131433620Y-67407558D01*
X131198708Y-67434025D01*
X131191779Y-67434610D01*
X131149761Y-67436970D01*
X131142807Y-67437165D01*
X131086793Y-67437165D01*
X131079839Y-67436970D01*
X131037821Y-67434610D01*
X131030892Y-67434025D01*
X130795980Y-67407558D01*
X130789093Y-67406586D01*
X130747609Y-67399538D01*
X130740789Y-67398182D01*
X130686179Y-67385719D01*
X130679442Y-67383981D01*
X130638993Y-67372328D01*
X130632366Y-67370216D01*
X130558088Y-67344225D01*
X129560088Y-67344225D01*
X129560088Y-66728048D01*
X128058088Y-66728048D01*
X128058088Y-68230048D01*
X127060088Y-68230048D01*
X127060088Y-66728048D01*
X125558088Y-66728048D01*
X125558088Y-68230048D01*
X124560088Y-68230048D01*
X124560088Y-66728048D01*
X123923548Y-66728048D01*
X123903258Y-66761158D01*
X123900634Y-66765257D01*
X123884266Y-66789755D01*
X123881480Y-66793753D01*
X123747365Y-66978344D01*
X123744425Y-66982227D01*
X123726188Y-67005360D01*
X123723100Y-67009123D01*
X123697642Y-67038930D01*
X123694407Y-67042570D01*
X123674414Y-67064198D01*
X123671040Y-67067707D01*
X123509707Y-67229040D01*
X123506198Y-67232414D01*
X123484570Y-67252407D01*
X123480930Y-67255642D01*
X123451123Y-67281100D01*
X123447360Y-67284188D01*
X123424227Y-67302425D01*
X123420344Y-67305365D01*
X123235753Y-67439480D01*
X123231755Y-67442266D01*
X123207257Y-67458634D01*
X123203158Y-67461258D01*
X123169734Y-67481740D01*
X123165536Y-67484201D01*
X123139840Y-67498592D01*
X123135543Y-67500888D01*
X123058088Y-67540352D01*
X119560088Y-67540352D01*
X119560088Y-67513132D01*
X119536057Y-67500888D01*
X119531760Y-67498592D01*
X119506064Y-67484201D01*
X119501866Y-67481740D01*
X119468442Y-67461258D01*
X119464343Y-67458634D01*
X119439845Y-67442266D01*
X119435847Y-67439480D01*
X119251256Y-67305365D01*
X119247373Y-67302425D01*
X119224240Y-67284188D01*
X119220477Y-67281100D01*
X119190670Y-67255642D01*
X119187030Y-67252407D01*
X119165402Y-67232414D01*
X119161893Y-67229040D01*
X119000560Y-67067707D01*
X118997186Y-67064198D01*
X118977193Y-67042570D01*
X118973958Y-67038930D01*
X118948500Y-67009123D01*
X118945412Y-67005360D01*
X118941522Y-67000426D01*
X117817522Y-67000426D01*
X117816449Y-65499313D01*
X119435300Y-65499313D01*
X119435300Y-65688286D01*
X119464859Y-65874918D01*
X119523254Y-66054636D01*
X119576942Y-66160003D01*
X119609040Y-66222999D01*
X119720110Y-66375873D01*
X119853727Y-66509490D01*
X120006601Y-66620560D01*
X120086147Y-66661090D01*
X120174963Y-66706345D01*
X120174965Y-66706345D01*
X120174968Y-66706347D01*
X120271297Y-66737646D01*
X120354681Y-66764740D01*
X120541314Y-66794300D01*
X120541319Y-66794300D01*
X122130286Y-66794300D01*
X122316918Y-66764740D01*
X122327942Y-66761158D01*
X122496632Y-66706347D01*
X122664999Y-66620560D01*
X122817873Y-66509490D01*
X122951490Y-66375873D01*
X123062560Y-66222999D01*
X123148347Y-66054632D01*
X123206740Y-65874918D01*
X123216946Y-65810478D01*
X123236300Y-65688286D01*
X123236300Y-65499313D01*
X123206740Y-65312681D01*
X123169556Y-65198242D01*
X123148347Y-65132968D01*
X123148345Y-65132965D01*
X123148345Y-65132963D01*
X123092281Y-65022932D01*
X123062560Y-64964601D01*
X122951490Y-64811727D01*
X122817873Y-64678110D01*
X122664999Y-64567040D01*
X122638198Y-64553384D01*
X122496636Y-64481254D01*
X122316918Y-64422859D01*
X122130286Y-64393300D01*
X122130281Y-64393300D01*
X120541319Y-64393300D01*
X120541314Y-64393300D01*
X120354681Y-64422859D01*
X120174963Y-64481254D01*
X120006600Y-64567040D01*
X119942575Y-64613558D01*
X119853727Y-64678110D01*
X119853725Y-64678112D01*
X119853724Y-64678112D01*
X119720112Y-64811724D01*
X119720112Y-64811725D01*
X119720110Y-64811727D01*
X119686287Y-64858280D01*
X119609040Y-64964600D01*
X119523254Y-65132963D01*
X119464859Y-65312681D01*
X119435300Y-65499313D01*
X117816449Y-65499313D01*
X117815540Y-64228048D01*
X123761018Y-64228048D01*
X123881480Y-64393847D01*
X123884266Y-64397845D01*
X123900634Y-64422343D01*
X123903258Y-64426442D01*
X123923740Y-64459866D01*
X123926201Y-64464064D01*
X123940592Y-64489760D01*
X123942888Y-64494057D01*
X124046476Y-64697362D01*
X124048601Y-64701744D01*
X124060944Y-64728519D01*
X124062899Y-64732987D01*
X124077897Y-64769203D01*
X124079669Y-64773733D01*
X124089853Y-64801341D01*
X124091447Y-64805936D01*
X124161955Y-65022932D01*
X124163370Y-65027596D01*
X124171373Y-65055976D01*
X124172603Y-65060694D01*
X124181751Y-65098813D01*
X124182793Y-65103563D01*
X124188533Y-65132425D01*
X124189388Y-65137214D01*
X124225081Y-65362565D01*
X124225749Y-65367395D01*
X124229212Y-65396667D01*
X124229689Y-65401511D01*
X124232763Y-65440591D01*
X124233050Y-65445450D01*
X124234205Y-65474864D01*
X124234300Y-65479729D01*
X124234300Y-65707871D01*
X124234205Y-65712736D01*
X124233525Y-65730048D01*
X124560088Y-65730048D01*
X125558088Y-65730048D01*
X127060088Y-65730048D01*
X128058088Y-65730048D01*
X129315788Y-65730048D01*
X129314375Y-65717508D01*
X129313790Y-65710579D01*
X129311430Y-65668561D01*
X129311235Y-65661607D01*
X129311235Y-65633596D01*
X130309235Y-65633596D01*
X130309235Y-65633603D01*
X130329430Y-65812849D01*
X130329431Y-65812854D01*
X130389011Y-65983123D01*
X130469202Y-66110745D01*
X130484984Y-66135862D01*
X130612538Y-66263416D01*
X130765278Y-66359389D01*
X130874873Y-66397738D01*
X130935545Y-66418968D01*
X130935550Y-66418969D01*
X131114796Y-66439165D01*
X131114800Y-66439165D01*
X131114804Y-66439165D01*
X131294049Y-66418969D01*
X131294052Y-66418968D01*
X131294055Y-66418968D01*
X131464322Y-66359389D01*
X131617062Y-66263416D01*
X131744616Y-66135862D01*
X131840589Y-65983122D01*
X131900168Y-65812855D01*
X131900436Y-65810476D01*
X131909498Y-65730048D01*
X133058088Y-65730048D01*
X134560088Y-65730048D01*
X135558088Y-65730048D01*
X137060088Y-65730048D01*
X138058088Y-65730048D01*
X139560088Y-65730048D01*
X140558088Y-65730048D01*
X142060088Y-65730048D01*
X145558088Y-65730048D01*
X146979284Y-65730048D01*
X146979035Y-65729945D01*
X146972688Y-65727105D01*
X146922221Y-65702801D01*
X146916041Y-65699608D01*
X146879210Y-65679252D01*
X146873220Y-65675719D01*
X146673052Y-65549944D01*
X146667267Y-65546078D01*
X146632939Y-65521720D01*
X146627382Y-65517538D01*
X146583590Y-65482614D01*
X146578276Y-65478127D01*
X146546900Y-65450087D01*
X146541847Y-65445309D01*
X146374691Y-65278153D01*
X146369913Y-65273100D01*
X146341873Y-65241724D01*
X146337386Y-65236410D01*
X146302462Y-65192618D01*
X146298280Y-65187061D01*
X146298241Y-65187006D01*
X153058088Y-65187006D01*
X153058088Y-65730048D01*
X154560088Y-65730048D01*
X155558088Y-65730048D01*
X157060088Y-65730048D01*
X158058088Y-65730048D01*
X159560088Y-65730048D01*
X159560088Y-64914000D01*
X165558088Y-64914000D01*
X165558088Y-65730048D01*
X167060088Y-65730048D01*
X168058088Y-65730048D01*
X169228224Y-65730048D01*
X169229619Y-65724642D01*
X169241272Y-65684193D01*
X169243384Y-65677566D01*
X169321465Y-65454422D01*
X169323947Y-65447921D01*
X169340055Y-65409035D01*
X169342895Y-65402688D01*
X169367199Y-65352221D01*
X169370392Y-65346041D01*
X169390748Y-65309210D01*
X169394281Y-65303220D01*
X169520056Y-65103052D01*
X169523922Y-65097267D01*
X169548280Y-65062939D01*
X169552461Y-65057383D01*
X169560088Y-65047819D01*
X169560088Y-64228048D01*
X168058088Y-64228048D01*
X168058088Y-65730048D01*
X167060088Y-65730048D01*
X167060088Y-64924273D01*
X167019348Y-64931889D01*
X166996563Y-64934000D01*
X166783437Y-64934000D01*
X166760652Y-64931889D01*
X166551154Y-64892727D01*
X166529145Y-64886465D01*
X166330411Y-64809475D01*
X166309928Y-64799275D01*
X166163849Y-64708827D01*
X166050072Y-64779275D01*
X166029589Y-64789475D01*
X165830855Y-64866465D01*
X165808846Y-64872727D01*
X165599348Y-64911889D01*
X165576563Y-64914000D01*
X165558088Y-64914000D01*
X159560088Y-64914000D01*
X159560088Y-64885823D01*
X160558088Y-64885823D01*
X160587382Y-64862462D01*
X160592939Y-64858280D01*
X160627267Y-64833922D01*
X160633052Y-64830056D01*
X160833220Y-64704281D01*
X160839210Y-64700748D01*
X160876041Y-64680392D01*
X160882221Y-64677199D01*
X160932688Y-64652895D01*
X160939035Y-64650055D01*
X160971316Y-64636683D01*
X163058088Y-64636683D01*
X163267566Y-64563384D01*
X163274193Y-64561272D01*
X163314642Y-64549619D01*
X163321379Y-64547881D01*
X163375989Y-64535418D01*
X163382809Y-64534062D01*
X163424293Y-64527014D01*
X163431180Y-64526042D01*
X163666092Y-64499575D01*
X163673021Y-64498990D01*
X163715039Y-64496630D01*
X163721993Y-64496435D01*
X163778007Y-64496435D01*
X163784961Y-64496630D01*
X163826979Y-64498990D01*
X163833908Y-64499575D01*
X164068820Y-64526042D01*
X164075707Y-64527014D01*
X164117191Y-64534062D01*
X164124011Y-64535418D01*
X164178621Y-64547881D01*
X164185358Y-64549619D01*
X164225807Y-64561272D01*
X164232434Y-64563384D01*
X164455578Y-64641465D01*
X164462079Y-64643947D01*
X164500965Y-64660055D01*
X164507312Y-64662895D01*
X164557779Y-64687199D01*
X164560088Y-64688391D01*
X164560088Y-64534435D01*
X164532961Y-64509706D01*
X164517545Y-64492796D01*
X164389107Y-64322718D01*
X164377061Y-64303262D01*
X164339609Y-64228048D01*
X163058088Y-64228048D01*
X163058088Y-64636683D01*
X160971316Y-64636683D01*
X160977921Y-64633947D01*
X160984422Y-64631465D01*
X161207566Y-64553384D01*
X161214193Y-64551272D01*
X161254642Y-64539619D01*
X161261379Y-64537881D01*
X161315989Y-64525418D01*
X161322809Y-64524062D01*
X161364293Y-64517014D01*
X161371180Y-64516042D01*
X161606092Y-64489575D01*
X161613021Y-64488990D01*
X161655039Y-64486630D01*
X161661993Y-64486435D01*
X161718007Y-64486435D01*
X161724961Y-64486630D01*
X161766979Y-64488990D01*
X161773908Y-64489575D01*
X162008820Y-64516042D01*
X162015707Y-64517014D01*
X162057191Y-64524062D01*
X162060088Y-64524638D01*
X162060088Y-64228048D01*
X160558088Y-64228048D01*
X160558088Y-64885823D01*
X159560088Y-64885823D01*
X159560088Y-64228048D01*
X158058088Y-64228048D01*
X158058088Y-65730048D01*
X157060088Y-65730048D01*
X157060088Y-64228048D01*
X155558088Y-64228048D01*
X155558088Y-65730048D01*
X154560088Y-65730048D01*
X154560088Y-64228048D01*
X153440945Y-64228048D01*
X153423958Y-64378820D01*
X153422986Y-64385707D01*
X153415938Y-64427191D01*
X153414582Y-64434011D01*
X153402119Y-64488621D01*
X153400381Y-64495358D01*
X153388728Y-64535807D01*
X153386616Y-64542434D01*
X153308535Y-64765578D01*
X153306053Y-64772079D01*
X153289945Y-64810965D01*
X153287105Y-64817312D01*
X153262801Y-64867779D01*
X153259608Y-64873959D01*
X153239252Y-64910790D01*
X153235719Y-64916780D01*
X153109944Y-65116948D01*
X153106078Y-65122733D01*
X153081720Y-65157061D01*
X153077538Y-65162618D01*
X153058088Y-65187006D01*
X146298241Y-65187006D01*
X146273922Y-65152733D01*
X146270056Y-65146948D01*
X146144281Y-64946780D01*
X146140748Y-64940790D01*
X146120392Y-64903959D01*
X146117199Y-64897779D01*
X146092895Y-64847312D01*
X146090055Y-64840965D01*
X146073947Y-64802079D01*
X146071465Y-64795578D01*
X145993384Y-64572434D01*
X145991272Y-64565807D01*
X145979619Y-64525358D01*
X145977881Y-64518621D01*
X145965418Y-64464011D01*
X145964062Y-64457191D01*
X145957014Y-64415707D01*
X145956042Y-64408820D01*
X145935675Y-64228048D01*
X145558088Y-64228048D01*
X145558088Y-65730048D01*
X142060088Y-65730048D01*
X142060088Y-65487848D01*
X143058088Y-65487848D01*
X143077382Y-65472462D01*
X143082939Y-65468280D01*
X143117267Y-65443922D01*
X143123052Y-65440056D01*
X143323220Y-65314281D01*
X143329210Y-65310748D01*
X143366041Y-65290392D01*
X143372221Y-65287199D01*
X143422688Y-65262895D01*
X143429035Y-65260055D01*
X143467921Y-65243947D01*
X143474422Y-65241465D01*
X143697566Y-65163384D01*
X143704193Y-65161272D01*
X143744642Y-65149619D01*
X143751379Y-65147881D01*
X143805989Y-65135418D01*
X143812809Y-65134062D01*
X143854293Y-65127014D01*
X143861180Y-65126042D01*
X144096092Y-65099575D01*
X144103021Y-65098990D01*
X144145039Y-65096630D01*
X144151993Y-65096435D01*
X144208007Y-65096435D01*
X144214961Y-65096630D01*
X144256979Y-65098990D01*
X144263908Y-65099575D01*
X144498820Y-65126042D01*
X144505707Y-65127014D01*
X144547191Y-65134062D01*
X144554011Y-65135418D01*
X144560088Y-65136804D01*
X144560088Y-64228048D01*
X143058088Y-64228048D01*
X143058088Y-65487848D01*
X142060088Y-65487848D01*
X142060088Y-64228048D01*
X140558088Y-64228048D01*
X140558088Y-65730048D01*
X139560088Y-65730048D01*
X139560088Y-64228048D01*
X138058088Y-64228048D01*
X138058088Y-65730048D01*
X137060088Y-65730048D01*
X137060088Y-64228048D01*
X135558088Y-64228048D01*
X135558088Y-65730048D01*
X134560088Y-65730048D01*
X134560088Y-64228048D01*
X133058088Y-64228048D01*
X133058088Y-65730048D01*
X131909498Y-65730048D01*
X131920365Y-65633603D01*
X131920365Y-65633596D01*
X131900169Y-65454350D01*
X131900168Y-65454345D01*
X131897920Y-65447921D01*
X131840589Y-65284078D01*
X131813813Y-65241465D01*
X131779629Y-65187061D01*
X131744616Y-65131338D01*
X131617062Y-65003784D01*
X131464323Y-64907811D01*
X131294054Y-64848231D01*
X131294049Y-64848230D01*
X131114804Y-64828035D01*
X131114796Y-64828035D01*
X130935550Y-64848230D01*
X130935545Y-64848231D01*
X130765276Y-64907811D01*
X130612537Y-65003784D01*
X130484984Y-65131337D01*
X130389011Y-65284076D01*
X130329431Y-65454345D01*
X130329430Y-65454350D01*
X130309235Y-65633596D01*
X129311235Y-65633596D01*
X129311235Y-65605593D01*
X129311430Y-65598639D01*
X129313790Y-65556621D01*
X129314375Y-65549692D01*
X129340842Y-65314780D01*
X129341814Y-65307893D01*
X129348862Y-65266409D01*
X129350218Y-65259589D01*
X129362681Y-65204979D01*
X129364419Y-65198242D01*
X129376072Y-65157793D01*
X129378184Y-65151166D01*
X129456265Y-64928022D01*
X129458747Y-64921521D01*
X129474855Y-64882635D01*
X129477695Y-64876288D01*
X129501999Y-64825821D01*
X129505192Y-64819641D01*
X129525548Y-64782810D01*
X129529081Y-64776820D01*
X129560088Y-64727472D01*
X129560088Y-64228048D01*
X128058088Y-64228048D01*
X128058088Y-65730048D01*
X127060088Y-65730048D01*
X127060088Y-64228048D01*
X125558088Y-64228048D01*
X125558088Y-65730048D01*
X124560088Y-65730048D01*
X124560088Y-64228048D01*
X123761018Y-64228048D01*
X117815540Y-64228048D01*
X117815441Y-64089996D01*
X146924435Y-64089996D01*
X146924435Y-64090003D01*
X146944630Y-64269249D01*
X146944631Y-64269254D01*
X147004211Y-64439523D01*
X147087725Y-64572434D01*
X147100184Y-64592262D01*
X147227738Y-64719816D01*
X147241589Y-64728519D01*
X147374008Y-64811724D01*
X147380478Y-64815789D01*
X147513862Y-64862462D01*
X147550745Y-64875368D01*
X147550750Y-64875369D01*
X147729996Y-64895565D01*
X147730000Y-64895565D01*
X147730004Y-64895565D01*
X147909249Y-64875369D01*
X147909252Y-64875368D01*
X147909255Y-64875368D01*
X148079522Y-64815789D01*
X148232262Y-64719816D01*
X148359816Y-64592262D01*
X148455789Y-64439522D01*
X148515368Y-64269255D01*
X148515369Y-64269249D01*
X148516917Y-64262468D01*
X148518664Y-64262866D01*
X148542206Y-64206830D01*
X148599797Y-64167270D01*
X148669634Y-64165127D01*
X148711773Y-64186219D01*
X148711842Y-64186111D01*
X148712956Y-64186811D01*
X148715677Y-64188173D01*
X148717732Y-64189812D01*
X148717737Y-64189815D01*
X148717738Y-64189816D01*
X148734565Y-64200389D01*
X148847450Y-64271320D01*
X148870478Y-64285789D01*
X148976015Y-64322718D01*
X149040745Y-64345368D01*
X149040750Y-64345369D01*
X149219996Y-64365565D01*
X149220000Y-64365565D01*
X149220004Y-64365565D01*
X149399249Y-64345369D01*
X149399252Y-64345368D01*
X149399255Y-64345368D01*
X149569522Y-64285789D01*
X149722262Y-64189816D01*
X149849816Y-64062262D01*
X149851240Y-64059996D01*
X150844435Y-64059996D01*
X150844435Y-64060003D01*
X150864630Y-64239249D01*
X150864631Y-64239254D01*
X150924211Y-64409523D01*
X151014606Y-64553384D01*
X151020184Y-64562262D01*
X151147738Y-64689816D01*
X151216444Y-64732987D01*
X151278658Y-64772079D01*
X151300478Y-64785789D01*
X151458162Y-64840965D01*
X151470745Y-64845368D01*
X151470750Y-64845369D01*
X151649996Y-64865565D01*
X151650000Y-64865565D01*
X151650004Y-64865565D01*
X151829249Y-64845369D01*
X151829252Y-64845368D01*
X151829255Y-64845368D01*
X151999522Y-64785789D01*
X152152262Y-64689816D01*
X152279816Y-64562262D01*
X152375789Y-64409522D01*
X152435368Y-64239255D01*
X152435369Y-64239249D01*
X152455565Y-64060003D01*
X152455565Y-64059996D01*
X152435369Y-63880750D01*
X152435368Y-63880745D01*
X152386286Y-63740476D01*
X152375789Y-63710478D01*
X152369027Y-63699717D01*
X152298666Y-63587738D01*
X152279816Y-63557738D01*
X152196674Y-63474596D01*
X179128035Y-63474596D01*
X179128035Y-63474603D01*
X179148230Y-63653849D01*
X179148231Y-63653854D01*
X179207811Y-63824123D01*
X179261471Y-63909522D01*
X179303784Y-63976862D01*
X179431338Y-64104416D01*
X179521680Y-64161182D01*
X179567249Y-64189815D01*
X179584078Y-64200389D01*
X179728559Y-64250945D01*
X179754345Y-64259968D01*
X179754350Y-64259969D01*
X179933596Y-64280165D01*
X179933600Y-64280165D01*
X179933604Y-64280165D01*
X180112849Y-64259969D01*
X180112852Y-64259968D01*
X180112855Y-64259968D01*
X180283122Y-64200389D01*
X180435862Y-64104416D01*
X180563416Y-63976862D01*
X180659389Y-63824122D01*
X180718968Y-63653855D01*
X180728936Y-63565388D01*
X180739165Y-63474603D01*
X180739165Y-63474596D01*
X180718969Y-63295350D01*
X180718968Y-63295345D01*
X180711720Y-63274631D01*
X180659389Y-63125078D01*
X180563416Y-62972338D01*
X180435862Y-62844784D01*
X180283123Y-62748811D01*
X180112854Y-62689231D01*
X180112849Y-62689230D01*
X179933604Y-62669035D01*
X179933596Y-62669035D01*
X179754350Y-62689230D01*
X179754345Y-62689231D01*
X179584076Y-62748811D01*
X179431337Y-62844784D01*
X179303784Y-62972337D01*
X179207811Y-63125076D01*
X179148231Y-63295345D01*
X179148230Y-63295350D01*
X179128035Y-63474596D01*
X152196674Y-63474596D01*
X152152262Y-63430184D01*
X152098446Y-63396369D01*
X151999523Y-63334211D01*
X151829254Y-63274631D01*
X151829249Y-63274630D01*
X151650004Y-63254435D01*
X151649996Y-63254435D01*
X151470750Y-63274630D01*
X151470745Y-63274631D01*
X151300476Y-63334211D01*
X151147737Y-63430184D01*
X151020184Y-63557737D01*
X150924211Y-63710476D01*
X150864631Y-63880745D01*
X150864630Y-63880750D01*
X150844435Y-64059996D01*
X149851240Y-64059996D01*
X149945789Y-63909522D01*
X150005368Y-63739255D01*
X150005369Y-63739249D01*
X150025565Y-63560003D01*
X150025565Y-63559996D01*
X150005369Y-63380750D01*
X150005368Y-63380745D01*
X149945789Y-63210478D01*
X149944992Y-63209210D01*
X149906315Y-63147656D01*
X149849816Y-63057738D01*
X149725071Y-62932993D01*
X153058088Y-62932993D01*
X153077538Y-62957382D01*
X153081720Y-62962939D01*
X153106078Y-62997267D01*
X153109944Y-63003052D01*
X153235719Y-63203220D01*
X153239252Y-63209210D01*
X153250769Y-63230048D01*
X154560088Y-63230048D01*
X155558088Y-63230048D01*
X157060088Y-63230048D01*
X158058088Y-63230048D01*
X159560088Y-63230048D01*
X160558088Y-63230048D01*
X162060088Y-63230048D01*
X163058088Y-63230048D01*
X164262077Y-63230048D01*
X164273797Y-63188857D01*
X164282063Y-63167521D01*
X164291955Y-63147656D01*
X168058088Y-63147656D01*
X168077938Y-63187521D01*
X168086203Y-63208858D01*
X168092232Y-63230048D01*
X169560088Y-63230048D01*
X170558088Y-63230048D01*
X172060088Y-63230048D01*
X173058088Y-63230048D01*
X174560088Y-63230048D01*
X175558088Y-63230048D01*
X177060088Y-63230048D01*
X178058088Y-63230048D01*
X178151274Y-63230048D01*
X178159642Y-63155780D01*
X178160614Y-63148893D01*
X178167662Y-63107409D01*
X178169018Y-63100589D01*
X178181481Y-63045979D01*
X178183219Y-63039242D01*
X178194872Y-62998793D01*
X178196984Y-62992166D01*
X178275065Y-62769022D01*
X178277547Y-62762521D01*
X178293655Y-62723635D01*
X178296495Y-62717288D01*
X178320799Y-62666821D01*
X178323992Y-62660641D01*
X178344348Y-62623810D01*
X178347881Y-62617820D01*
X178473656Y-62417652D01*
X178477522Y-62411867D01*
X178501880Y-62377539D01*
X178506062Y-62371982D01*
X178540986Y-62328190D01*
X178545473Y-62322876D01*
X178573513Y-62291500D01*
X178578291Y-62286447D01*
X178745447Y-62119291D01*
X178750500Y-62114513D01*
X178781876Y-62086473D01*
X178787190Y-62081986D01*
X178830982Y-62047062D01*
X178836539Y-62042880D01*
X178870867Y-62018522D01*
X178876652Y-62014656D01*
X179076820Y-61888881D01*
X179082810Y-61885348D01*
X179119641Y-61864992D01*
X179125821Y-61861799D01*
X179176288Y-61837495D01*
X179182635Y-61834655D01*
X179221521Y-61818547D01*
X179228022Y-61816065D01*
X179309114Y-61787690D01*
X180558088Y-61787690D01*
X180639179Y-61816066D01*
X180645679Y-61818547D01*
X180684565Y-61834655D01*
X180690912Y-61837495D01*
X180741379Y-61861799D01*
X180747559Y-61864992D01*
X180784390Y-61885348D01*
X180790380Y-61888881D01*
X180990548Y-62014656D01*
X180996333Y-62018522D01*
X181030661Y-62042880D01*
X181036218Y-62047062D01*
X181080010Y-62081986D01*
X181085324Y-62086473D01*
X181116700Y-62114513D01*
X181121753Y-62119291D01*
X181288909Y-62286447D01*
X181293687Y-62291500D01*
X181321727Y-62322876D01*
X181326214Y-62328190D01*
X181361138Y-62371982D01*
X181365320Y-62377539D01*
X181389678Y-62411867D01*
X181393544Y-62417652D01*
X181519319Y-62617820D01*
X181522852Y-62623810D01*
X181543208Y-62660641D01*
X181546401Y-62666821D01*
X181570705Y-62717288D01*
X181573545Y-62723635D01*
X181589653Y-62762521D01*
X181592135Y-62769022D01*
X181670216Y-62992166D01*
X181672328Y-62998793D01*
X181683981Y-63039242D01*
X181685719Y-63045979D01*
X181698182Y-63100589D01*
X181699538Y-63107409D01*
X181706586Y-63148893D01*
X181707558Y-63155780D01*
X181715926Y-63230048D01*
X182060088Y-63230048D01*
X182060088Y-61914000D01*
X183058088Y-61914000D01*
X183058088Y-63230048D01*
X184560088Y-63230048D01*
X185558088Y-63230048D01*
X187060088Y-63230048D01*
X187060088Y-62610996D01*
X188500635Y-62610996D01*
X188500635Y-62611003D01*
X188520830Y-62790249D01*
X188520831Y-62790254D01*
X188580411Y-62960523D01*
X188629874Y-63039242D01*
X188676384Y-63113262D01*
X188803938Y-63240816D01*
X188956678Y-63336789D01*
X189100556Y-63387134D01*
X189126945Y-63396368D01*
X189126950Y-63396369D01*
X189306196Y-63416565D01*
X189306200Y-63416565D01*
X189306204Y-63416565D01*
X189485449Y-63396369D01*
X189485452Y-63396368D01*
X189485455Y-63396368D01*
X189655722Y-63336789D01*
X189808462Y-63240816D01*
X189936016Y-63113262D01*
X190031989Y-62960522D01*
X190074303Y-62839596D01*
X192056635Y-62839596D01*
X192056635Y-62839603D01*
X192076830Y-63018849D01*
X192076831Y-63018854D01*
X192136411Y-63189123D01*
X192208990Y-63304631D01*
X192232384Y-63341862D01*
X192359938Y-63469416D01*
X192384525Y-63484865D01*
X192500501Y-63557738D01*
X192512678Y-63565389D01*
X192576545Y-63587737D01*
X192682945Y-63624968D01*
X192682950Y-63624969D01*
X192862196Y-63645165D01*
X192862200Y-63645165D01*
X192862204Y-63645165D01*
X193041449Y-63624969D01*
X193041452Y-63624968D01*
X193041455Y-63624968D01*
X193211722Y-63565389D01*
X193364462Y-63469416D01*
X193492016Y-63341862D01*
X193587989Y-63189122D01*
X193647568Y-63018855D01*
X193649349Y-63003052D01*
X193667765Y-62839603D01*
X193667765Y-62839596D01*
X193647569Y-62660350D01*
X193647568Y-62660345D01*
X193623363Y-62591172D01*
X193587989Y-62490078D01*
X193570936Y-62462939D01*
X193511352Y-62368111D01*
X193492016Y-62337338D01*
X193364462Y-62209784D01*
X193211723Y-62113811D01*
X193041454Y-62054231D01*
X193041449Y-62054230D01*
X192862204Y-62034035D01*
X192862196Y-62034035D01*
X192682950Y-62054230D01*
X192682945Y-62054231D01*
X192512676Y-62113811D01*
X192359937Y-62209784D01*
X192232384Y-62337337D01*
X192136411Y-62490076D01*
X192076831Y-62660345D01*
X192076830Y-62660350D01*
X192056635Y-62839596D01*
X190074303Y-62839596D01*
X190091568Y-62790255D01*
X190091912Y-62787204D01*
X190111765Y-62611003D01*
X190111765Y-62610996D01*
X190091569Y-62431750D01*
X190091568Y-62431745D01*
X190075561Y-62386000D01*
X190031989Y-62261478D01*
X190030793Y-62259575D01*
X189942647Y-62119291D01*
X189936016Y-62108738D01*
X189808462Y-61981184D01*
X189807184Y-61980381D01*
X189655723Y-61885211D01*
X189485454Y-61825631D01*
X189485449Y-61825630D01*
X189306204Y-61805435D01*
X189306196Y-61805435D01*
X189126950Y-61825630D01*
X189126945Y-61825631D01*
X188956676Y-61885211D01*
X188803937Y-61981184D01*
X188676384Y-62108737D01*
X188580411Y-62261476D01*
X188520831Y-62431745D01*
X188520830Y-62431750D01*
X188500635Y-62610996D01*
X187060088Y-62610996D01*
X187060088Y-61728048D01*
X185558088Y-61728048D01*
X185558088Y-63230048D01*
X184560088Y-63230048D01*
X184560088Y-61728048D01*
X183652807Y-61728048D01*
X183570072Y-61779275D01*
X183549589Y-61789475D01*
X183350855Y-61866465D01*
X183328846Y-61872727D01*
X183119348Y-61911889D01*
X183096563Y-61914000D01*
X183058088Y-61914000D01*
X182060088Y-61914000D01*
X182060088Y-61728048D01*
X180558088Y-61728048D01*
X180558088Y-61787690D01*
X179309114Y-61787690D01*
X179451166Y-61737984D01*
X179457793Y-61735872D01*
X179484951Y-61728048D01*
X178058088Y-61728048D01*
X178058088Y-63230048D01*
X177060088Y-63230048D01*
X177060088Y-61728048D01*
X175558088Y-61728048D01*
X175558088Y-63230048D01*
X174560088Y-63230048D01*
X174560088Y-61728048D01*
X173058088Y-61728048D01*
X173058088Y-63230048D01*
X172060088Y-63230048D01*
X172060088Y-61728048D01*
X170558088Y-61728048D01*
X170558088Y-63230048D01*
X169560088Y-63230048D01*
X169560088Y-61728048D01*
X168058088Y-61728048D01*
X168058088Y-63147656D01*
X164291955Y-63147656D01*
X164377061Y-62976738D01*
X164389107Y-62957282D01*
X164517545Y-62787204D01*
X164532960Y-62770294D01*
X164560088Y-62745563D01*
X164560088Y-62366000D01*
X165558088Y-62366000D01*
X165576563Y-62366000D01*
X165599348Y-62368111D01*
X165808846Y-62407273D01*
X165830855Y-62413535D01*
X166029589Y-62490525D01*
X166050072Y-62500725D01*
X166196150Y-62591172D01*
X166309928Y-62520725D01*
X166330411Y-62510525D01*
X166529145Y-62433535D01*
X166551154Y-62427273D01*
X166760652Y-62388111D01*
X166783437Y-62386000D01*
X166996563Y-62386000D01*
X167019348Y-62388111D01*
X167060088Y-62395726D01*
X167060088Y-61728048D01*
X165558088Y-61728048D01*
X165558088Y-62366000D01*
X164560088Y-62366000D01*
X164560088Y-61728048D01*
X163058088Y-61728048D01*
X163058088Y-63230048D01*
X162060088Y-63230048D01*
X162060088Y-61728048D01*
X160558088Y-61728048D01*
X160558088Y-63230048D01*
X159560088Y-63230048D01*
X159560088Y-61728048D01*
X158058088Y-61728048D01*
X158058088Y-63230048D01*
X157060088Y-63230048D01*
X157060088Y-61728048D01*
X155558088Y-61728048D01*
X155558088Y-63230048D01*
X154560088Y-63230048D01*
X154560088Y-61728048D01*
X153058088Y-61728048D01*
X153058088Y-62932993D01*
X149725071Y-62932993D01*
X149722262Y-62930184D01*
X149677164Y-62901847D01*
X149569523Y-62834211D01*
X149399254Y-62774631D01*
X149399249Y-62774630D01*
X149220004Y-62754435D01*
X149219996Y-62754435D01*
X149040750Y-62774630D01*
X149040745Y-62774631D01*
X148870476Y-62834211D01*
X148717737Y-62930184D01*
X148590184Y-63057737D01*
X148494211Y-63210476D01*
X148434631Y-63380745D01*
X148433083Y-63387532D01*
X148431340Y-63387134D01*
X148407776Y-63443191D01*
X148350175Y-63482737D01*
X148280338Y-63484865D01*
X148238225Y-63463781D01*
X148238158Y-63463889D01*
X148237053Y-63463195D01*
X148234323Y-63461828D01*
X148232264Y-63460186D01*
X148232262Y-63460184D01*
X148162843Y-63416565D01*
X148079523Y-63364211D01*
X147909254Y-63304631D01*
X147909249Y-63304630D01*
X147730004Y-63284435D01*
X147729996Y-63284435D01*
X147550750Y-63304630D01*
X147550745Y-63304631D01*
X147380476Y-63364211D01*
X147227737Y-63460184D01*
X147100184Y-63587737D01*
X147004211Y-63740476D01*
X146944631Y-63910745D01*
X146944630Y-63910750D01*
X146924435Y-64089996D01*
X117815441Y-64089996D01*
X117813752Y-61728048D01*
X118937753Y-61728048D01*
X118938826Y-63230048D01*
X119560088Y-63230048D01*
X120558088Y-63230048D01*
X122060088Y-63230048D01*
X123058088Y-63230048D01*
X124560088Y-63230048D01*
X125558088Y-63230048D01*
X127060088Y-63230048D01*
X128058088Y-63230048D01*
X129560088Y-63230048D01*
X129560088Y-62019608D01*
X129421180Y-62003958D01*
X129414293Y-62002986D01*
X129372809Y-61995938D01*
X129365989Y-61994582D01*
X129311379Y-61982119D01*
X129304642Y-61980381D01*
X129264193Y-61968728D01*
X129257566Y-61966616D01*
X129034422Y-61888535D01*
X129027921Y-61886053D01*
X128989035Y-61869945D01*
X128982688Y-61867105D01*
X128932221Y-61842801D01*
X128926041Y-61839608D01*
X128921910Y-61837325D01*
X130558088Y-61837325D01*
X130558088Y-63230048D01*
X132060088Y-63230048D01*
X133058088Y-63230048D01*
X134560088Y-63230048D01*
X135558088Y-63230048D01*
X137060088Y-63230048D01*
X137060088Y-61846727D01*
X137044380Y-61844958D01*
X137037493Y-61843986D01*
X136996009Y-61836938D01*
X136989189Y-61835582D01*
X136934579Y-61823119D01*
X136927842Y-61821381D01*
X136887393Y-61809728D01*
X136880766Y-61807616D01*
X136668310Y-61733275D01*
X138058088Y-61733275D01*
X138058088Y-63230048D01*
X139560088Y-63230048D01*
X140558088Y-63230048D01*
X142060088Y-63230048D01*
X143058088Y-63230048D01*
X144560088Y-63230048D01*
X145558088Y-63230048D01*
X146146274Y-63230048D01*
X146270056Y-63033052D01*
X146273922Y-63027267D01*
X146298280Y-62992939D01*
X146302462Y-62987382D01*
X146337386Y-62943590D01*
X146341873Y-62938276D01*
X146369913Y-62906900D01*
X146374691Y-62901847D01*
X146541847Y-62734691D01*
X146546900Y-62729913D01*
X146578276Y-62701873D01*
X146583590Y-62697386D01*
X146627382Y-62662462D01*
X146632939Y-62658280D01*
X146667267Y-62633922D01*
X146673052Y-62630056D01*
X146873220Y-62504281D01*
X146879210Y-62500748D01*
X146916041Y-62480392D01*
X146922221Y-62477199D01*
X146972688Y-62452895D01*
X146979035Y-62450055D01*
X147017921Y-62433947D01*
X147024422Y-62431465D01*
X147060088Y-62418984D01*
X147060088Y-62354626D01*
X150558088Y-62354626D01*
X150575309Y-62371847D01*
X150580087Y-62376900D01*
X150608127Y-62408276D01*
X150612614Y-62413590D01*
X150647538Y-62457382D01*
X150651720Y-62462939D01*
X150676078Y-62497267D01*
X150679944Y-62503052D01*
X150699046Y-62533453D01*
X150793220Y-62474281D01*
X150799210Y-62470748D01*
X150836041Y-62450392D01*
X150842221Y-62447199D01*
X150892688Y-62422895D01*
X150899035Y-62420055D01*
X150937921Y-62403947D01*
X150944422Y-62401465D01*
X151167566Y-62323384D01*
X151174193Y-62321272D01*
X151214642Y-62309619D01*
X151221379Y-62307881D01*
X151275989Y-62295418D01*
X151282809Y-62294062D01*
X151324293Y-62287014D01*
X151331180Y-62286042D01*
X151566092Y-62259575D01*
X151573021Y-62258990D01*
X151615039Y-62256630D01*
X151621993Y-62256435D01*
X151678007Y-62256435D01*
X151684961Y-62256630D01*
X151726979Y-62258990D01*
X151733908Y-62259575D01*
X151968820Y-62286042D01*
X151975707Y-62287014D01*
X152017191Y-62294062D01*
X152024011Y-62295418D01*
X152060088Y-62303651D01*
X152060088Y-61728048D01*
X150558088Y-61728048D01*
X150558088Y-62354626D01*
X147060088Y-62354626D01*
X147060088Y-61728048D01*
X145558088Y-61728048D01*
X145558088Y-63230048D01*
X144560088Y-63230048D01*
X144560088Y-61728048D01*
X143058088Y-61728048D01*
X143058088Y-63230048D01*
X142060088Y-63230048D01*
X142060088Y-61728048D01*
X140558088Y-61728048D01*
X140558088Y-63230048D01*
X139560088Y-63230048D01*
X139560088Y-61728048D01*
X138072673Y-61728048D01*
X138068778Y-61729535D01*
X138058088Y-61733275D01*
X136668310Y-61733275D01*
X136657622Y-61729535D01*
X136653727Y-61728048D01*
X135558088Y-61728048D01*
X135558088Y-63230048D01*
X134560088Y-63230048D01*
X134560088Y-61728048D01*
X133058088Y-61728048D01*
X133058088Y-63230048D01*
X132060088Y-63230048D01*
X132060088Y-61728048D01*
X130736306Y-61728048D01*
X130596780Y-61815719D01*
X130590790Y-61819252D01*
X130558088Y-61837325D01*
X128921910Y-61837325D01*
X128889210Y-61819252D01*
X128883220Y-61815719D01*
X128743694Y-61728048D01*
X128058088Y-61728048D01*
X128058088Y-63230048D01*
X127060088Y-63230048D01*
X127060088Y-61728048D01*
X125558088Y-61728048D01*
X125558088Y-63230048D01*
X124560088Y-63230048D01*
X124560088Y-61728048D01*
X123058088Y-61728048D01*
X123058088Y-63230048D01*
X122060088Y-63230048D01*
X122060088Y-61728048D01*
X120558088Y-61728048D01*
X120558088Y-63230048D01*
X119560088Y-63230048D01*
X119560088Y-61728048D01*
X118937753Y-61728048D01*
X117813752Y-61728048D01*
X117811964Y-59228048D01*
X118935965Y-59228048D01*
X118937038Y-60730048D01*
X119560088Y-60730048D01*
X120558088Y-60730048D01*
X122060088Y-60730048D01*
X123058088Y-60730048D01*
X124560088Y-60730048D01*
X125558088Y-60730048D01*
X127060088Y-60730048D01*
X127060088Y-60229996D01*
X128934435Y-60229996D01*
X128934435Y-60230003D01*
X128954630Y-60409249D01*
X128954631Y-60409254D01*
X129014211Y-60579523D01*
X129090425Y-60700816D01*
X129110184Y-60732262D01*
X129237738Y-60859816D01*
X129390478Y-60955789D01*
X129560745Y-61015368D01*
X129560750Y-61015369D01*
X129739996Y-61035565D01*
X129740000Y-61035565D01*
X129740004Y-61035565D01*
X129919249Y-61015369D01*
X129919252Y-61015368D01*
X129919255Y-61015368D01*
X130089522Y-60955789D01*
X130242262Y-60859816D01*
X130369816Y-60732262D01*
X130465789Y-60579522D01*
X130525368Y-60409255D01*
X130541626Y-60264961D01*
X130545565Y-60230003D01*
X130545565Y-60229996D01*
X130525369Y-60050750D01*
X130525368Y-60050745D01*
X130465788Y-59880476D01*
X130385174Y-59752180D01*
X130369816Y-59727738D01*
X130242262Y-59600184D01*
X130223772Y-59588566D01*
X130089523Y-59504211D01*
X129919254Y-59444631D01*
X129919249Y-59444630D01*
X129740004Y-59424435D01*
X129739996Y-59424435D01*
X129560750Y-59444630D01*
X129560745Y-59444631D01*
X129390476Y-59504211D01*
X129237737Y-59600184D01*
X129110184Y-59727737D01*
X129014211Y-59880476D01*
X128954631Y-60050745D01*
X128954630Y-60050750D01*
X128934435Y-60229996D01*
X127060088Y-60229996D01*
X127060088Y-59228048D01*
X131234501Y-59228048D01*
X131325719Y-59373220D01*
X131329252Y-59379210D01*
X131349608Y-59416041D01*
X131352801Y-59422221D01*
X131377105Y-59472688D01*
X131379945Y-59479035D01*
X131396053Y-59517921D01*
X131398535Y-59524422D01*
X131476616Y-59747566D01*
X131478728Y-59754193D01*
X131490381Y-59794642D01*
X131492119Y-59801379D01*
X131504582Y-59855989D01*
X131505938Y-59862809D01*
X131512986Y-59904293D01*
X131513958Y-59911180D01*
X131540425Y-60146092D01*
X131541010Y-60153021D01*
X131543370Y-60195039D01*
X131543565Y-60201993D01*
X131543565Y-60258007D01*
X131543370Y-60264961D01*
X131541010Y-60306979D01*
X131540425Y-60313908D01*
X131513958Y-60548820D01*
X131512986Y-60555707D01*
X131505938Y-60597191D01*
X131504582Y-60604011D01*
X131492119Y-60658621D01*
X131490381Y-60665358D01*
X131478728Y-60705807D01*
X131476616Y-60712434D01*
X131470453Y-60730048D01*
X132060088Y-60730048D01*
X133058088Y-60730048D01*
X134560088Y-60730048D01*
X134560088Y-60070996D01*
X136557635Y-60070996D01*
X136557635Y-60071003D01*
X136577830Y-60250249D01*
X136577831Y-60250254D01*
X136637411Y-60420523D01*
X136648513Y-60438191D01*
X136733384Y-60573262D01*
X136860938Y-60700816D01*
X137013678Y-60796789D01*
X137183945Y-60856368D01*
X137183950Y-60856369D01*
X137363196Y-60876565D01*
X137363200Y-60876565D01*
X137363204Y-60876565D01*
X137542449Y-60856369D01*
X137542452Y-60856368D01*
X137542455Y-60856368D01*
X137712722Y-60796789D01*
X137865462Y-60700816D01*
X137993016Y-60573262D01*
X138088989Y-60420522D01*
X138148568Y-60250255D01*
X138154006Y-60201993D01*
X138168765Y-60071003D01*
X138168765Y-60070996D01*
X138148569Y-59891750D01*
X138148568Y-59891745D01*
X138088989Y-59721478D01*
X137993016Y-59568738D01*
X137865462Y-59441184D01*
X137773280Y-59383262D01*
X137712723Y-59345211D01*
X137542454Y-59285631D01*
X137542449Y-59285630D01*
X137363204Y-59265435D01*
X137363196Y-59265435D01*
X137183950Y-59285630D01*
X137183945Y-59285631D01*
X137013676Y-59345211D01*
X136860937Y-59441184D01*
X136733384Y-59568737D01*
X136637411Y-59721476D01*
X136577831Y-59891745D01*
X136577830Y-59891750D01*
X136557635Y-60070996D01*
X134560088Y-60070996D01*
X134560088Y-59994000D01*
X134493437Y-59994000D01*
X134470652Y-59991889D01*
X134261154Y-59952727D01*
X134239145Y-59946465D01*
X134040411Y-59869475D01*
X134019928Y-59859275D01*
X133838724Y-59747079D01*
X133820462Y-59733289D01*
X133662960Y-59589706D01*
X133647545Y-59572796D01*
X133519107Y-59402718D01*
X133507061Y-59383262D01*
X133429774Y-59228048D01*
X138956784Y-59228048D01*
X138972808Y-59257041D01*
X138976001Y-59263221D01*
X139000305Y-59313688D01*
X139003145Y-59320035D01*
X139019253Y-59358921D01*
X139021735Y-59365422D01*
X139099816Y-59588566D01*
X139101928Y-59595193D01*
X139113581Y-59635642D01*
X139115319Y-59642379D01*
X139127782Y-59696989D01*
X139129138Y-59703809D01*
X139136186Y-59745293D01*
X139137158Y-59752180D01*
X139163625Y-59987092D01*
X139164210Y-59994021D01*
X139166570Y-60036039D01*
X139166765Y-60042993D01*
X139166765Y-60099007D01*
X139166570Y-60105961D01*
X139164210Y-60147979D01*
X139163625Y-60154908D01*
X139137158Y-60389820D01*
X139136186Y-60396707D01*
X139129138Y-60438191D01*
X139127782Y-60445011D01*
X139115319Y-60499621D01*
X139113581Y-60506358D01*
X139101928Y-60546807D01*
X139099816Y-60553434D01*
X139038016Y-60730048D01*
X139560088Y-60730048D01*
X140558088Y-60730048D01*
X142060088Y-60730048D01*
X143058088Y-60730048D01*
X144560088Y-60730048D01*
X145558088Y-60730048D01*
X147060088Y-60730048D01*
X148058088Y-60730048D01*
X149560088Y-60730048D01*
X150558088Y-60730048D01*
X152060088Y-60730048D01*
X153058088Y-60730048D01*
X154560088Y-60730048D01*
X155558088Y-60730048D01*
X157060088Y-60730048D01*
X158058088Y-60730048D01*
X159560088Y-60730048D01*
X160558088Y-60730048D01*
X162060088Y-60730048D01*
X163058088Y-60730048D01*
X164560088Y-60730048D01*
X165558088Y-60730048D01*
X167060088Y-60730048D01*
X168058088Y-60730048D01*
X169560088Y-60730048D01*
X170558088Y-60730048D01*
X172060088Y-60730048D01*
X173058088Y-60730048D01*
X174560088Y-60730048D01*
X175558088Y-60730048D01*
X177060088Y-60730048D01*
X178058088Y-60730048D01*
X179560088Y-60730048D01*
X180558088Y-60730048D01*
X181718886Y-60730048D01*
X181711602Y-60651441D01*
X181711602Y-60628559D01*
X181731267Y-60416342D01*
X181735472Y-60393849D01*
X181793797Y-60188858D01*
X181802063Y-60167521D01*
X181897061Y-59976738D01*
X181909107Y-59957282D01*
X182037545Y-59787204D01*
X182052960Y-59770295D01*
X182060088Y-59763796D01*
X182060088Y-59366000D01*
X183058088Y-59366000D01*
X183096563Y-59366000D01*
X183119348Y-59368111D01*
X183328846Y-59407273D01*
X183350855Y-59413535D01*
X183549589Y-59490525D01*
X183570072Y-59500725D01*
X183751276Y-59612921D01*
X183769538Y-59626711D01*
X183927040Y-59770294D01*
X183942455Y-59787204D01*
X184070893Y-59957282D01*
X184082939Y-59976738D01*
X184177937Y-60167521D01*
X184186203Y-60188858D01*
X184244528Y-60393849D01*
X184248733Y-60416342D01*
X184268398Y-60628559D01*
X184268398Y-60651441D01*
X184261114Y-60730048D01*
X184560088Y-60730048D01*
X185558088Y-60730048D01*
X187060088Y-60730048D01*
X188058088Y-60730048D01*
X189560088Y-60730048D01*
X190558088Y-60730048D01*
X192060088Y-60730048D01*
X193058088Y-60730048D01*
X193751118Y-60730048D01*
X193745734Y-59228048D01*
X193058088Y-59228048D01*
X193058088Y-60730048D01*
X192060088Y-60730048D01*
X192060088Y-59228048D01*
X190558088Y-59228048D01*
X190558088Y-60730048D01*
X189560088Y-60730048D01*
X189560088Y-59228048D01*
X188058088Y-59228048D01*
X188058088Y-60730048D01*
X187060088Y-60730048D01*
X187060088Y-59228048D01*
X185558088Y-59228048D01*
X185558088Y-60730048D01*
X184560088Y-60730048D01*
X184560088Y-59228048D01*
X183058088Y-59228048D01*
X183058088Y-59366000D01*
X182060088Y-59366000D01*
X182060088Y-59228048D01*
X180558088Y-59228048D01*
X180558088Y-60730048D01*
X179560088Y-60730048D01*
X179560088Y-59228048D01*
X178058088Y-59228048D01*
X178058088Y-60730048D01*
X177060088Y-60730048D01*
X177060088Y-59228048D01*
X175558088Y-59228048D01*
X175558088Y-60730048D01*
X174560088Y-60730048D01*
X174560088Y-59228048D01*
X173058088Y-59228048D01*
X173058088Y-60730048D01*
X172060088Y-60730048D01*
X172060088Y-59228048D01*
X170558088Y-59228048D01*
X170558088Y-60730048D01*
X169560088Y-60730048D01*
X169560088Y-59228048D01*
X168058088Y-59228048D01*
X168058088Y-60730048D01*
X167060088Y-60730048D01*
X167060088Y-59228048D01*
X165558088Y-59228048D01*
X165558088Y-60730048D01*
X164560088Y-60730048D01*
X164560088Y-59228048D01*
X163058088Y-59228048D01*
X163058088Y-60730048D01*
X162060088Y-60730048D01*
X162060088Y-59228048D01*
X160558088Y-59228048D01*
X160558088Y-60730048D01*
X159560088Y-60730048D01*
X159560088Y-59228048D01*
X158058088Y-59228048D01*
X158058088Y-60730048D01*
X157060088Y-60730048D01*
X157060088Y-59228048D01*
X155558088Y-59228048D01*
X155558088Y-60730048D01*
X154560088Y-60730048D01*
X154560088Y-59228048D01*
X153058088Y-59228048D01*
X153058088Y-60730048D01*
X152060088Y-60730048D01*
X152060088Y-59228048D01*
X150558088Y-59228048D01*
X150558088Y-60730048D01*
X149560088Y-60730048D01*
X149560088Y-59228048D01*
X148058088Y-59228048D01*
X148058088Y-60730048D01*
X147060088Y-60730048D01*
X147060088Y-59228048D01*
X145558088Y-59228048D01*
X145558088Y-60730048D01*
X144560088Y-60730048D01*
X144560088Y-59228048D01*
X143058088Y-59228048D01*
X143058088Y-60730048D01*
X142060088Y-60730048D01*
X142060088Y-59228048D01*
X140558088Y-59228048D01*
X140558088Y-60730048D01*
X139560088Y-60730048D01*
X139560088Y-59228048D01*
X138956784Y-59228048D01*
X133429774Y-59228048D01*
X133058088Y-59228048D01*
X133058088Y-60730048D01*
X132060088Y-60730048D01*
X132060088Y-59228048D01*
X131234501Y-59228048D01*
X127060088Y-59228048D01*
X125558088Y-59228048D01*
X125558088Y-60730048D01*
X124560088Y-60730048D01*
X124560088Y-59228048D01*
X123058088Y-59228048D01*
X123058088Y-60730048D01*
X122060088Y-60730048D01*
X122060088Y-59228048D01*
X120558088Y-59228048D01*
X120558088Y-60730048D01*
X119560088Y-60730048D01*
X119560088Y-59228048D01*
X118935965Y-59228048D01*
X117811964Y-59228048D01*
X117811250Y-58230048D01*
X120558088Y-58230048D01*
X122060088Y-58230048D01*
X123058088Y-58230048D01*
X124560088Y-58230048D01*
X125558088Y-58230048D01*
X127060088Y-58230048D01*
X128058088Y-58230048D01*
X129560088Y-58230048D01*
X130558088Y-58230048D01*
X132060088Y-58230048D01*
X132060088Y-57709988D01*
X138058088Y-57709988D01*
X138111276Y-57742921D01*
X138129538Y-57756711D01*
X138287040Y-57900294D01*
X138302455Y-57917204D01*
X138430893Y-58087282D01*
X138442939Y-58106738D01*
X138504340Y-58230048D01*
X139560088Y-58230048D01*
X140558088Y-58230048D01*
X142060088Y-58230048D01*
X143058088Y-58230048D01*
X144560088Y-58230048D01*
X145558088Y-58230048D01*
X147060088Y-58230048D01*
X148058088Y-58230048D01*
X149560088Y-58230048D01*
X150558088Y-58230048D01*
X152060088Y-58230048D01*
X153058088Y-58230048D01*
X154560088Y-58230048D01*
X155558088Y-58230048D01*
X157060088Y-58230048D01*
X158058088Y-58230048D01*
X159560088Y-58230048D01*
X160558088Y-58230048D01*
X162060088Y-58230048D01*
X163058088Y-58230048D01*
X164560088Y-58230048D01*
X165558088Y-58230048D01*
X167060088Y-58230048D01*
X168058088Y-58230048D01*
X169560088Y-58230048D01*
X170558088Y-58230048D01*
X172060088Y-58230048D01*
X173058088Y-58230048D01*
X174560088Y-58230048D01*
X175558088Y-58230048D01*
X177060088Y-58230048D01*
X178058088Y-58230048D01*
X179560088Y-58230048D01*
X180558088Y-58230048D01*
X182060088Y-58230048D01*
X183058088Y-58230048D01*
X184560088Y-58230048D01*
X184560088Y-58200097D01*
X188058088Y-58200097D01*
X188058088Y-58230048D01*
X189560088Y-58230048D01*
X190558088Y-58230048D01*
X192060088Y-58230048D01*
X192060088Y-57632909D01*
X190558088Y-57632324D01*
X190558088Y-58230048D01*
X189560088Y-58230048D01*
X189560088Y-57631935D01*
X188803746Y-57631640D01*
X188802940Y-57633261D01*
X188790893Y-57652718D01*
X188662455Y-57822796D01*
X188647040Y-57839706D01*
X188489538Y-57983289D01*
X188471276Y-57997079D01*
X188290072Y-58109275D01*
X188269589Y-58119475D01*
X188070855Y-58196465D01*
X188058088Y-58200097D01*
X184560088Y-58200097D01*
X184560088Y-57629988D01*
X183058088Y-57629404D01*
X183058088Y-58230048D01*
X182060088Y-58230048D01*
X182060088Y-57629015D01*
X180558088Y-57628431D01*
X180558088Y-58230048D01*
X179560088Y-58230048D01*
X179560088Y-57628041D01*
X178058088Y-57627457D01*
X178058088Y-58230048D01*
X177060088Y-58230048D01*
X177060088Y-57627068D01*
X175558088Y-57626484D01*
X175558088Y-58230048D01*
X174560088Y-58230048D01*
X174560088Y-57626095D01*
X173058088Y-57625510D01*
X173058088Y-58230048D01*
X172060088Y-58230048D01*
X172060088Y-57625121D01*
X170558088Y-57624537D01*
X170558088Y-58230048D01*
X169560088Y-58230048D01*
X169560088Y-57624148D01*
X168058088Y-57623563D01*
X168058088Y-58230048D01*
X167060088Y-58230048D01*
X167060088Y-57623174D01*
X165558088Y-57622590D01*
X165558088Y-58230048D01*
X164560088Y-58230048D01*
X164560088Y-57622201D01*
X163058088Y-57621617D01*
X163058088Y-58230048D01*
X162060088Y-58230048D01*
X162060088Y-57621228D01*
X160558088Y-57620643D01*
X160558088Y-58230048D01*
X159560088Y-58230048D01*
X159560088Y-57620254D01*
X158058088Y-57619670D01*
X158058088Y-58230048D01*
X157060088Y-58230048D01*
X157060088Y-57619281D01*
X155558088Y-57618696D01*
X155558088Y-58230048D01*
X154560088Y-58230048D01*
X154560088Y-57618307D01*
X153058088Y-57617723D01*
X153058088Y-58230048D01*
X152060088Y-58230048D01*
X152060088Y-57617334D01*
X150558088Y-57616750D01*
X150558088Y-58230048D01*
X149560088Y-58230048D01*
X149560088Y-57616361D01*
X148058088Y-57615776D01*
X148058088Y-58230048D01*
X147060088Y-58230048D01*
X147060088Y-57615387D01*
X145558088Y-57614803D01*
X145558088Y-58230048D01*
X144560088Y-58230048D01*
X144560088Y-57614414D01*
X143058088Y-57613829D01*
X143058088Y-58230048D01*
X142060088Y-58230048D01*
X142060088Y-57613440D01*
X140558088Y-57612856D01*
X140558088Y-58230048D01*
X139560088Y-58230048D01*
X139560088Y-57612467D01*
X138058088Y-57611882D01*
X138058088Y-57709988D01*
X132060088Y-57709988D01*
X132060088Y-57609547D01*
X130558088Y-57608962D01*
X130558088Y-58230048D01*
X129560088Y-58230048D01*
X129560088Y-57608573D01*
X128058088Y-57607989D01*
X128058088Y-58230048D01*
X127060088Y-58230048D01*
X127060088Y-57607600D01*
X125558088Y-57607015D01*
X125558088Y-58230048D01*
X124560088Y-58230048D01*
X124560088Y-57606626D01*
X123058088Y-57606042D01*
X123058088Y-58230048D01*
X122060088Y-58230048D01*
X122060088Y-57605653D01*
X120558088Y-57605069D01*
X120558088Y-58230048D01*
X117811250Y-58230048D01*
X117810088Y-56604134D01*
X117829725Y-56537083D01*
X117882496Y-56491290D01*
X117934134Y-56480048D01*
X194736494Y-56509951D01*
G37*
%TD.AperFunction*%
%TD*%
M02*
