%TF.GenerationSoftware,KiCad,Pcbnew,8.0.3*%
%TF.CreationDate,2025-01-08T01:14:57+05:30*%
%TF.ProjectId,gps,6770732e-6b69-4636-9164-5f7063625858,rev?*%
%TF.SameCoordinates,Original*%
%TF.FileFunction,Plated,3,4,Blind,Drill*%
%TF.FilePolarity,Positive*%
%FSLAX46Y46*%
G04 Gerber Fmt 4.6, Leading zero omitted, Abs format (unit mm)*
G04 Created by KiCad (PCBNEW 8.0.3) date 2025-01-08 01:14:57*
%MOMM*%
%LPD*%
G01*
G04 APERTURE LIST*
%TA.AperFunction,ViaDrill*%
%ADD10C,0.300000*%
%TD*%
G04 APERTURE END LIST*
D10*
X121320000Y-72760000D03*
X121340000Y-65590000D03*
X122210000Y-67780000D03*
X124370000Y-68770000D03*
X124380000Y-69790000D03*
X126370000Y-80200000D03*
X126980000Y-86530000D03*
X127160000Y-95310000D03*
X130240000Y-77910000D03*
X131000000Y-60970000D03*
X132560000Y-64910000D03*
X132880000Y-83330000D03*
X133500000Y-62370000D03*
X133510000Y-63410000D03*
X133710000Y-79840000D03*
X134450000Y-66340000D03*
X138490000Y-61230000D03*
X138500000Y-60070000D03*
X138790000Y-64850000D03*
X142160000Y-81500000D03*
X143390000Y-86510000D03*
X143640000Y-95370000D03*
X146150000Y-63720000D03*
X163770000Y-63730000D03*
X168010000Y-61090000D03*
X168410000Y-69350000D03*
X169810000Y-63650000D03*
X172900000Y-80010000D03*
X172900000Y-81010000D03*
X172900000Y-82010000D03*
X172900000Y-83010000D03*
X172900000Y-84010000D03*
X172900000Y-86000000D03*
X172900000Y-87000000D03*
X172900000Y-91000000D03*
X175400000Y-70890000D03*
X177292000Y-88823800D03*
X177317400Y-77419200D03*
X177317400Y-81203800D03*
X177317400Y-84988400D03*
X177317400Y-92608400D03*
X177910000Y-72940000D03*
X181102000Y-77393800D03*
X181102000Y-92608400D03*
X181127400Y-85013800D03*
X181903800Y-97009400D03*
X182905400Y-97002600D03*
X184886600Y-81203800D03*
X184912000Y-77419200D03*
X184912000Y-88747600D03*
X184912000Y-92608400D03*
X188696600Y-77393800D03*
X188696600Y-85013800D03*
X188722000Y-92608400D03*
X188899800Y-96977200D03*
X189110000Y-67660000D03*
X192506600Y-81203800D03*
X192506600Y-85013800D03*
X192506600Y-88823800D03*
X192506600Y-92608400D03*
X192532000Y-77419200D03*
X192910000Y-72970000D03*
X196900000Y-74010000D03*
X196900000Y-76010000D03*
X196900800Y-88011000D03*
X196900800Y-94005400D03*
X196900800Y-96012000D03*
X196910000Y-77010000D03*
X199974200Y-86029800D03*
X201830000Y-87680000D03*
X202320000Y-92010000D03*
X209110000Y-62780000D03*
M02*
