%TF.GenerationSoftware,KiCad,Pcbnew,8.0.3*%
%TF.CreationDate,2025-01-08T01:15:00+05:30*%
%TF.ProjectId,gps,6770732e-6b69-4636-9164-5f7063625858,rev?*%
%TF.SameCoordinates,Original*%
%TF.FileFunction,Other,User*%
%FSLAX46Y46*%
G04 Gerber Fmt 4.6, Leading zero omitted, Abs format (unit mm)*
G04 Created by KiCad (PCBNEW 8.0.3) date 2025-01-08 01:15:00*
%MOMM*%
%LPD*%
G01*
G04 APERTURE LIST*
%ADD10C,0.050000*%
%ADD11C,0.100000*%
%ADD12C,0.254000*%
%ADD13C,0.152400*%
G04 APERTURE END LIST*
%TO.C,U3*%
D10*
X124669300Y-68333200D02*
X123369300Y-68333200D01*
X123369300Y-69233200D01*
X124669300Y-69233200D01*
X124669300Y-68333200D01*
%TO.C,R9*%
X137260200Y-79666400D02*
X140260200Y-79666400D01*
X137260200Y-81166400D02*
X137260200Y-79666400D01*
X140260200Y-79666400D02*
X140260200Y-81166400D01*
X140260200Y-81166400D02*
X137260200Y-81166400D01*
%TO.C,R34*%
X165617000Y-65887400D02*
X165617000Y-67767400D01*
X165617000Y-65887400D02*
X168947000Y-65887400D01*
X165617000Y-67767400D02*
X168947000Y-67767400D01*
X168947000Y-65887400D02*
X168947000Y-67767400D01*
%TO.C,R4*%
X136130000Y-72923200D02*
X136130000Y-74803200D01*
X136130000Y-72923200D02*
X139460000Y-72923200D01*
X136130000Y-74803200D02*
X139460000Y-74803200D01*
X139460000Y-72923200D02*
X139460000Y-74803200D01*
%TO.C,R19*%
X183941600Y-69395400D02*
X183941600Y-71625400D01*
X183941600Y-69395400D02*
X188371600Y-69395400D01*
X183941600Y-71625400D02*
X188371600Y-71625400D01*
X188371600Y-69395400D02*
X188371600Y-71625400D01*
%TO.C,R5*%
X141502000Y-80758600D02*
X144502000Y-80758600D01*
X141502000Y-82258600D02*
X141502000Y-80758600D01*
X144502000Y-80758600D02*
X144502000Y-82258600D01*
X144502000Y-82258600D02*
X141502000Y-82258600D01*
%TO.C,C5*%
X132981200Y-61897000D02*
X135141200Y-61897000D01*
X132981200Y-62817000D02*
X132981200Y-61897000D01*
X135141200Y-61897000D02*
X135141200Y-62817000D01*
X135141200Y-62817000D02*
X132981200Y-62817000D01*
%TO.C,R31*%
X188228200Y-61760800D02*
X185228200Y-61760800D01*
X188228200Y-60260800D02*
X188228200Y-61760800D01*
X185228200Y-61760800D02*
X185228200Y-60260800D01*
X185228200Y-60260800D02*
X188228200Y-60260800D01*
%TO.C,D6*%
X126827200Y-67073600D02*
X131897200Y-67073600D01*
X126827200Y-69273600D02*
X126827200Y-67073600D01*
X131897200Y-67073600D02*
X131897200Y-69273600D01*
X131897200Y-69273600D02*
X126827200Y-69273600D01*
%TO.C,J1*%
X118725800Y-64643800D02*
X118725800Y-73693800D01*
X123225800Y-64643800D02*
X118725800Y-64643800D01*
X123225800Y-64643800D02*
X123225800Y-73693800D01*
X123225800Y-73693800D02*
X118725800Y-73693800D01*
%TO.C,R28*%
X198354100Y-86702800D02*
X200554100Y-86702800D01*
X198354100Y-87642800D02*
X198354100Y-86702800D01*
X200554100Y-86702800D02*
X200554100Y-87642800D01*
X200554100Y-87642800D02*
X198354100Y-87642800D01*
%TO.C,J4*%
X196475400Y-59212400D02*
X196475400Y-71462400D01*
D11*
X203225400Y-64837400D02*
X203225400Y-65837400D01*
X203725400Y-65337400D02*
X202725400Y-65337400D01*
D10*
X209975400Y-59212400D02*
X196475400Y-59212400D01*
X209975400Y-59212400D02*
X209975400Y-71462400D01*
X209975400Y-71462400D02*
X196475400Y-71462400D01*
D12*
X200275400Y-63397400D02*
X199275400Y-63397400D01*
X199275400Y-62197400D01*
X200275400Y-62197400D01*
X200275400Y-63397400D01*
G36*
X200275400Y-63397400D02*
G01*
X199275400Y-63397400D01*
X199275400Y-62197400D01*
X200275400Y-62197400D01*
X200275400Y-63397400D01*
G37*
X200275400Y-65937400D02*
X199275400Y-65937400D01*
X199275400Y-64737400D01*
X200275400Y-64737400D01*
X200275400Y-65937400D01*
G36*
X200275400Y-65937400D02*
G01*
X199275400Y-65937400D01*
X199275400Y-64737400D01*
X200275400Y-64737400D01*
X200275400Y-65937400D01*
G37*
X200275400Y-68477400D02*
X199275400Y-68477400D01*
X199275400Y-67277400D01*
X200275400Y-67277400D01*
X200275400Y-68477400D01*
G36*
X200275400Y-68477400D02*
G01*
X199275400Y-68477400D01*
X199275400Y-67277400D01*
X200275400Y-67277400D01*
X200275400Y-68477400D01*
G37*
X205375400Y-68912400D02*
X200525400Y-68912400D01*
X200525400Y-61762400D01*
X205375400Y-61762400D01*
X205375400Y-68912400D01*
G36*
X205375400Y-68912400D02*
G01*
X200525400Y-68912400D01*
X200525400Y-61762400D01*
X205375400Y-61762400D01*
X205375400Y-68912400D01*
G37*
X207925400Y-63397400D02*
X206925400Y-63397400D01*
X206925400Y-62197400D01*
X207925400Y-62197400D01*
X207925400Y-63397400D01*
G36*
X207925400Y-63397400D02*
G01*
X206925400Y-63397400D01*
X206925400Y-62197400D01*
X207925400Y-62197400D01*
X207925400Y-63397400D01*
G37*
X207925400Y-65937400D02*
X206925400Y-65937400D01*
X206925400Y-64737400D01*
X207925400Y-64737400D01*
X207925400Y-65937400D01*
G36*
X207925400Y-65937400D02*
G01*
X206925400Y-65937400D01*
X206925400Y-64737400D01*
X207925400Y-64737400D01*
X207925400Y-65937400D01*
G37*
X207925400Y-68477400D02*
X206925400Y-68477400D01*
X206925400Y-67277400D01*
X207925400Y-67277400D01*
X207925400Y-68477400D01*
G36*
X207925400Y-68477400D02*
G01*
X206925400Y-68477400D01*
X206925400Y-67277400D01*
X207925400Y-67277400D01*
X207925400Y-68477400D01*
G37*
D10*
%TO.C,R33*%
X183348600Y-65798000D02*
X186348600Y-65798000D01*
X183348600Y-67298000D02*
X183348600Y-65798000D01*
X186348600Y-65798000D02*
X186348600Y-67298000D01*
X186348600Y-67298000D02*
X183348600Y-67298000D01*
%TO.C,R27*%
X199631200Y-87901600D02*
X200571200Y-87901600D01*
X199631200Y-90101600D02*
X199631200Y-87901600D01*
X200571200Y-87901600D02*
X200571200Y-90101600D01*
X200571200Y-90101600D02*
X199631200Y-90101600D01*
%TO.C,R29*%
X191772600Y-62148600D02*
X194002600Y-62148600D01*
X191772600Y-66578600D02*
X191772600Y-62148600D01*
X191772600Y-66578600D02*
X194002600Y-66578600D01*
X194002600Y-66578600D02*
X194002600Y-62148600D01*
%TO.C,R10*%
X131852800Y-74486200D02*
X128852800Y-74486200D01*
X131852800Y-72986200D02*
X131852800Y-74486200D01*
X128852800Y-74486200D02*
X128852800Y-72986200D01*
X128852800Y-72986200D02*
X131852800Y-72986200D01*
%TO.C,C21*%
X133577600Y-64067000D02*
X135357600Y-64067000D01*
X133577600Y-66997000D02*
X133577600Y-64067000D01*
X135357600Y-64067000D02*
X135357600Y-66997000D01*
X135357600Y-66997000D02*
X133577600Y-66997000D01*
%TO.C,R17*%
X199605800Y-90340000D02*
X200545800Y-90340000D01*
X199605800Y-92540000D02*
X199605800Y-90340000D01*
X200545800Y-90340000D02*
X200545800Y-92540000D01*
X200545800Y-92540000D02*
X199605800Y-92540000D01*
%TO.C,S1*%
X132271400Y-81515200D02*
X140171400Y-81515200D01*
X132271400Y-85515200D02*
X132271400Y-81515200D01*
X140171400Y-81515200D02*
X140171400Y-85515200D01*
X140171400Y-85515200D02*
X132271400Y-85515200D01*
%TO.C,U11*%
X200910200Y-89113000D02*
X201160200Y-89113000D01*
X200910200Y-90973000D02*
X200910200Y-89113000D01*
X201160200Y-88323000D02*
X203360200Y-88323000D01*
X201160200Y-89113000D02*
X201160200Y-88323000D01*
X201160200Y-90973000D02*
X200910200Y-90973000D01*
X201160200Y-91763000D02*
X201160200Y-90973000D01*
X203360200Y-88323000D02*
X203360200Y-89113000D01*
X203360200Y-89113000D02*
X203610200Y-89113000D01*
X203360200Y-90973000D02*
X203360200Y-91763000D01*
X203360200Y-91763000D02*
X201160200Y-91763000D01*
X203610200Y-89113000D02*
X203610200Y-90973000D01*
X203610200Y-90973000D02*
X203360200Y-90973000D01*
%TO.C,C12*%
X128825800Y-75026600D02*
X131625800Y-75026600D01*
X128825800Y-79176600D02*
X128825800Y-75026600D01*
X131625800Y-75026600D02*
X131625800Y-79176600D01*
X131625800Y-79176600D02*
X128825800Y-79176600D01*
%TO.C,IC1*%
X135735000Y-61783800D02*
X141935000Y-61783800D01*
X135735000Y-67983800D02*
X135735000Y-61783800D01*
X141935000Y-61783800D02*
X141935000Y-67983800D01*
X141935000Y-67983800D02*
X135735000Y-67983800D01*
%TO.C,C10*%
X165527000Y-67967400D02*
X169677000Y-67967400D01*
X165527000Y-70767400D02*
X165527000Y-67967400D01*
X169677000Y-67967400D02*
X169677000Y-70767400D01*
X169677000Y-70767400D02*
X165527000Y-70767400D01*
%TO.C,C11*%
X132430800Y-78457600D02*
X136580800Y-78457600D01*
X132430800Y-81257600D02*
X132430800Y-78457600D01*
X136580800Y-78457600D02*
X136580800Y-81257600D01*
X136580800Y-81257600D02*
X132430800Y-81257600D01*
%TO.C,U4*%
X124679200Y-69349200D02*
X123379200Y-69349200D01*
X123379200Y-70249200D01*
X124679200Y-70249200D01*
X124679200Y-69349200D01*
%TO.C,A1*%
X145169200Y-56038600D02*
X164769200Y-56038600D01*
X145169200Y-87938600D02*
X145169200Y-56038600D01*
X164769200Y-56038600D02*
X164769200Y-87938600D01*
X164769200Y-87938600D02*
X145169200Y-87938600D01*
%TO.C,R35*%
X174639400Y-71652400D02*
X174639400Y-70130400D01*
X177655400Y-70130400D02*
X174639400Y-70130400D01*
X177655400Y-71652400D02*
X174639400Y-71652400D01*
X177655400Y-71652400D02*
X177655400Y-70130400D01*
%TO.C,C14*%
X198335400Y-85569800D02*
X200495400Y-85569800D01*
X198335400Y-86489800D02*
X198335400Y-85569800D01*
X200495400Y-85569800D02*
X200495400Y-86489800D01*
X200495400Y-86489800D02*
X198335400Y-86489800D01*
%TO.C,C13*%
X201307200Y-87220800D02*
X203467200Y-87220800D01*
X201307200Y-88140800D02*
X201307200Y-87220800D01*
X203467200Y-87220800D02*
X203467200Y-88140800D01*
X203467200Y-88140800D02*
X201307200Y-88140800D01*
%TO.C,C9*%
X166360900Y-60627000D02*
X168520900Y-60627000D01*
X166360900Y-61547000D02*
X166360900Y-60627000D01*
X168520900Y-60627000D02*
X168520900Y-61547000D01*
X168520900Y-61547000D02*
X166360900Y-61547000D01*
%TO.C,R6*%
X141451200Y-79056800D02*
X144451200Y-79056800D01*
X141451200Y-80556800D02*
X141451200Y-79056800D01*
X144451200Y-79056800D02*
X144451200Y-80556800D01*
X144451200Y-80556800D02*
X141451200Y-80556800D01*
%TO.C,C4*%
X132997900Y-62938400D02*
X135157900Y-62938400D01*
X132997900Y-63858400D02*
X132997900Y-62938400D01*
X135157900Y-62938400D02*
X135157900Y-63858400D01*
X135157900Y-63858400D02*
X132997900Y-63858400D01*
D13*
%TO.C,AE1*%
X166237400Y-83430800D02*
X166580300Y-83430800D01*
X166237400Y-90949200D02*
X166237400Y-83430800D01*
X166580300Y-83430800D02*
X166580300Y-83786400D01*
X166580300Y-83786400D02*
X169399700Y-83786400D01*
X166580300Y-90593600D02*
X166580300Y-90949200D01*
X166580300Y-90949200D02*
X166237400Y-90949200D01*
X169399700Y-83430800D02*
X169399700Y-83786400D01*
X169399700Y-90593600D02*
X166580300Y-90593600D01*
X169399700Y-90593600D02*
X169399700Y-90949200D01*
X169399700Y-90949200D02*
X169742600Y-90949200D01*
X169742600Y-83430800D02*
X169399700Y-83430800D01*
X169742600Y-90949200D02*
X169742600Y-83430800D01*
D10*
%TO.C,S2*%
X124415800Y-73012000D02*
X128415800Y-73012000D01*
X124415800Y-80912000D02*
X124415800Y-73012000D01*
X128415800Y-73012000D02*
X128415800Y-80912000D01*
X128415800Y-80912000D02*
X124415800Y-80912000D01*
%TO.C,Q5*%
X186641000Y-65904000D02*
X186641000Y-69224000D01*
X186641000Y-69224000D02*
X190041000Y-69224000D01*
X190041000Y-65904000D02*
X186641000Y-65904000D01*
X190041000Y-69224000D02*
X190041000Y-65904000D01*
%TO.C,Q1*%
X136897000Y-76049400D02*
X136897000Y-79449400D01*
X136897000Y-79449400D02*
X140217000Y-79449400D01*
X140217000Y-76049400D02*
X136897000Y-76049400D01*
X140217000Y-79449400D02*
X140217000Y-76049400D01*
%TO.C,Q4*%
X132204000Y-72076800D02*
X132204000Y-75476800D01*
X132204000Y-75476800D02*
X135524000Y-75476800D01*
X135524000Y-72076800D02*
X132204000Y-72076800D01*
X135524000Y-75476800D02*
X135524000Y-72076800D01*
%TO.C,R30*%
X188606400Y-70039800D02*
X191606400Y-70039800D01*
X188606400Y-71539800D02*
X188606400Y-70039800D01*
X191606400Y-70039800D02*
X191606400Y-71539800D01*
X191606400Y-71539800D02*
X188606400Y-71539800D01*
%TO.C,R32*%
X188479200Y-60286200D02*
X191479200Y-60286200D01*
X188479200Y-61786200D02*
X188479200Y-60286200D01*
X191479200Y-60286200D02*
X191479200Y-61786200D01*
X191479200Y-61786200D02*
X188479200Y-61786200D01*
%TO.C,C1*%
X132102600Y-64401200D02*
X133022600Y-64401200D01*
X132102600Y-66561200D02*
X132102600Y-64401200D01*
X133022600Y-64401200D02*
X133022600Y-66561200D01*
X133022600Y-66561200D02*
X132102600Y-66561200D01*
%TO.C,Q2*%
X186651200Y-61986400D02*
X186651200Y-65306400D01*
X186651200Y-65306400D02*
X190051200Y-65306400D01*
X190051200Y-61986400D02*
X186651200Y-61986400D01*
X190051200Y-65306400D02*
X190051200Y-61986400D01*
%TO.C,R7*%
X132878800Y-77724200D02*
X132878800Y-75844200D01*
X136208800Y-75844200D02*
X132878800Y-75844200D01*
X136208800Y-77724200D02*
X132878800Y-77724200D01*
X136208800Y-77724200D02*
X136208800Y-75844200D01*
D11*
%TO.C,C8*%
X165508200Y-61750400D02*
X171216200Y-61750400D01*
X165508200Y-65554400D02*
X165508200Y-61750400D01*
X171216200Y-61750400D02*
X171216200Y-65554400D01*
X171216200Y-65554400D02*
X165508200Y-65554400D01*
D10*
%TO.C,R3*%
X135126600Y-68871400D02*
X138126600Y-68871400D01*
X135126600Y-70371400D02*
X135126600Y-68871400D01*
X138126600Y-68871400D02*
X138126600Y-70371400D01*
X138126600Y-70371400D02*
X135126600Y-70371400D01*
%TO.C,R16*%
X168615800Y-75272200D02*
X171515800Y-75272200D01*
X168615800Y-76772200D02*
X168615800Y-75272200D01*
X171515800Y-75272200D02*
X171515800Y-76772200D01*
X171515800Y-76772200D02*
X168615800Y-76772200D01*
%TO.C,C7*%
X136850700Y-59611000D02*
X139010700Y-59611000D01*
X136850700Y-60531000D02*
X136850700Y-59611000D01*
X139010700Y-59611000D02*
X139010700Y-60531000D01*
X139010700Y-60531000D02*
X136850700Y-60531000D01*
%TO.C,C6*%
X136833300Y-60754000D02*
X138993300Y-60754000D01*
X136833300Y-61674000D02*
X136833300Y-60754000D01*
X138993300Y-60754000D02*
X138993300Y-61674000D01*
X138993300Y-61674000D02*
X136833300Y-61674000D01*
%TO.C,U2*%
X123430500Y-59794300D02*
X123430500Y-66799300D01*
X123430500Y-66799300D02*
X131930500Y-66799300D01*
X131930500Y-59794300D02*
X123430500Y-59794300D01*
X131930500Y-66799300D02*
X131930500Y-59794300D01*
%TD*%
M02*
