%TF.GenerationSoftware,KiCad,Pcbnew,8.0.3*%
%TF.CreationDate,2025-01-08T01:15:00+05:30*%
%TF.ProjectId,gps,6770732e-6b69-4636-9164-5f7063625858,rev?*%
%TF.SameCoordinates,Original*%
%TF.FileFunction,Other,User*%
%FSLAX46Y46*%
G04 Gerber Fmt 4.6, Leading zero omitted, Abs format (unit mm)*
G04 Created by KiCad (PCBNEW 8.0.3) date 2025-01-08 01:15:00*
%MOMM*%
%LPD*%
G01*
G04 APERTURE LIST*
%ADD10C,0.050000*%
%ADD11C,0.152400*%
G04 APERTURE END LIST*
D10*
%TO.C,C17*%
X130680400Y-67205600D02*
X132840400Y-67205600D01*
X130680400Y-68125600D02*
X130680400Y-67205600D01*
X132840400Y-67205600D02*
X132840400Y-68125600D01*
X132840400Y-68125600D02*
X130680400Y-68125600D01*
%TO.C,C15*%
X192326000Y-65722000D02*
X193246000Y-65722000D01*
X192326000Y-67882000D02*
X192326000Y-65722000D01*
X193246000Y-65722000D02*
X193246000Y-67882000D01*
X193246000Y-67882000D02*
X192326000Y-67882000D01*
%TO.C,R18*%
X185421000Y-65262000D02*
X185421000Y-62246000D01*
X186943000Y-62246000D02*
X185421000Y-62246000D01*
X186943000Y-65262000D02*
X185421000Y-65262000D01*
X186943000Y-65262000D02*
X186943000Y-62246000D01*
%TO.C,C19*%
X143291000Y-64625800D02*
X145071000Y-64625800D01*
X143291000Y-67555800D02*
X143291000Y-64625800D01*
X145071000Y-64625800D02*
X145071000Y-67555800D01*
X145071000Y-67555800D02*
X143291000Y-67555800D01*
%TO.C,D3*%
X139433000Y-65421000D02*
X142833000Y-65421000D01*
X139433000Y-67421000D02*
X139433000Y-65421000D01*
X142833000Y-65421000D02*
X142833000Y-67421000D01*
X142833000Y-67421000D02*
X139433000Y-67421000D01*
%TO.C,U8*%
X130885000Y-68471400D02*
X130885000Y-72691400D01*
X130885000Y-72691400D02*
X134285000Y-72691400D01*
X134285000Y-68471400D02*
X130885000Y-68471400D01*
X134285000Y-72691400D02*
X134285000Y-68471400D01*
%TO.C,BT2*%
X187626000Y-57322000D02*
X197676000Y-57322000D01*
X187626000Y-64622000D02*
X187626000Y-57322000D01*
X197676000Y-57322000D02*
X197676000Y-64622000D01*
X197676000Y-64622000D02*
X187626000Y-64622000D01*
%TO.C,R21*%
X127069000Y-79213200D02*
X130519000Y-79213200D01*
X127069000Y-81213200D02*
X127069000Y-79213200D01*
X130519000Y-79213200D02*
X130519000Y-81213200D01*
X130519000Y-81213200D02*
X127069000Y-81213200D01*
%TO.C,D5*%
X135521400Y-65370200D02*
X138921400Y-65370200D01*
X135521400Y-67370200D02*
X135521400Y-65370200D01*
X138921400Y-65370200D02*
X138921400Y-67370200D01*
X138921400Y-67370200D02*
X135521400Y-67370200D01*
%TO.C,R23*%
X118620200Y-81931000D02*
X122070200Y-81931000D01*
X118620200Y-83931000D02*
X118620200Y-81931000D01*
X122070200Y-81931000D02*
X122070200Y-83931000D01*
X122070200Y-83931000D02*
X118620200Y-83931000D01*
%TO.C,C16*%
X128673800Y-65097400D02*
X130833800Y-65097400D01*
X128673800Y-66017400D02*
X128673800Y-65097400D01*
X130833800Y-65097400D02*
X130833800Y-66017400D01*
X130833800Y-66017400D02*
X128673800Y-66017400D01*
%TO.C,J5*%
X125938250Y-84382500D02*
X144438250Y-84382500D01*
X125938250Y-106532500D02*
X125938250Y-84382500D01*
X144438250Y-84382500D02*
X144438250Y-106532500D01*
X144438250Y-106532500D02*
X125938250Y-106532500D01*
%TO.C,U5*%
X169810000Y-58280000D02*
X184110000Y-58280000D01*
X169810000Y-74780000D02*
X169810000Y-58280000D01*
X184110000Y-58280000D02*
X184110000Y-74780000D01*
X184110000Y-74780000D02*
X169810000Y-74780000D01*
%TO.C,R22*%
X118467800Y-74285600D02*
X121917800Y-74285600D01*
X118467800Y-76285600D02*
X118467800Y-74285600D01*
X121917800Y-74285600D02*
X121917800Y-76285600D01*
X121917800Y-76285600D02*
X118467800Y-76285600D01*
%TO.C,R14*%
X167641000Y-63992000D02*
X167641000Y-60976000D01*
X169163000Y-60976000D02*
X167641000Y-60976000D01*
X169163000Y-63992000D02*
X167641000Y-63992000D01*
X169163000Y-63992000D02*
X169163000Y-60976000D01*
%TO.C,R13*%
X125813800Y-60405400D02*
X128613800Y-60405400D01*
X125813800Y-64730400D02*
X125813800Y-60405400D01*
X128613800Y-60405400D02*
X128613800Y-64730400D01*
X128613800Y-64730400D02*
X125813800Y-64730400D01*
%TO.C,L1*%
X167165000Y-72968000D02*
X167165000Y-76384000D01*
X167165000Y-72968000D02*
X169131000Y-72968000D01*
X167165000Y-76384000D02*
X169131000Y-76384000D01*
X169131000Y-72968000D02*
X169131000Y-76384000D01*
%TO.C,R12*%
X130355600Y-73127600D02*
X133371600Y-73127600D01*
X130355600Y-74649600D02*
X130355600Y-73127600D01*
X130355600Y-74649600D02*
X133371600Y-74649600D01*
X133371600Y-74649600D02*
X133371600Y-73127600D01*
%TO.C,R11*%
X139686200Y-60796600D02*
X139686200Y-63812600D01*
X139686200Y-60796600D02*
X141208200Y-60796600D01*
X139686200Y-63812600D02*
X141208200Y-63812600D01*
X141208200Y-60796600D02*
X141208200Y-63812600D01*
%TO.C,U6*%
X185866000Y-65560000D02*
X192086000Y-65560000D01*
X185866000Y-69060000D02*
X185866000Y-65560000D01*
X192086000Y-65560000D02*
X192086000Y-69060000D01*
X192086000Y-69060000D02*
X185866000Y-69060000D01*
%TO.C,L2*%
X141491400Y-74499400D02*
X148191400Y-74499400D01*
X141491400Y-80999400D02*
X141491400Y-74499400D01*
X148191400Y-74499400D02*
X148191400Y-80999400D01*
X148191400Y-80999400D02*
X141491400Y-80999400D01*
%TO.C,R26*%
X142903200Y-67856000D02*
X145103200Y-67856000D01*
X142903200Y-68796000D02*
X142903200Y-67856000D01*
X145103200Y-67856000D02*
X145103200Y-68796000D01*
X145103200Y-68796000D02*
X142903200Y-68796000D01*
%TO.C,D4*%
X167402000Y-64340000D02*
X169402000Y-64340000D01*
X167402000Y-67740000D02*
X167402000Y-64340000D01*
X169402000Y-64340000D02*
X169402000Y-67740000D01*
X169402000Y-67740000D02*
X167402000Y-67740000D01*
%TO.C,C2*%
X138296400Y-73760600D02*
X141226400Y-73760600D01*
X138296400Y-75540600D02*
X138296400Y-73760600D01*
X141226400Y-73760600D02*
X141226400Y-75540600D01*
X141226400Y-75540600D02*
X138296400Y-75540600D01*
%TO.C,Q3*%
X127367800Y-74993800D02*
X127367800Y-78523800D01*
X127367800Y-74993800D02*
X135187800Y-74993800D01*
X127367800Y-78523800D02*
X135187800Y-78523800D01*
X135187800Y-74993800D02*
X135187800Y-78523800D01*
%TO.C,J2*%
X134732600Y-68518400D02*
X141132600Y-68518400D01*
X134732600Y-73518400D02*
X134732600Y-68518400D01*
X141132600Y-68518400D02*
X141132600Y-73518400D01*
X141132600Y-73518400D02*
X134732600Y-73518400D01*
D11*
%TO.C,AE2*%
X164424300Y-71960200D02*
X164602100Y-71960200D01*
X164424300Y-75871800D02*
X164424300Y-71960200D01*
X164602100Y-71604600D02*
X166557900Y-71604600D01*
X164602100Y-71960200D02*
X164602100Y-71604600D01*
X164602100Y-75871800D02*
X164424300Y-75871800D01*
X164602100Y-76227400D02*
X164602100Y-75871800D01*
X166557900Y-71604600D02*
X166557900Y-71960200D01*
X166557900Y-71960200D02*
X166735700Y-71960200D01*
X166557900Y-75871800D02*
X166557900Y-76227400D01*
X166557900Y-76227400D02*
X164602100Y-76227400D01*
X166735700Y-71960200D02*
X166735700Y-75871800D01*
X166735700Y-75871800D02*
X166557900Y-75871800D01*
D10*
%TO.C,U7*%
X129026800Y-59328400D02*
X129026800Y-64928400D01*
X129026800Y-59328400D02*
X136446800Y-59328400D01*
X129026800Y-64928400D02*
X136446800Y-64928400D01*
X136446800Y-59328400D02*
X136446800Y-64928400D01*
%TO.C,R1*%
X137349400Y-62019000D02*
X137349400Y-65035000D01*
X137349400Y-62019000D02*
X138871400Y-62019000D01*
X137349400Y-65035000D02*
X138871400Y-65035000D01*
X138871400Y-62019000D02*
X138871400Y-65035000D01*
%TO.C,D1*%
X185082000Y-56901000D02*
X187282000Y-56901000D01*
X185082000Y-61971000D02*
X185082000Y-56901000D01*
X187282000Y-56901000D02*
X187282000Y-61971000D01*
X187282000Y-61971000D02*
X185082000Y-61971000D01*
%TO.C,R20*%
X142369800Y-69063600D02*
X145385800Y-69063600D01*
X142369800Y-70585600D02*
X142369800Y-69063600D01*
X142369800Y-70585600D02*
X145385800Y-70585600D01*
X145385800Y-70585600D02*
X145385800Y-69063600D01*
%TO.C,R15*%
X123649400Y-74565000D02*
X127099400Y-74565000D01*
X123649400Y-76565000D02*
X123649400Y-74565000D01*
X127099400Y-74565000D02*
X127099400Y-76565000D01*
X127099400Y-76565000D02*
X123649400Y-76565000D01*
%TO.C,C18*%
X133093400Y-67205600D02*
X135253400Y-67205600D01*
X133093400Y-68125600D02*
X133093400Y-67205600D01*
X135253400Y-67205600D02*
X135253400Y-68125600D01*
X135253400Y-68125600D02*
X133093400Y-68125600D01*
%TO.C,R24*%
X166998000Y-68387000D02*
X169298000Y-68387000D01*
X166998000Y-72837000D02*
X166998000Y-68387000D01*
X169298000Y-68387000D02*
X169298000Y-72837000D01*
X169298000Y-72837000D02*
X166998000Y-72837000D01*
%TO.C,U10*%
X141419800Y-70805700D02*
X141419800Y-74205700D01*
X141419800Y-74205700D02*
X145519800Y-74205700D01*
X145519800Y-70805700D02*
X141419800Y-70805700D01*
X145519800Y-74205700D02*
X145519800Y-70805700D01*
%TO.C,R25*%
X132063000Y-65340800D02*
X134963000Y-65340800D01*
X132063000Y-66840800D02*
X132063000Y-65340800D01*
X134963000Y-65340800D02*
X134963000Y-66840800D01*
X134963000Y-66840800D02*
X132063000Y-66840800D01*
%TO.C,D2*%
X145883200Y-64460600D02*
X145883200Y-74120600D01*
X145883200Y-74120600D02*
X152283200Y-74120600D01*
X152283200Y-64460600D02*
X145883200Y-64460600D01*
X152283200Y-74120600D02*
X152283200Y-64460600D01*
%TD*%
M02*
