%TF.GenerationSoftware,KiCad,Pcbnew,8.0.3*%
%TF.CreationDate,2025-01-08T01:15:00+05:30*%
%TF.ProjectId,gps,6770732e-6b69-4636-9164-5f7063625858,rev?*%
%TF.SameCoordinates,Original*%
%TF.FileFunction,Legend,Top*%
%TF.FilePolarity,Positive*%
%FSLAX46Y46*%
G04 Gerber Fmt 4.6, Leading zero omitted, Abs format (unit mm)*
G04 Created by KiCad (PCBNEW 8.0.3) date 2025-01-08 01:15:00*
%MOMM*%
%LPD*%
G01*
G04 APERTURE LIST*
%ADD10C,0.200000*%
%ADD11C,0.050000*%
%ADD12C,0.098425*%
%ADD13C,0.120000*%
%ADD14C,0.127000*%
%ADD15C,0.000000*%
%ADD16C,0.152400*%
G04 APERTURE END LIST*
D10*
X190919673Y-95667275D02*
X190919673Y-94667275D01*
X190919673Y-94667275D02*
X191157768Y-94667275D01*
X191157768Y-94667275D02*
X191300625Y-94714894D01*
X191300625Y-94714894D02*
X191395863Y-94810132D01*
X191395863Y-94810132D02*
X191443482Y-94905370D01*
X191443482Y-94905370D02*
X191491101Y-95095846D01*
X191491101Y-95095846D02*
X191491101Y-95238703D01*
X191491101Y-95238703D02*
X191443482Y-95429179D01*
X191443482Y-95429179D02*
X191395863Y-95524417D01*
X191395863Y-95524417D02*
X191300625Y-95619656D01*
X191300625Y-95619656D02*
X191157768Y-95667275D01*
X191157768Y-95667275D02*
X190919673Y-95667275D01*
X192300625Y-95619656D02*
X192205387Y-95667275D01*
X192205387Y-95667275D02*
X192014911Y-95667275D01*
X192014911Y-95667275D02*
X191919673Y-95619656D01*
X191919673Y-95619656D02*
X191872054Y-95524417D01*
X191872054Y-95524417D02*
X191872054Y-95143465D01*
X191872054Y-95143465D02*
X191919673Y-95048227D01*
X191919673Y-95048227D02*
X192014911Y-95000608D01*
X192014911Y-95000608D02*
X192205387Y-95000608D01*
X192205387Y-95000608D02*
X192300625Y-95048227D01*
X192300625Y-95048227D02*
X192348244Y-95143465D01*
X192348244Y-95143465D02*
X192348244Y-95238703D01*
X192348244Y-95238703D02*
X191872054Y-95333941D01*
X192729197Y-95619656D02*
X192824435Y-95667275D01*
X192824435Y-95667275D02*
X193014911Y-95667275D01*
X193014911Y-95667275D02*
X193110149Y-95619656D01*
X193110149Y-95619656D02*
X193157768Y-95524417D01*
X193157768Y-95524417D02*
X193157768Y-95476798D01*
X193157768Y-95476798D02*
X193110149Y-95381560D01*
X193110149Y-95381560D02*
X193014911Y-95333941D01*
X193014911Y-95333941D02*
X192872054Y-95333941D01*
X192872054Y-95333941D02*
X192776816Y-95286322D01*
X192776816Y-95286322D02*
X192729197Y-95191084D01*
X192729197Y-95191084D02*
X192729197Y-95143465D01*
X192729197Y-95143465D02*
X192776816Y-95048227D01*
X192776816Y-95048227D02*
X192872054Y-95000608D01*
X192872054Y-95000608D02*
X193014911Y-95000608D01*
X193014911Y-95000608D02*
X193110149Y-95048227D01*
X193586340Y-95667275D02*
X193586340Y-95000608D01*
X193586340Y-94667275D02*
X193538721Y-94714894D01*
X193538721Y-94714894D02*
X193586340Y-94762513D01*
X193586340Y-94762513D02*
X193633959Y-94714894D01*
X193633959Y-94714894D02*
X193586340Y-94667275D01*
X193586340Y-94667275D02*
X193586340Y-94762513D01*
X194491101Y-95000608D02*
X194491101Y-95810132D01*
X194491101Y-95810132D02*
X194443482Y-95905370D01*
X194443482Y-95905370D02*
X194395863Y-95952989D01*
X194395863Y-95952989D02*
X194300625Y-96000608D01*
X194300625Y-96000608D02*
X194157768Y-96000608D01*
X194157768Y-96000608D02*
X194062530Y-95952989D01*
X194491101Y-95619656D02*
X194395863Y-95667275D01*
X194395863Y-95667275D02*
X194205387Y-95667275D01*
X194205387Y-95667275D02*
X194110149Y-95619656D01*
X194110149Y-95619656D02*
X194062530Y-95572036D01*
X194062530Y-95572036D02*
X194014911Y-95476798D01*
X194014911Y-95476798D02*
X194014911Y-95191084D01*
X194014911Y-95191084D02*
X194062530Y-95095846D01*
X194062530Y-95095846D02*
X194110149Y-95048227D01*
X194110149Y-95048227D02*
X194205387Y-95000608D01*
X194205387Y-95000608D02*
X194395863Y-95000608D01*
X194395863Y-95000608D02*
X194491101Y-95048227D01*
X194967292Y-95000608D02*
X194967292Y-95667275D01*
X194967292Y-95095846D02*
X195014911Y-95048227D01*
X195014911Y-95048227D02*
X195110149Y-95000608D01*
X195110149Y-95000608D02*
X195253006Y-95000608D01*
X195253006Y-95000608D02*
X195348244Y-95048227D01*
X195348244Y-95048227D02*
X195395863Y-95143465D01*
X195395863Y-95143465D02*
X195395863Y-95667275D01*
X196253006Y-95619656D02*
X196157768Y-95667275D01*
X196157768Y-95667275D02*
X195967292Y-95667275D01*
X195967292Y-95667275D02*
X195872054Y-95619656D01*
X195872054Y-95619656D02*
X195824435Y-95524417D01*
X195824435Y-95524417D02*
X195824435Y-95143465D01*
X195824435Y-95143465D02*
X195872054Y-95048227D01*
X195872054Y-95048227D02*
X195967292Y-95000608D01*
X195967292Y-95000608D02*
X196157768Y-95000608D01*
X196157768Y-95000608D02*
X196253006Y-95048227D01*
X196253006Y-95048227D02*
X196300625Y-95143465D01*
X196300625Y-95143465D02*
X196300625Y-95238703D01*
X196300625Y-95238703D02*
X195824435Y-95333941D01*
X197157768Y-95667275D02*
X197157768Y-94667275D01*
X197157768Y-95619656D02*
X197062530Y-95667275D01*
X197062530Y-95667275D02*
X196872054Y-95667275D01*
X196872054Y-95667275D02*
X196776816Y-95619656D01*
X196776816Y-95619656D02*
X196729197Y-95572036D01*
X196729197Y-95572036D02*
X196681578Y-95476798D01*
X196681578Y-95476798D02*
X196681578Y-95191084D01*
X196681578Y-95191084D02*
X196729197Y-95095846D01*
X196729197Y-95095846D02*
X196776816Y-95048227D01*
X196776816Y-95048227D02*
X196872054Y-95000608D01*
X196872054Y-95000608D02*
X197062530Y-95000608D01*
X197062530Y-95000608D02*
X197157768Y-95048227D01*
X198395864Y-95667275D02*
X198395864Y-94667275D01*
X198395864Y-95048227D02*
X198491102Y-95000608D01*
X198491102Y-95000608D02*
X198681578Y-95000608D01*
X198681578Y-95000608D02*
X198776816Y-95048227D01*
X198776816Y-95048227D02*
X198824435Y-95095846D01*
X198824435Y-95095846D02*
X198872054Y-95191084D01*
X198872054Y-95191084D02*
X198872054Y-95476798D01*
X198872054Y-95476798D02*
X198824435Y-95572036D01*
X198824435Y-95572036D02*
X198776816Y-95619656D01*
X198776816Y-95619656D02*
X198681578Y-95667275D01*
X198681578Y-95667275D02*
X198491102Y-95667275D01*
X198491102Y-95667275D02*
X198395864Y-95619656D01*
X199205388Y-95000608D02*
X199443483Y-95667275D01*
X199681578Y-95000608D02*
X199443483Y-95667275D01*
X199443483Y-95667275D02*
X199348245Y-95905370D01*
X199348245Y-95905370D02*
X199300626Y-95952989D01*
X199300626Y-95952989D02*
X199205388Y-96000608D01*
X200062531Y-95572036D02*
X200110150Y-95619656D01*
X200110150Y-95619656D02*
X200062531Y-95667275D01*
X200062531Y-95667275D02*
X200014912Y-95619656D01*
X200014912Y-95619656D02*
X200062531Y-95572036D01*
X200062531Y-95572036D02*
X200062531Y-95667275D01*
X200062531Y-95048227D02*
X200110150Y-95095846D01*
X200110150Y-95095846D02*
X200062531Y-95143465D01*
X200062531Y-95143465D02*
X200014912Y-95095846D01*
X200014912Y-95095846D02*
X200062531Y-95048227D01*
X200062531Y-95048227D02*
X200062531Y-95143465D01*
X190776816Y-96277219D02*
X191110149Y-97277219D01*
X191110149Y-97277219D02*
X191443482Y-96277219D01*
X192157768Y-97229600D02*
X192062530Y-97277219D01*
X192062530Y-97277219D02*
X191872054Y-97277219D01*
X191872054Y-97277219D02*
X191776816Y-97229600D01*
X191776816Y-97229600D02*
X191729197Y-97134361D01*
X191729197Y-97134361D02*
X191729197Y-96753409D01*
X191729197Y-96753409D02*
X191776816Y-96658171D01*
X191776816Y-96658171D02*
X191872054Y-96610552D01*
X191872054Y-96610552D02*
X192062530Y-96610552D01*
X192062530Y-96610552D02*
X192157768Y-96658171D01*
X192157768Y-96658171D02*
X192205387Y-96753409D01*
X192205387Y-96753409D02*
X192205387Y-96848647D01*
X192205387Y-96848647D02*
X191729197Y-96943885D01*
X192633959Y-96610552D02*
X192633959Y-97277219D01*
X192633959Y-96705790D02*
X192681578Y-96658171D01*
X192681578Y-96658171D02*
X192776816Y-96610552D01*
X192776816Y-96610552D02*
X192919673Y-96610552D01*
X192919673Y-96610552D02*
X193014911Y-96658171D01*
X193014911Y-96658171D02*
X193062530Y-96753409D01*
X193062530Y-96753409D02*
X193062530Y-97277219D01*
X193538721Y-97277219D02*
X193538721Y-96277219D01*
X193633959Y-96896266D02*
X193919673Y-97277219D01*
X193919673Y-96610552D02*
X193538721Y-96991504D01*
X194776816Y-97277219D02*
X194776816Y-96753409D01*
X194776816Y-96753409D02*
X194729197Y-96658171D01*
X194729197Y-96658171D02*
X194633959Y-96610552D01*
X194633959Y-96610552D02*
X194443483Y-96610552D01*
X194443483Y-96610552D02*
X194348245Y-96658171D01*
X194776816Y-97229600D02*
X194681578Y-97277219D01*
X194681578Y-97277219D02*
X194443483Y-97277219D01*
X194443483Y-97277219D02*
X194348245Y-97229600D01*
X194348245Y-97229600D02*
X194300626Y-97134361D01*
X194300626Y-97134361D02*
X194300626Y-97039123D01*
X194300626Y-97039123D02*
X194348245Y-96943885D01*
X194348245Y-96943885D02*
X194443483Y-96896266D01*
X194443483Y-96896266D02*
X194681578Y-96896266D01*
X194681578Y-96896266D02*
X194776816Y-96848647D01*
X195110150Y-96610552D02*
X195491102Y-96610552D01*
X195253007Y-96277219D02*
X195253007Y-97134361D01*
X195253007Y-97134361D02*
X195300626Y-97229600D01*
X195300626Y-97229600D02*
X195395864Y-97277219D01*
X195395864Y-97277219D02*
X195491102Y-97277219D01*
X196205388Y-97229600D02*
X196110150Y-97277219D01*
X196110150Y-97277219D02*
X195919674Y-97277219D01*
X195919674Y-97277219D02*
X195824436Y-97229600D01*
X195824436Y-97229600D02*
X195776817Y-97134361D01*
X195776817Y-97134361D02*
X195776817Y-96753409D01*
X195776817Y-96753409D02*
X195824436Y-96658171D01*
X195824436Y-96658171D02*
X195919674Y-96610552D01*
X195919674Y-96610552D02*
X196110150Y-96610552D01*
X196110150Y-96610552D02*
X196205388Y-96658171D01*
X196205388Y-96658171D02*
X196253007Y-96753409D01*
X196253007Y-96753409D02*
X196253007Y-96848647D01*
X196253007Y-96848647D02*
X195776817Y-96943885D01*
X196633960Y-97229600D02*
X196729198Y-97277219D01*
X196729198Y-97277219D02*
X196919674Y-97277219D01*
X196919674Y-97277219D02*
X197014912Y-97229600D01*
X197014912Y-97229600D02*
X197062531Y-97134361D01*
X197062531Y-97134361D02*
X197062531Y-97086742D01*
X197062531Y-97086742D02*
X197014912Y-96991504D01*
X197014912Y-96991504D02*
X196919674Y-96943885D01*
X196919674Y-96943885D02*
X196776817Y-96943885D01*
X196776817Y-96943885D02*
X196681579Y-96896266D01*
X196681579Y-96896266D02*
X196633960Y-96801028D01*
X196633960Y-96801028D02*
X196633960Y-96753409D01*
X196633960Y-96753409D02*
X196681579Y-96658171D01*
X196681579Y-96658171D02*
X196776817Y-96610552D01*
X196776817Y-96610552D02*
X196919674Y-96610552D01*
X196919674Y-96610552D02*
X197014912Y-96658171D01*
X197491103Y-97277219D02*
X197491103Y-96277219D01*
X197919674Y-97277219D02*
X197919674Y-96753409D01*
X197919674Y-96753409D02*
X197872055Y-96658171D01*
X197872055Y-96658171D02*
X197776817Y-96610552D01*
X197776817Y-96610552D02*
X197633960Y-96610552D01*
X197633960Y-96610552D02*
X197538722Y-96658171D01*
X197538722Y-96658171D02*
X197491103Y-96705790D01*
X199967294Y-97277219D02*
X199919675Y-97277219D01*
X199919675Y-97277219D02*
X199824436Y-97229600D01*
X199824436Y-97229600D02*
X199681579Y-97086742D01*
X199681579Y-97086742D02*
X199443484Y-96801028D01*
X199443484Y-96801028D02*
X199348246Y-96658171D01*
X199348246Y-96658171D02*
X199300627Y-96515314D01*
X199300627Y-96515314D02*
X199300627Y-96420076D01*
X199300627Y-96420076D02*
X199348246Y-96324838D01*
X199348246Y-96324838D02*
X199443484Y-96277219D01*
X199443484Y-96277219D02*
X199491103Y-96277219D01*
X199491103Y-96277219D02*
X199586341Y-96324838D01*
X199586341Y-96324838D02*
X199633960Y-96420076D01*
X199633960Y-96420076D02*
X199633960Y-96467695D01*
X199633960Y-96467695D02*
X199586341Y-96562933D01*
X199586341Y-96562933D02*
X199538722Y-96610552D01*
X199538722Y-96610552D02*
X199253008Y-96801028D01*
X199253008Y-96801028D02*
X199205389Y-96848647D01*
X199205389Y-96848647D02*
X199157770Y-96943885D01*
X199157770Y-96943885D02*
X199157770Y-97086742D01*
X199157770Y-97086742D02*
X199205389Y-97181980D01*
X199205389Y-97181980D02*
X199253008Y-97229600D01*
X199253008Y-97229600D02*
X199348246Y-97277219D01*
X199348246Y-97277219D02*
X199491103Y-97277219D01*
X199491103Y-97277219D02*
X199586341Y-97229600D01*
X199586341Y-97229600D02*
X199633960Y-97181980D01*
X199633960Y-97181980D02*
X199776817Y-96991504D01*
X199776817Y-96991504D02*
X199824436Y-96848647D01*
X199824436Y-96848647D02*
X199824436Y-96753409D01*
X201110151Y-96991504D02*
X201586341Y-96991504D01*
X201014913Y-97277219D02*
X201348246Y-96277219D01*
X201348246Y-96277219D02*
X201681579Y-97277219D01*
X202014913Y-97277219D02*
X202014913Y-96610552D01*
X202014913Y-96801028D02*
X202062532Y-96705790D01*
X202062532Y-96705790D02*
X202110151Y-96658171D01*
X202110151Y-96658171D02*
X202205389Y-96610552D01*
X202205389Y-96610552D02*
X202300627Y-96610552D01*
X202776818Y-97277219D02*
X202681580Y-97229600D01*
X202681580Y-97229600D02*
X202633961Y-97181980D01*
X202633961Y-97181980D02*
X202586342Y-97086742D01*
X202586342Y-97086742D02*
X202586342Y-96801028D01*
X202586342Y-96801028D02*
X202633961Y-96705790D01*
X202633961Y-96705790D02*
X202681580Y-96658171D01*
X202681580Y-96658171D02*
X202776818Y-96610552D01*
X202776818Y-96610552D02*
X202919675Y-96610552D01*
X202919675Y-96610552D02*
X203014913Y-96658171D01*
X203014913Y-96658171D02*
X203062532Y-96705790D01*
X203062532Y-96705790D02*
X203110151Y-96801028D01*
X203110151Y-96801028D02*
X203110151Y-97086742D01*
X203110151Y-97086742D02*
X203062532Y-97181980D01*
X203062532Y-97181980D02*
X203014913Y-97229600D01*
X203014913Y-97229600D02*
X202919675Y-97277219D01*
X202919675Y-97277219D02*
X202776818Y-97277219D01*
X203491104Y-97229600D02*
X203586342Y-97277219D01*
X203586342Y-97277219D02*
X203776818Y-97277219D01*
X203776818Y-97277219D02*
X203872056Y-97229600D01*
X203872056Y-97229600D02*
X203919675Y-97134361D01*
X203919675Y-97134361D02*
X203919675Y-97086742D01*
X203919675Y-97086742D02*
X203872056Y-96991504D01*
X203872056Y-96991504D02*
X203776818Y-96943885D01*
X203776818Y-96943885D02*
X203633961Y-96943885D01*
X203633961Y-96943885D02*
X203538723Y-96896266D01*
X203538723Y-96896266D02*
X203491104Y-96801028D01*
X203491104Y-96801028D02*
X203491104Y-96753409D01*
X203491104Y-96753409D02*
X203538723Y-96658171D01*
X203538723Y-96658171D02*
X203633961Y-96610552D01*
X203633961Y-96610552D02*
X203776818Y-96610552D01*
X203776818Y-96610552D02*
X203872056Y-96658171D01*
X204348247Y-97277219D02*
X204348247Y-96277219D01*
X204776818Y-97277219D02*
X204776818Y-96753409D01*
X204776818Y-96753409D02*
X204729199Y-96658171D01*
X204729199Y-96658171D02*
X204633961Y-96610552D01*
X204633961Y-96610552D02*
X204491104Y-96610552D01*
X204491104Y-96610552D02*
X204395866Y-96658171D01*
X204395866Y-96658171D02*
X204348247Y-96705790D01*
X205253009Y-97277219D02*
X205253009Y-96610552D01*
X205253009Y-96277219D02*
X205205390Y-96324838D01*
X205205390Y-96324838D02*
X205253009Y-96372457D01*
X205253009Y-96372457D02*
X205300628Y-96324838D01*
X205300628Y-96324838D02*
X205253009Y-96277219D01*
X205253009Y-96277219D02*
X205253009Y-96372457D01*
X205681580Y-97229600D02*
X205776818Y-97277219D01*
X205776818Y-97277219D02*
X205967294Y-97277219D01*
X205967294Y-97277219D02*
X206062532Y-97229600D01*
X206062532Y-97229600D02*
X206110151Y-97134361D01*
X206110151Y-97134361D02*
X206110151Y-97086742D01*
X206110151Y-97086742D02*
X206062532Y-96991504D01*
X206062532Y-96991504D02*
X205967294Y-96943885D01*
X205967294Y-96943885D02*
X205824437Y-96943885D01*
X205824437Y-96943885D02*
X205729199Y-96896266D01*
X205729199Y-96896266D02*
X205681580Y-96801028D01*
X205681580Y-96801028D02*
X205681580Y-96753409D01*
X205681580Y-96753409D02*
X205729199Y-96658171D01*
X205729199Y-96658171D02*
X205824437Y-96610552D01*
X205824437Y-96610552D02*
X205967294Y-96610552D01*
X205967294Y-96610552D02*
X206062532Y-96658171D01*
X206538723Y-97277219D02*
X206538723Y-96277219D01*
X206967294Y-97277219D02*
X206967294Y-96753409D01*
X206967294Y-96753409D02*
X206919675Y-96658171D01*
X206919675Y-96658171D02*
X206824437Y-96610552D01*
X206824437Y-96610552D02*
X206681580Y-96610552D01*
X206681580Y-96610552D02*
X206586342Y-96658171D01*
X206586342Y-96658171D02*
X206538723Y-96705790D01*
D11*
X129897143Y-67797614D02*
X129882857Y-67811900D01*
X129882857Y-67811900D02*
X129840000Y-67826185D01*
X129840000Y-67826185D02*
X129811428Y-67826185D01*
X129811428Y-67826185D02*
X129768571Y-67811900D01*
X129768571Y-67811900D02*
X129740000Y-67783328D01*
X129740000Y-67783328D02*
X129725714Y-67754757D01*
X129725714Y-67754757D02*
X129711428Y-67697614D01*
X129711428Y-67697614D02*
X129711428Y-67654757D01*
X129711428Y-67654757D02*
X129725714Y-67597614D01*
X129725714Y-67597614D02*
X129740000Y-67569042D01*
X129740000Y-67569042D02*
X129768571Y-67540471D01*
X129768571Y-67540471D02*
X129811428Y-67526185D01*
X129811428Y-67526185D02*
X129840000Y-67526185D01*
X129840000Y-67526185D02*
X129882857Y-67540471D01*
X129882857Y-67540471D02*
X129897143Y-67554757D01*
X130182857Y-67826185D02*
X130011428Y-67826185D01*
X130097143Y-67826185D02*
X130097143Y-67526185D01*
X130097143Y-67526185D02*
X130068571Y-67569042D01*
X130068571Y-67569042D02*
X130040000Y-67597614D01*
X130040000Y-67597614D02*
X130011428Y-67611900D01*
X130282857Y-67526185D02*
X130482857Y-67526185D01*
X130482857Y-67526185D02*
X130354285Y-67826185D01*
X193707614Y-66994856D02*
X193721900Y-67009142D01*
X193721900Y-67009142D02*
X193736185Y-67051999D01*
X193736185Y-67051999D02*
X193736185Y-67080571D01*
X193736185Y-67080571D02*
X193721900Y-67123428D01*
X193721900Y-67123428D02*
X193693328Y-67151999D01*
X193693328Y-67151999D02*
X193664757Y-67166285D01*
X193664757Y-67166285D02*
X193607614Y-67180571D01*
X193607614Y-67180571D02*
X193564757Y-67180571D01*
X193564757Y-67180571D02*
X193507614Y-67166285D01*
X193507614Y-67166285D02*
X193479042Y-67151999D01*
X193479042Y-67151999D02*
X193450471Y-67123428D01*
X193450471Y-67123428D02*
X193436185Y-67080571D01*
X193436185Y-67080571D02*
X193436185Y-67051999D01*
X193436185Y-67051999D02*
X193450471Y-67009142D01*
X193450471Y-67009142D02*
X193464757Y-66994856D01*
X193736185Y-66709142D02*
X193736185Y-66880571D01*
X193736185Y-66794856D02*
X193436185Y-66794856D01*
X193436185Y-66794856D02*
X193479042Y-66823428D01*
X193479042Y-66823428D02*
X193507614Y-66851999D01*
X193507614Y-66851999D02*
X193521900Y-66880571D01*
X193436185Y-66437714D02*
X193436185Y-66580571D01*
X193436185Y-66580571D02*
X193579042Y-66594857D01*
X193579042Y-66594857D02*
X193564757Y-66580571D01*
X193564757Y-66580571D02*
X193550471Y-66552000D01*
X193550471Y-66552000D02*
X193550471Y-66480571D01*
X193550471Y-66480571D02*
X193564757Y-66452000D01*
X193564757Y-66452000D02*
X193579042Y-66437714D01*
X193579042Y-66437714D02*
X193607614Y-66423428D01*
X193607614Y-66423428D02*
X193679042Y-66423428D01*
X193679042Y-66423428D02*
X193707614Y-66437714D01*
X193707614Y-66437714D02*
X193721900Y-66452000D01*
X193721900Y-66452000D02*
X193736185Y-66480571D01*
X193736185Y-66480571D02*
X193736185Y-66552000D01*
X193736185Y-66552000D02*
X193721900Y-66580571D01*
X193721900Y-66580571D02*
X193707614Y-66594857D01*
X185196185Y-64522856D02*
X185053328Y-64622856D01*
X185196185Y-64694285D02*
X184896185Y-64694285D01*
X184896185Y-64694285D02*
X184896185Y-64579999D01*
X184896185Y-64579999D02*
X184910471Y-64551428D01*
X184910471Y-64551428D02*
X184924757Y-64537142D01*
X184924757Y-64537142D02*
X184953328Y-64522856D01*
X184953328Y-64522856D02*
X184996185Y-64522856D01*
X184996185Y-64522856D02*
X185024757Y-64537142D01*
X185024757Y-64537142D02*
X185039042Y-64551428D01*
X185039042Y-64551428D02*
X185053328Y-64579999D01*
X185053328Y-64579999D02*
X185053328Y-64694285D01*
X185196185Y-64237142D02*
X185196185Y-64408571D01*
X185196185Y-64322856D02*
X184896185Y-64322856D01*
X184896185Y-64322856D02*
X184939042Y-64351428D01*
X184939042Y-64351428D02*
X184967614Y-64379999D01*
X184967614Y-64379999D02*
X184981900Y-64408571D01*
X185024757Y-64065714D02*
X185010471Y-64094285D01*
X185010471Y-64094285D02*
X184996185Y-64108571D01*
X184996185Y-64108571D02*
X184967614Y-64122857D01*
X184967614Y-64122857D02*
X184953328Y-64122857D01*
X184953328Y-64122857D02*
X184924757Y-64108571D01*
X184924757Y-64108571D02*
X184910471Y-64094285D01*
X184910471Y-64094285D02*
X184896185Y-64065714D01*
X184896185Y-64065714D02*
X184896185Y-64008571D01*
X184896185Y-64008571D02*
X184910471Y-63980000D01*
X184910471Y-63980000D02*
X184924757Y-63965714D01*
X184924757Y-63965714D02*
X184953328Y-63951428D01*
X184953328Y-63951428D02*
X184967614Y-63951428D01*
X184967614Y-63951428D02*
X184996185Y-63965714D01*
X184996185Y-63965714D02*
X185010471Y-63980000D01*
X185010471Y-63980000D02*
X185024757Y-64008571D01*
X185024757Y-64008571D02*
X185024757Y-64065714D01*
X185024757Y-64065714D02*
X185039042Y-64094285D01*
X185039042Y-64094285D02*
X185053328Y-64108571D01*
X185053328Y-64108571D02*
X185081900Y-64122857D01*
X185081900Y-64122857D02*
X185139042Y-64122857D01*
X185139042Y-64122857D02*
X185167614Y-64108571D01*
X185167614Y-64108571D02*
X185181900Y-64094285D01*
X185181900Y-64094285D02*
X185196185Y-64065714D01*
X185196185Y-64065714D02*
X185196185Y-64008571D01*
X185196185Y-64008571D02*
X185181900Y-63980000D01*
X185181900Y-63980000D02*
X185167614Y-63965714D01*
X185167614Y-63965714D02*
X185139042Y-63951428D01*
X185139042Y-63951428D02*
X185081900Y-63951428D01*
X185081900Y-63951428D02*
X185053328Y-63965714D01*
X185053328Y-63965714D02*
X185039042Y-63980000D01*
X185039042Y-63980000D02*
X185024757Y-64008571D01*
X145557614Y-66312856D02*
X145571900Y-66327142D01*
X145571900Y-66327142D02*
X145586185Y-66369999D01*
X145586185Y-66369999D02*
X145586185Y-66398571D01*
X145586185Y-66398571D02*
X145571900Y-66441428D01*
X145571900Y-66441428D02*
X145543328Y-66469999D01*
X145543328Y-66469999D02*
X145514757Y-66484285D01*
X145514757Y-66484285D02*
X145457614Y-66498571D01*
X145457614Y-66498571D02*
X145414757Y-66498571D01*
X145414757Y-66498571D02*
X145357614Y-66484285D01*
X145357614Y-66484285D02*
X145329042Y-66469999D01*
X145329042Y-66469999D02*
X145300471Y-66441428D01*
X145300471Y-66441428D02*
X145286185Y-66398571D01*
X145286185Y-66398571D02*
X145286185Y-66369999D01*
X145286185Y-66369999D02*
X145300471Y-66327142D01*
X145300471Y-66327142D02*
X145314757Y-66312856D01*
X145586185Y-66027142D02*
X145586185Y-66198571D01*
X145586185Y-66112856D02*
X145286185Y-66112856D01*
X145286185Y-66112856D02*
X145329042Y-66141428D01*
X145329042Y-66141428D02*
X145357614Y-66169999D01*
X145357614Y-66169999D02*
X145371900Y-66198571D01*
X145586185Y-65884285D02*
X145586185Y-65827142D01*
X145586185Y-65827142D02*
X145571900Y-65798571D01*
X145571900Y-65798571D02*
X145557614Y-65784285D01*
X145557614Y-65784285D02*
X145514757Y-65755714D01*
X145514757Y-65755714D02*
X145457614Y-65741428D01*
X145457614Y-65741428D02*
X145343328Y-65741428D01*
X145343328Y-65741428D02*
X145314757Y-65755714D01*
X145314757Y-65755714D02*
X145300471Y-65770000D01*
X145300471Y-65770000D02*
X145286185Y-65798571D01*
X145286185Y-65798571D02*
X145286185Y-65855714D01*
X145286185Y-65855714D02*
X145300471Y-65884285D01*
X145300471Y-65884285D02*
X145314757Y-65898571D01*
X145314757Y-65898571D02*
X145343328Y-65912857D01*
X145343328Y-65912857D02*
X145414757Y-65912857D01*
X145414757Y-65912857D02*
X145443328Y-65898571D01*
X145443328Y-65898571D02*
X145457614Y-65884285D01*
X145457614Y-65884285D02*
X145471900Y-65855714D01*
X145471900Y-65855714D02*
X145471900Y-65798571D01*
X145471900Y-65798571D02*
X145457614Y-65770000D01*
X145457614Y-65770000D02*
X145443328Y-65755714D01*
X145443328Y-65755714D02*
X145414757Y-65741428D01*
X140928571Y-65236185D02*
X140928571Y-64936185D01*
X140928571Y-64936185D02*
X141000000Y-64936185D01*
X141000000Y-64936185D02*
X141042857Y-64950471D01*
X141042857Y-64950471D02*
X141071428Y-64979042D01*
X141071428Y-64979042D02*
X141085714Y-65007614D01*
X141085714Y-65007614D02*
X141100000Y-65064757D01*
X141100000Y-65064757D02*
X141100000Y-65107614D01*
X141100000Y-65107614D02*
X141085714Y-65164757D01*
X141085714Y-65164757D02*
X141071428Y-65193328D01*
X141071428Y-65193328D02*
X141042857Y-65221900D01*
X141042857Y-65221900D02*
X141000000Y-65236185D01*
X141000000Y-65236185D02*
X140928571Y-65236185D01*
X141200000Y-64936185D02*
X141385714Y-64936185D01*
X141385714Y-64936185D02*
X141285714Y-65050471D01*
X141285714Y-65050471D02*
X141328571Y-65050471D01*
X141328571Y-65050471D02*
X141357143Y-65064757D01*
X141357143Y-65064757D02*
X141371428Y-65079042D01*
X141371428Y-65079042D02*
X141385714Y-65107614D01*
X141385714Y-65107614D02*
X141385714Y-65179042D01*
X141385714Y-65179042D02*
X141371428Y-65207614D01*
X141371428Y-65207614D02*
X141357143Y-65221900D01*
X141357143Y-65221900D02*
X141328571Y-65236185D01*
X141328571Y-65236185D02*
X141242857Y-65236185D01*
X141242857Y-65236185D02*
X141214285Y-65221900D01*
X141214285Y-65221900D02*
X141200000Y-65207614D01*
X130426185Y-71358571D02*
X130669042Y-71358571D01*
X130669042Y-71358571D02*
X130697614Y-71344285D01*
X130697614Y-71344285D02*
X130711900Y-71330000D01*
X130711900Y-71330000D02*
X130726185Y-71301428D01*
X130726185Y-71301428D02*
X130726185Y-71244285D01*
X130726185Y-71244285D02*
X130711900Y-71215714D01*
X130711900Y-71215714D02*
X130697614Y-71201428D01*
X130697614Y-71201428D02*
X130669042Y-71187142D01*
X130669042Y-71187142D02*
X130426185Y-71187142D01*
X130554757Y-71001428D02*
X130540471Y-71029999D01*
X130540471Y-71029999D02*
X130526185Y-71044285D01*
X130526185Y-71044285D02*
X130497614Y-71058571D01*
X130497614Y-71058571D02*
X130483328Y-71058571D01*
X130483328Y-71058571D02*
X130454757Y-71044285D01*
X130454757Y-71044285D02*
X130440471Y-71029999D01*
X130440471Y-71029999D02*
X130426185Y-71001428D01*
X130426185Y-71001428D02*
X130426185Y-70944285D01*
X130426185Y-70944285D02*
X130440471Y-70915714D01*
X130440471Y-70915714D02*
X130454757Y-70901428D01*
X130454757Y-70901428D02*
X130483328Y-70887142D01*
X130483328Y-70887142D02*
X130497614Y-70887142D01*
X130497614Y-70887142D02*
X130526185Y-70901428D01*
X130526185Y-70901428D02*
X130540471Y-70915714D01*
X130540471Y-70915714D02*
X130554757Y-70944285D01*
X130554757Y-70944285D02*
X130554757Y-71001428D01*
X130554757Y-71001428D02*
X130569042Y-71029999D01*
X130569042Y-71029999D02*
X130583328Y-71044285D01*
X130583328Y-71044285D02*
X130611900Y-71058571D01*
X130611900Y-71058571D02*
X130669042Y-71058571D01*
X130669042Y-71058571D02*
X130697614Y-71044285D01*
X130697614Y-71044285D02*
X130711900Y-71029999D01*
X130711900Y-71029999D02*
X130726185Y-71001428D01*
X130726185Y-71001428D02*
X130726185Y-70944285D01*
X130726185Y-70944285D02*
X130711900Y-70915714D01*
X130711900Y-70915714D02*
X130697614Y-70901428D01*
X130697614Y-70901428D02*
X130669042Y-70887142D01*
X130669042Y-70887142D02*
X130611900Y-70887142D01*
X130611900Y-70887142D02*
X130583328Y-70901428D01*
X130583328Y-70901428D02*
X130569042Y-70915714D01*
X130569042Y-70915714D02*
X130554757Y-70944285D01*
X198064286Y-60939042D02*
X198107143Y-60953328D01*
X198107143Y-60953328D02*
X198121429Y-60967614D01*
X198121429Y-60967614D02*
X198135715Y-60996185D01*
X198135715Y-60996185D02*
X198135715Y-61039042D01*
X198135715Y-61039042D02*
X198121429Y-61067614D01*
X198121429Y-61067614D02*
X198107143Y-61081900D01*
X198107143Y-61081900D02*
X198078572Y-61096185D01*
X198078572Y-61096185D02*
X197964286Y-61096185D01*
X197964286Y-61096185D02*
X197964286Y-60796185D01*
X197964286Y-60796185D02*
X198064286Y-60796185D01*
X198064286Y-60796185D02*
X198092858Y-60810471D01*
X198092858Y-60810471D02*
X198107143Y-60824757D01*
X198107143Y-60824757D02*
X198121429Y-60853328D01*
X198121429Y-60853328D02*
X198121429Y-60881900D01*
X198121429Y-60881900D02*
X198107143Y-60910471D01*
X198107143Y-60910471D02*
X198092858Y-60924757D01*
X198092858Y-60924757D02*
X198064286Y-60939042D01*
X198064286Y-60939042D02*
X197964286Y-60939042D01*
X198221429Y-60796185D02*
X198392858Y-60796185D01*
X198307143Y-61096185D02*
X198307143Y-60796185D01*
X198478571Y-60824757D02*
X198492857Y-60810471D01*
X198492857Y-60810471D02*
X198521429Y-60796185D01*
X198521429Y-60796185D02*
X198592857Y-60796185D01*
X198592857Y-60796185D02*
X198621429Y-60810471D01*
X198621429Y-60810471D02*
X198635714Y-60824757D01*
X198635714Y-60824757D02*
X198650000Y-60853328D01*
X198650000Y-60853328D02*
X198650000Y-60881900D01*
X198650000Y-60881900D02*
X198635714Y-60924757D01*
X198635714Y-60924757D02*
X198464286Y-61096185D01*
X198464286Y-61096185D02*
X198650000Y-61096185D01*
X128647143Y-81876185D02*
X128547143Y-81733328D01*
X128475714Y-81876185D02*
X128475714Y-81576185D01*
X128475714Y-81576185D02*
X128590000Y-81576185D01*
X128590000Y-81576185D02*
X128618571Y-81590471D01*
X128618571Y-81590471D02*
X128632857Y-81604757D01*
X128632857Y-81604757D02*
X128647143Y-81633328D01*
X128647143Y-81633328D02*
X128647143Y-81676185D01*
X128647143Y-81676185D02*
X128632857Y-81704757D01*
X128632857Y-81704757D02*
X128618571Y-81719042D01*
X128618571Y-81719042D02*
X128590000Y-81733328D01*
X128590000Y-81733328D02*
X128475714Y-81733328D01*
X128761428Y-81604757D02*
X128775714Y-81590471D01*
X128775714Y-81590471D02*
X128804286Y-81576185D01*
X128804286Y-81576185D02*
X128875714Y-81576185D01*
X128875714Y-81576185D02*
X128904286Y-81590471D01*
X128904286Y-81590471D02*
X128918571Y-81604757D01*
X128918571Y-81604757D02*
X128932857Y-81633328D01*
X128932857Y-81633328D02*
X128932857Y-81661900D01*
X128932857Y-81661900D02*
X128918571Y-81704757D01*
X128918571Y-81704757D02*
X128747143Y-81876185D01*
X128747143Y-81876185D02*
X128932857Y-81876185D01*
X129218571Y-81876185D02*
X129047142Y-81876185D01*
X129132857Y-81876185D02*
X129132857Y-81576185D01*
X129132857Y-81576185D02*
X129104285Y-81619042D01*
X129104285Y-81619042D02*
X129075714Y-81647614D01*
X129075714Y-81647614D02*
X129047142Y-81661900D01*
X136738571Y-65296185D02*
X136738571Y-64996185D01*
X136738571Y-64996185D02*
X136810000Y-64996185D01*
X136810000Y-64996185D02*
X136852857Y-65010471D01*
X136852857Y-65010471D02*
X136881428Y-65039042D01*
X136881428Y-65039042D02*
X136895714Y-65067614D01*
X136895714Y-65067614D02*
X136910000Y-65124757D01*
X136910000Y-65124757D02*
X136910000Y-65167614D01*
X136910000Y-65167614D02*
X136895714Y-65224757D01*
X136895714Y-65224757D02*
X136881428Y-65253328D01*
X136881428Y-65253328D02*
X136852857Y-65281900D01*
X136852857Y-65281900D02*
X136810000Y-65296185D01*
X136810000Y-65296185D02*
X136738571Y-65296185D01*
X137181428Y-64996185D02*
X137038571Y-64996185D01*
X137038571Y-64996185D02*
X137024285Y-65139042D01*
X137024285Y-65139042D02*
X137038571Y-65124757D01*
X137038571Y-65124757D02*
X137067143Y-65110471D01*
X137067143Y-65110471D02*
X137138571Y-65110471D01*
X137138571Y-65110471D02*
X137167143Y-65124757D01*
X137167143Y-65124757D02*
X137181428Y-65139042D01*
X137181428Y-65139042D02*
X137195714Y-65167614D01*
X137195714Y-65167614D02*
X137195714Y-65239042D01*
X137195714Y-65239042D02*
X137181428Y-65267614D01*
X137181428Y-65267614D02*
X137167143Y-65281900D01*
X137167143Y-65281900D02*
X137138571Y-65296185D01*
X137138571Y-65296185D02*
X137067143Y-65296185D01*
X137067143Y-65296185D02*
X137038571Y-65281900D01*
X137038571Y-65281900D02*
X137024285Y-65267614D01*
X120157143Y-84596185D02*
X120057143Y-84453328D01*
X119985714Y-84596185D02*
X119985714Y-84296185D01*
X119985714Y-84296185D02*
X120100000Y-84296185D01*
X120100000Y-84296185D02*
X120128571Y-84310471D01*
X120128571Y-84310471D02*
X120142857Y-84324757D01*
X120142857Y-84324757D02*
X120157143Y-84353328D01*
X120157143Y-84353328D02*
X120157143Y-84396185D01*
X120157143Y-84396185D02*
X120142857Y-84424757D01*
X120142857Y-84424757D02*
X120128571Y-84439042D01*
X120128571Y-84439042D02*
X120100000Y-84453328D01*
X120100000Y-84453328D02*
X119985714Y-84453328D01*
X120271428Y-84324757D02*
X120285714Y-84310471D01*
X120285714Y-84310471D02*
X120314286Y-84296185D01*
X120314286Y-84296185D02*
X120385714Y-84296185D01*
X120385714Y-84296185D02*
X120414286Y-84310471D01*
X120414286Y-84310471D02*
X120428571Y-84324757D01*
X120428571Y-84324757D02*
X120442857Y-84353328D01*
X120442857Y-84353328D02*
X120442857Y-84381900D01*
X120442857Y-84381900D02*
X120428571Y-84424757D01*
X120428571Y-84424757D02*
X120257143Y-84596185D01*
X120257143Y-84596185D02*
X120442857Y-84596185D01*
X120542857Y-84296185D02*
X120728571Y-84296185D01*
X120728571Y-84296185D02*
X120628571Y-84410471D01*
X120628571Y-84410471D02*
X120671428Y-84410471D01*
X120671428Y-84410471D02*
X120700000Y-84424757D01*
X120700000Y-84424757D02*
X120714285Y-84439042D01*
X120714285Y-84439042D02*
X120728571Y-84467614D01*
X120728571Y-84467614D02*
X120728571Y-84539042D01*
X120728571Y-84539042D02*
X120714285Y-84567614D01*
X120714285Y-84567614D02*
X120700000Y-84581900D01*
X120700000Y-84581900D02*
X120671428Y-84596185D01*
X120671428Y-84596185D02*
X120585714Y-84596185D01*
X120585714Y-84596185D02*
X120557142Y-84581900D01*
X120557142Y-84581900D02*
X120542857Y-84567614D01*
X129587143Y-66487614D02*
X129572857Y-66501900D01*
X129572857Y-66501900D02*
X129530000Y-66516185D01*
X129530000Y-66516185D02*
X129501428Y-66516185D01*
X129501428Y-66516185D02*
X129458571Y-66501900D01*
X129458571Y-66501900D02*
X129430000Y-66473328D01*
X129430000Y-66473328D02*
X129415714Y-66444757D01*
X129415714Y-66444757D02*
X129401428Y-66387614D01*
X129401428Y-66387614D02*
X129401428Y-66344757D01*
X129401428Y-66344757D02*
X129415714Y-66287614D01*
X129415714Y-66287614D02*
X129430000Y-66259042D01*
X129430000Y-66259042D02*
X129458571Y-66230471D01*
X129458571Y-66230471D02*
X129501428Y-66216185D01*
X129501428Y-66216185D02*
X129530000Y-66216185D01*
X129530000Y-66216185D02*
X129572857Y-66230471D01*
X129572857Y-66230471D02*
X129587143Y-66244757D01*
X129872857Y-66516185D02*
X129701428Y-66516185D01*
X129787143Y-66516185D02*
X129787143Y-66216185D01*
X129787143Y-66216185D02*
X129758571Y-66259042D01*
X129758571Y-66259042D02*
X129730000Y-66287614D01*
X129730000Y-66287614D02*
X129701428Y-66301900D01*
X130130000Y-66216185D02*
X130072857Y-66216185D01*
X130072857Y-66216185D02*
X130044285Y-66230471D01*
X130044285Y-66230471D02*
X130030000Y-66244757D01*
X130030000Y-66244757D02*
X130001428Y-66287614D01*
X130001428Y-66287614D02*
X129987142Y-66344757D01*
X129987142Y-66344757D02*
X129987142Y-66459042D01*
X129987142Y-66459042D02*
X130001428Y-66487614D01*
X130001428Y-66487614D02*
X130015714Y-66501900D01*
X130015714Y-66501900D02*
X130044285Y-66516185D01*
X130044285Y-66516185D02*
X130101428Y-66516185D01*
X130101428Y-66516185D02*
X130130000Y-66501900D01*
X130130000Y-66501900D02*
X130144285Y-66487614D01*
X130144285Y-66487614D02*
X130158571Y-66459042D01*
X130158571Y-66459042D02*
X130158571Y-66387614D01*
X130158571Y-66387614D02*
X130144285Y-66359042D01*
X130144285Y-66359042D02*
X130130000Y-66344757D01*
X130130000Y-66344757D02*
X130101428Y-66330471D01*
X130101428Y-66330471D02*
X130044285Y-66330471D01*
X130044285Y-66330471D02*
X130015714Y-66344757D01*
X130015714Y-66344757D02*
X130001428Y-66359042D01*
X130001428Y-66359042D02*
X129987142Y-66387614D01*
X135363250Y-93268685D02*
X135363250Y-93482971D01*
X135363250Y-93482971D02*
X135348965Y-93525828D01*
X135348965Y-93525828D02*
X135320393Y-93554400D01*
X135320393Y-93554400D02*
X135277536Y-93568685D01*
X135277536Y-93568685D02*
X135248965Y-93568685D01*
X135648964Y-93268685D02*
X135506107Y-93268685D01*
X135506107Y-93268685D02*
X135491821Y-93411542D01*
X135491821Y-93411542D02*
X135506107Y-93397257D01*
X135506107Y-93397257D02*
X135534679Y-93382971D01*
X135534679Y-93382971D02*
X135606107Y-93382971D01*
X135606107Y-93382971D02*
X135634679Y-93397257D01*
X135634679Y-93397257D02*
X135648964Y-93411542D01*
X135648964Y-93411542D02*
X135663250Y-93440114D01*
X135663250Y-93440114D02*
X135663250Y-93511542D01*
X135663250Y-93511542D02*
X135648964Y-93540114D01*
X135648964Y-93540114D02*
X135634679Y-93554400D01*
X135634679Y-93554400D02*
X135606107Y-93568685D01*
X135606107Y-93568685D02*
X135534679Y-93568685D01*
X135534679Y-93568685D02*
X135506107Y-93554400D01*
X135506107Y-93554400D02*
X135491821Y-93540114D01*
X176731428Y-57796185D02*
X176731428Y-58039042D01*
X176731428Y-58039042D02*
X176745714Y-58067614D01*
X176745714Y-58067614D02*
X176760000Y-58081900D01*
X176760000Y-58081900D02*
X176788571Y-58096185D01*
X176788571Y-58096185D02*
X176845714Y-58096185D01*
X176845714Y-58096185D02*
X176874285Y-58081900D01*
X176874285Y-58081900D02*
X176888571Y-58067614D01*
X176888571Y-58067614D02*
X176902857Y-58039042D01*
X176902857Y-58039042D02*
X176902857Y-57796185D01*
X177188571Y-57796185D02*
X177045714Y-57796185D01*
X177045714Y-57796185D02*
X177031428Y-57939042D01*
X177031428Y-57939042D02*
X177045714Y-57924757D01*
X177045714Y-57924757D02*
X177074286Y-57910471D01*
X177074286Y-57910471D02*
X177145714Y-57910471D01*
X177145714Y-57910471D02*
X177174286Y-57924757D01*
X177174286Y-57924757D02*
X177188571Y-57939042D01*
X177188571Y-57939042D02*
X177202857Y-57967614D01*
X177202857Y-57967614D02*
X177202857Y-58039042D01*
X177202857Y-58039042D02*
X177188571Y-58067614D01*
X177188571Y-58067614D02*
X177174286Y-58081900D01*
X177174286Y-58081900D02*
X177145714Y-58096185D01*
X177145714Y-58096185D02*
X177074286Y-58096185D01*
X177074286Y-58096185D02*
X177045714Y-58081900D01*
X177045714Y-58081900D02*
X177031428Y-58067614D01*
X120727143Y-74086185D02*
X120627143Y-73943328D01*
X120555714Y-74086185D02*
X120555714Y-73786185D01*
X120555714Y-73786185D02*
X120670000Y-73786185D01*
X120670000Y-73786185D02*
X120698571Y-73800471D01*
X120698571Y-73800471D02*
X120712857Y-73814757D01*
X120712857Y-73814757D02*
X120727143Y-73843328D01*
X120727143Y-73843328D02*
X120727143Y-73886185D01*
X120727143Y-73886185D02*
X120712857Y-73914757D01*
X120712857Y-73914757D02*
X120698571Y-73929042D01*
X120698571Y-73929042D02*
X120670000Y-73943328D01*
X120670000Y-73943328D02*
X120555714Y-73943328D01*
X120841428Y-73814757D02*
X120855714Y-73800471D01*
X120855714Y-73800471D02*
X120884286Y-73786185D01*
X120884286Y-73786185D02*
X120955714Y-73786185D01*
X120955714Y-73786185D02*
X120984286Y-73800471D01*
X120984286Y-73800471D02*
X120998571Y-73814757D01*
X120998571Y-73814757D02*
X121012857Y-73843328D01*
X121012857Y-73843328D02*
X121012857Y-73871900D01*
X121012857Y-73871900D02*
X120998571Y-73914757D01*
X120998571Y-73914757D02*
X120827143Y-74086185D01*
X120827143Y-74086185D02*
X121012857Y-74086185D01*
X121127142Y-73814757D02*
X121141428Y-73800471D01*
X121141428Y-73800471D02*
X121170000Y-73786185D01*
X121170000Y-73786185D02*
X121241428Y-73786185D01*
X121241428Y-73786185D02*
X121270000Y-73800471D01*
X121270000Y-73800471D02*
X121284285Y-73814757D01*
X121284285Y-73814757D02*
X121298571Y-73843328D01*
X121298571Y-73843328D02*
X121298571Y-73871900D01*
X121298571Y-73871900D02*
X121284285Y-73914757D01*
X121284285Y-73914757D02*
X121112857Y-74086185D01*
X121112857Y-74086185D02*
X121298571Y-74086185D01*
X167316185Y-62662856D02*
X167173328Y-62762856D01*
X167316185Y-62834285D02*
X167016185Y-62834285D01*
X167016185Y-62834285D02*
X167016185Y-62719999D01*
X167016185Y-62719999D02*
X167030471Y-62691428D01*
X167030471Y-62691428D02*
X167044757Y-62677142D01*
X167044757Y-62677142D02*
X167073328Y-62662856D01*
X167073328Y-62662856D02*
X167116185Y-62662856D01*
X167116185Y-62662856D02*
X167144757Y-62677142D01*
X167144757Y-62677142D02*
X167159042Y-62691428D01*
X167159042Y-62691428D02*
X167173328Y-62719999D01*
X167173328Y-62719999D02*
X167173328Y-62834285D01*
X167316185Y-62377142D02*
X167316185Y-62548571D01*
X167316185Y-62462856D02*
X167016185Y-62462856D01*
X167016185Y-62462856D02*
X167059042Y-62491428D01*
X167059042Y-62491428D02*
X167087614Y-62519999D01*
X167087614Y-62519999D02*
X167101900Y-62548571D01*
X167116185Y-62120000D02*
X167316185Y-62120000D01*
X167001900Y-62191428D02*
X167216185Y-62262857D01*
X167216185Y-62262857D02*
X167216185Y-62077142D01*
X125276185Y-62512856D02*
X125133328Y-62612856D01*
X125276185Y-62684285D02*
X124976185Y-62684285D01*
X124976185Y-62684285D02*
X124976185Y-62569999D01*
X124976185Y-62569999D02*
X124990471Y-62541428D01*
X124990471Y-62541428D02*
X125004757Y-62527142D01*
X125004757Y-62527142D02*
X125033328Y-62512856D01*
X125033328Y-62512856D02*
X125076185Y-62512856D01*
X125076185Y-62512856D02*
X125104757Y-62527142D01*
X125104757Y-62527142D02*
X125119042Y-62541428D01*
X125119042Y-62541428D02*
X125133328Y-62569999D01*
X125133328Y-62569999D02*
X125133328Y-62684285D01*
X125276185Y-62227142D02*
X125276185Y-62398571D01*
X125276185Y-62312856D02*
X124976185Y-62312856D01*
X124976185Y-62312856D02*
X125019042Y-62341428D01*
X125019042Y-62341428D02*
X125047614Y-62369999D01*
X125047614Y-62369999D02*
X125061900Y-62398571D01*
X124976185Y-62127142D02*
X124976185Y-61941428D01*
X124976185Y-61941428D02*
X125090471Y-62041428D01*
X125090471Y-62041428D02*
X125090471Y-61998571D01*
X125090471Y-61998571D02*
X125104757Y-61970000D01*
X125104757Y-61970000D02*
X125119042Y-61955714D01*
X125119042Y-61955714D02*
X125147614Y-61941428D01*
X125147614Y-61941428D02*
X125219042Y-61941428D01*
X125219042Y-61941428D02*
X125247614Y-61955714D01*
X125247614Y-61955714D02*
X125261900Y-61970000D01*
X125261900Y-61970000D02*
X125276185Y-61998571D01*
X125276185Y-61998571D02*
X125276185Y-62084285D01*
X125276185Y-62084285D02*
X125261900Y-62112857D01*
X125261900Y-62112857D02*
X125247614Y-62127142D01*
D12*
X169645014Y-74281616D02*
X169645014Y-74469092D01*
X169645014Y-74469092D02*
X169251313Y-74469092D01*
X169645014Y-73944158D02*
X169645014Y-74169130D01*
X169645014Y-74056644D02*
X169251313Y-74056644D01*
X169251313Y-74056644D02*
X169307556Y-74094139D01*
X169307556Y-74094139D02*
X169345052Y-74131635D01*
X169345052Y-74131635D02*
X169363799Y-74169130D01*
D11*
X133827143Y-74006185D02*
X133727143Y-73863328D01*
X133655714Y-74006185D02*
X133655714Y-73706185D01*
X133655714Y-73706185D02*
X133770000Y-73706185D01*
X133770000Y-73706185D02*
X133798571Y-73720471D01*
X133798571Y-73720471D02*
X133812857Y-73734757D01*
X133812857Y-73734757D02*
X133827143Y-73763328D01*
X133827143Y-73763328D02*
X133827143Y-73806185D01*
X133827143Y-73806185D02*
X133812857Y-73834757D01*
X133812857Y-73834757D02*
X133798571Y-73849042D01*
X133798571Y-73849042D02*
X133770000Y-73863328D01*
X133770000Y-73863328D02*
X133655714Y-73863328D01*
X134112857Y-74006185D02*
X133941428Y-74006185D01*
X134027143Y-74006185D02*
X134027143Y-73706185D01*
X134027143Y-73706185D02*
X133998571Y-73749042D01*
X133998571Y-73749042D02*
X133970000Y-73777614D01*
X133970000Y-73777614D02*
X133941428Y-73791900D01*
X134227142Y-73734757D02*
X134241428Y-73720471D01*
X134241428Y-73720471D02*
X134270000Y-73706185D01*
X134270000Y-73706185D02*
X134341428Y-73706185D01*
X134341428Y-73706185D02*
X134370000Y-73720471D01*
X134370000Y-73720471D02*
X134384285Y-73734757D01*
X134384285Y-73734757D02*
X134398571Y-73763328D01*
X134398571Y-73763328D02*
X134398571Y-73791900D01*
X134398571Y-73791900D02*
X134384285Y-73834757D01*
X134384285Y-73834757D02*
X134212857Y-74006185D01*
X134212857Y-74006185D02*
X134398571Y-74006185D01*
X141656185Y-62552856D02*
X141513328Y-62652856D01*
X141656185Y-62724285D02*
X141356185Y-62724285D01*
X141356185Y-62724285D02*
X141356185Y-62609999D01*
X141356185Y-62609999D02*
X141370471Y-62581428D01*
X141370471Y-62581428D02*
X141384757Y-62567142D01*
X141384757Y-62567142D02*
X141413328Y-62552856D01*
X141413328Y-62552856D02*
X141456185Y-62552856D01*
X141456185Y-62552856D02*
X141484757Y-62567142D01*
X141484757Y-62567142D02*
X141499042Y-62581428D01*
X141499042Y-62581428D02*
X141513328Y-62609999D01*
X141513328Y-62609999D02*
X141513328Y-62724285D01*
X141656185Y-62267142D02*
X141656185Y-62438571D01*
X141656185Y-62352856D02*
X141356185Y-62352856D01*
X141356185Y-62352856D02*
X141399042Y-62381428D01*
X141399042Y-62381428D02*
X141427614Y-62409999D01*
X141427614Y-62409999D02*
X141441900Y-62438571D01*
X141656185Y-61981428D02*
X141656185Y-62152857D01*
X141656185Y-62067142D02*
X141356185Y-62067142D01*
X141356185Y-62067142D02*
X141399042Y-62095714D01*
X141399042Y-62095714D02*
X141427614Y-62124285D01*
X141427614Y-62124285D02*
X141441900Y-62152857D01*
X188691428Y-69326185D02*
X188691428Y-69569042D01*
X188691428Y-69569042D02*
X188705714Y-69597614D01*
X188705714Y-69597614D02*
X188720000Y-69611900D01*
X188720000Y-69611900D02*
X188748571Y-69626185D01*
X188748571Y-69626185D02*
X188805714Y-69626185D01*
X188805714Y-69626185D02*
X188834285Y-69611900D01*
X188834285Y-69611900D02*
X188848571Y-69597614D01*
X188848571Y-69597614D02*
X188862857Y-69569042D01*
X188862857Y-69569042D02*
X188862857Y-69326185D01*
X189134286Y-69326185D02*
X189077143Y-69326185D01*
X189077143Y-69326185D02*
X189048571Y-69340471D01*
X189048571Y-69340471D02*
X189034286Y-69354757D01*
X189034286Y-69354757D02*
X189005714Y-69397614D01*
X189005714Y-69397614D02*
X188991428Y-69454757D01*
X188991428Y-69454757D02*
X188991428Y-69569042D01*
X188991428Y-69569042D02*
X189005714Y-69597614D01*
X189005714Y-69597614D02*
X189020000Y-69611900D01*
X189020000Y-69611900D02*
X189048571Y-69626185D01*
X189048571Y-69626185D02*
X189105714Y-69626185D01*
X189105714Y-69626185D02*
X189134286Y-69611900D01*
X189134286Y-69611900D02*
X189148571Y-69597614D01*
X189148571Y-69597614D02*
X189162857Y-69569042D01*
X189162857Y-69569042D02*
X189162857Y-69497614D01*
X189162857Y-69497614D02*
X189148571Y-69469042D01*
X189148571Y-69469042D02*
X189134286Y-69454757D01*
X189134286Y-69454757D02*
X189105714Y-69440471D01*
X189105714Y-69440471D02*
X189048571Y-69440471D01*
X189048571Y-69440471D02*
X189020000Y-69454757D01*
X189020000Y-69454757D02*
X189005714Y-69469042D01*
X189005714Y-69469042D02*
X188991428Y-69497614D01*
X148596185Y-77769999D02*
X148596185Y-77912856D01*
X148596185Y-77912856D02*
X148296185Y-77912856D01*
X148324757Y-77684285D02*
X148310471Y-77669999D01*
X148310471Y-77669999D02*
X148296185Y-77641428D01*
X148296185Y-77641428D02*
X148296185Y-77569999D01*
X148296185Y-77569999D02*
X148310471Y-77541428D01*
X148310471Y-77541428D02*
X148324757Y-77527142D01*
X148324757Y-77527142D02*
X148353328Y-77512856D01*
X148353328Y-77512856D02*
X148381900Y-77512856D01*
X148381900Y-77512856D02*
X148424757Y-77527142D01*
X148424757Y-77527142D02*
X148596185Y-77698570D01*
X148596185Y-77698570D02*
X148596185Y-77512856D01*
X142686185Y-68492856D02*
X142543328Y-68592856D01*
X142686185Y-68664285D02*
X142386185Y-68664285D01*
X142386185Y-68664285D02*
X142386185Y-68549999D01*
X142386185Y-68549999D02*
X142400471Y-68521428D01*
X142400471Y-68521428D02*
X142414757Y-68507142D01*
X142414757Y-68507142D02*
X142443328Y-68492856D01*
X142443328Y-68492856D02*
X142486185Y-68492856D01*
X142486185Y-68492856D02*
X142514757Y-68507142D01*
X142514757Y-68507142D02*
X142529042Y-68521428D01*
X142529042Y-68521428D02*
X142543328Y-68549999D01*
X142543328Y-68549999D02*
X142543328Y-68664285D01*
X142414757Y-68378571D02*
X142400471Y-68364285D01*
X142400471Y-68364285D02*
X142386185Y-68335714D01*
X142386185Y-68335714D02*
X142386185Y-68264285D01*
X142386185Y-68264285D02*
X142400471Y-68235714D01*
X142400471Y-68235714D02*
X142414757Y-68221428D01*
X142414757Y-68221428D02*
X142443328Y-68207142D01*
X142443328Y-68207142D02*
X142471900Y-68207142D01*
X142471900Y-68207142D02*
X142514757Y-68221428D01*
X142514757Y-68221428D02*
X142686185Y-68392856D01*
X142686185Y-68392856D02*
X142686185Y-68207142D01*
X142386185Y-67950000D02*
X142386185Y-68007142D01*
X142386185Y-68007142D02*
X142400471Y-68035714D01*
X142400471Y-68035714D02*
X142414757Y-68050000D01*
X142414757Y-68050000D02*
X142457614Y-68078571D01*
X142457614Y-68078571D02*
X142514757Y-68092857D01*
X142514757Y-68092857D02*
X142629042Y-68092857D01*
X142629042Y-68092857D02*
X142657614Y-68078571D01*
X142657614Y-68078571D02*
X142671900Y-68064285D01*
X142671900Y-68064285D02*
X142686185Y-68035714D01*
X142686185Y-68035714D02*
X142686185Y-67978571D01*
X142686185Y-67978571D02*
X142671900Y-67950000D01*
X142671900Y-67950000D02*
X142657614Y-67935714D01*
X142657614Y-67935714D02*
X142629042Y-67921428D01*
X142629042Y-67921428D02*
X142557614Y-67921428D01*
X142557614Y-67921428D02*
X142529042Y-67935714D01*
X142529042Y-67935714D02*
X142514757Y-67950000D01*
X142514757Y-67950000D02*
X142500471Y-67978571D01*
X142500471Y-67978571D02*
X142500471Y-68035714D01*
X142500471Y-68035714D02*
X142514757Y-68064285D01*
X142514757Y-68064285D02*
X142529042Y-68078571D01*
X142529042Y-68078571D02*
X142557614Y-68092857D01*
X166886185Y-66221428D02*
X166586185Y-66221428D01*
X166586185Y-66221428D02*
X166586185Y-66149999D01*
X166586185Y-66149999D02*
X166600471Y-66107142D01*
X166600471Y-66107142D02*
X166629042Y-66078571D01*
X166629042Y-66078571D02*
X166657614Y-66064285D01*
X166657614Y-66064285D02*
X166714757Y-66049999D01*
X166714757Y-66049999D02*
X166757614Y-66049999D01*
X166757614Y-66049999D02*
X166814757Y-66064285D01*
X166814757Y-66064285D02*
X166843328Y-66078571D01*
X166843328Y-66078571D02*
X166871900Y-66107142D01*
X166871900Y-66107142D02*
X166886185Y-66149999D01*
X166886185Y-66149999D02*
X166886185Y-66221428D01*
X166686185Y-65792857D02*
X166886185Y-65792857D01*
X166571900Y-65864285D02*
X166786185Y-65935714D01*
X166786185Y-65935714D02*
X166786185Y-65749999D01*
X139690000Y-76177614D02*
X139675714Y-76191900D01*
X139675714Y-76191900D02*
X139632857Y-76206185D01*
X139632857Y-76206185D02*
X139604285Y-76206185D01*
X139604285Y-76206185D02*
X139561428Y-76191900D01*
X139561428Y-76191900D02*
X139532857Y-76163328D01*
X139532857Y-76163328D02*
X139518571Y-76134757D01*
X139518571Y-76134757D02*
X139504285Y-76077614D01*
X139504285Y-76077614D02*
X139504285Y-76034757D01*
X139504285Y-76034757D02*
X139518571Y-75977614D01*
X139518571Y-75977614D02*
X139532857Y-75949042D01*
X139532857Y-75949042D02*
X139561428Y-75920471D01*
X139561428Y-75920471D02*
X139604285Y-75906185D01*
X139604285Y-75906185D02*
X139632857Y-75906185D01*
X139632857Y-75906185D02*
X139675714Y-75920471D01*
X139675714Y-75920471D02*
X139690000Y-75934757D01*
X139804285Y-75934757D02*
X139818571Y-75920471D01*
X139818571Y-75920471D02*
X139847143Y-75906185D01*
X139847143Y-75906185D02*
X139918571Y-75906185D01*
X139918571Y-75906185D02*
X139947143Y-75920471D01*
X139947143Y-75920471D02*
X139961428Y-75934757D01*
X139961428Y-75934757D02*
X139975714Y-75963328D01*
X139975714Y-75963328D02*
X139975714Y-75991900D01*
X139975714Y-75991900D02*
X139961428Y-76034757D01*
X139961428Y-76034757D02*
X139790000Y-76206185D01*
X139790000Y-76206185D02*
X139975714Y-76206185D01*
X131431428Y-79024757D02*
X131402857Y-79010471D01*
X131402857Y-79010471D02*
X131374285Y-78981900D01*
X131374285Y-78981900D02*
X131331428Y-78939042D01*
X131331428Y-78939042D02*
X131302857Y-78924757D01*
X131302857Y-78924757D02*
X131274285Y-78924757D01*
X131288571Y-78996185D02*
X131260000Y-78981900D01*
X131260000Y-78981900D02*
X131231428Y-78953328D01*
X131231428Y-78953328D02*
X131217142Y-78896185D01*
X131217142Y-78896185D02*
X131217142Y-78796185D01*
X131217142Y-78796185D02*
X131231428Y-78739042D01*
X131231428Y-78739042D02*
X131260000Y-78710471D01*
X131260000Y-78710471D02*
X131288571Y-78696185D01*
X131288571Y-78696185D02*
X131345714Y-78696185D01*
X131345714Y-78696185D02*
X131374285Y-78710471D01*
X131374285Y-78710471D02*
X131402857Y-78739042D01*
X131402857Y-78739042D02*
X131417142Y-78796185D01*
X131417142Y-78796185D02*
X131417142Y-78896185D01*
X131417142Y-78896185D02*
X131402857Y-78953328D01*
X131402857Y-78953328D02*
X131374285Y-78981900D01*
X131374285Y-78981900D02*
X131345714Y-78996185D01*
X131345714Y-78996185D02*
X131288571Y-78996185D01*
X131517143Y-78696185D02*
X131702857Y-78696185D01*
X131702857Y-78696185D02*
X131602857Y-78810471D01*
X131602857Y-78810471D02*
X131645714Y-78810471D01*
X131645714Y-78810471D02*
X131674286Y-78824757D01*
X131674286Y-78824757D02*
X131688571Y-78839042D01*
X131688571Y-78839042D02*
X131702857Y-78867614D01*
X131702857Y-78867614D02*
X131702857Y-78939042D01*
X131702857Y-78939042D02*
X131688571Y-78967614D01*
X131688571Y-78967614D02*
X131674286Y-78981900D01*
X131674286Y-78981900D02*
X131645714Y-78996185D01*
X131645714Y-78996185D02*
X131560000Y-78996185D01*
X131560000Y-78996185D02*
X131531428Y-78981900D01*
X131531428Y-78981900D02*
X131517143Y-78967614D01*
X137820000Y-68086185D02*
X137820000Y-68300471D01*
X137820000Y-68300471D02*
X137805715Y-68343328D01*
X137805715Y-68343328D02*
X137777143Y-68371900D01*
X137777143Y-68371900D02*
X137734286Y-68386185D01*
X137734286Y-68386185D02*
X137705715Y-68386185D01*
X137948571Y-68114757D02*
X137962857Y-68100471D01*
X137962857Y-68100471D02*
X137991429Y-68086185D01*
X137991429Y-68086185D02*
X138062857Y-68086185D01*
X138062857Y-68086185D02*
X138091429Y-68100471D01*
X138091429Y-68100471D02*
X138105714Y-68114757D01*
X138105714Y-68114757D02*
X138120000Y-68143328D01*
X138120000Y-68143328D02*
X138120000Y-68171900D01*
X138120000Y-68171900D02*
X138105714Y-68214757D01*
X138105714Y-68214757D02*
X137934286Y-68386185D01*
X137934286Y-68386185D02*
X138120000Y-68386185D01*
X163079528Y-73549999D02*
X163079528Y-73692857D01*
X162993814Y-73521428D02*
X163293814Y-73621428D01*
X163293814Y-73621428D02*
X162993814Y-73721428D01*
X163150957Y-73821428D02*
X163150957Y-73921428D01*
X162993814Y-73964285D02*
X162993814Y-73821428D01*
X162993814Y-73821428D02*
X163293814Y-73821428D01*
X163293814Y-73821428D02*
X163293814Y-73964285D01*
X163265242Y-74078571D02*
X163279528Y-74092857D01*
X163279528Y-74092857D02*
X163293814Y-74121429D01*
X163293814Y-74121429D02*
X163293814Y-74192857D01*
X163293814Y-74192857D02*
X163279528Y-74221429D01*
X163279528Y-74221429D02*
X163265242Y-74235714D01*
X163265242Y-74235714D02*
X163236671Y-74250000D01*
X163236671Y-74250000D02*
X163208100Y-74250000D01*
X163208100Y-74250000D02*
X163165242Y-74235714D01*
X163165242Y-74235714D02*
X162993814Y-74064286D01*
X162993814Y-74064286D02*
X162993814Y-74250000D01*
X132491428Y-58906185D02*
X132491428Y-59149042D01*
X132491428Y-59149042D02*
X132505714Y-59177614D01*
X132505714Y-59177614D02*
X132520000Y-59191900D01*
X132520000Y-59191900D02*
X132548571Y-59206185D01*
X132548571Y-59206185D02*
X132605714Y-59206185D01*
X132605714Y-59206185D02*
X132634285Y-59191900D01*
X132634285Y-59191900D02*
X132648571Y-59177614D01*
X132648571Y-59177614D02*
X132662857Y-59149042D01*
X132662857Y-59149042D02*
X132662857Y-58906185D01*
X132777143Y-58906185D02*
X132977143Y-58906185D01*
X132977143Y-58906185D02*
X132848571Y-59206185D01*
X137206185Y-63569999D02*
X137063328Y-63669999D01*
X137206185Y-63741428D02*
X136906185Y-63741428D01*
X136906185Y-63741428D02*
X136906185Y-63627142D01*
X136906185Y-63627142D02*
X136920471Y-63598571D01*
X136920471Y-63598571D02*
X136934757Y-63584285D01*
X136934757Y-63584285D02*
X136963328Y-63569999D01*
X136963328Y-63569999D02*
X137006185Y-63569999D01*
X137006185Y-63569999D02*
X137034757Y-63584285D01*
X137034757Y-63584285D02*
X137049042Y-63598571D01*
X137049042Y-63598571D02*
X137063328Y-63627142D01*
X137063328Y-63627142D02*
X137063328Y-63741428D01*
X137206185Y-63284285D02*
X137206185Y-63455714D01*
X137206185Y-63369999D02*
X136906185Y-63369999D01*
X136906185Y-63369999D02*
X136949042Y-63398571D01*
X136949042Y-63398571D02*
X136977614Y-63427142D01*
X136977614Y-63427142D02*
X136991900Y-63455714D01*
X185918571Y-56666185D02*
X185918571Y-56366185D01*
X185918571Y-56366185D02*
X185990000Y-56366185D01*
X185990000Y-56366185D02*
X186032857Y-56380471D01*
X186032857Y-56380471D02*
X186061428Y-56409042D01*
X186061428Y-56409042D02*
X186075714Y-56437614D01*
X186075714Y-56437614D02*
X186090000Y-56494757D01*
X186090000Y-56494757D02*
X186090000Y-56537614D01*
X186090000Y-56537614D02*
X186075714Y-56594757D01*
X186075714Y-56594757D02*
X186061428Y-56623328D01*
X186061428Y-56623328D02*
X186032857Y-56651900D01*
X186032857Y-56651900D02*
X185990000Y-56666185D01*
X185990000Y-56666185D02*
X185918571Y-56666185D01*
X186375714Y-56666185D02*
X186204285Y-56666185D01*
X186290000Y-56666185D02*
X186290000Y-56366185D01*
X186290000Y-56366185D02*
X186261428Y-56409042D01*
X186261428Y-56409042D02*
X186232857Y-56437614D01*
X186232857Y-56437614D02*
X186204285Y-56451900D01*
X142166185Y-70322856D02*
X142023328Y-70422856D01*
X142166185Y-70494285D02*
X141866185Y-70494285D01*
X141866185Y-70494285D02*
X141866185Y-70379999D01*
X141866185Y-70379999D02*
X141880471Y-70351428D01*
X141880471Y-70351428D02*
X141894757Y-70337142D01*
X141894757Y-70337142D02*
X141923328Y-70322856D01*
X141923328Y-70322856D02*
X141966185Y-70322856D01*
X141966185Y-70322856D02*
X141994757Y-70337142D01*
X141994757Y-70337142D02*
X142009042Y-70351428D01*
X142009042Y-70351428D02*
X142023328Y-70379999D01*
X142023328Y-70379999D02*
X142023328Y-70494285D01*
X141894757Y-70208571D02*
X141880471Y-70194285D01*
X141880471Y-70194285D02*
X141866185Y-70165714D01*
X141866185Y-70165714D02*
X141866185Y-70094285D01*
X141866185Y-70094285D02*
X141880471Y-70065714D01*
X141880471Y-70065714D02*
X141894757Y-70051428D01*
X141894757Y-70051428D02*
X141923328Y-70037142D01*
X141923328Y-70037142D02*
X141951900Y-70037142D01*
X141951900Y-70037142D02*
X141994757Y-70051428D01*
X141994757Y-70051428D02*
X142166185Y-70222856D01*
X142166185Y-70222856D02*
X142166185Y-70037142D01*
X141866185Y-69851428D02*
X141866185Y-69822857D01*
X141866185Y-69822857D02*
X141880471Y-69794285D01*
X141880471Y-69794285D02*
X141894757Y-69780000D01*
X141894757Y-69780000D02*
X141923328Y-69765714D01*
X141923328Y-69765714D02*
X141980471Y-69751428D01*
X141980471Y-69751428D02*
X142051900Y-69751428D01*
X142051900Y-69751428D02*
X142109042Y-69765714D01*
X142109042Y-69765714D02*
X142137614Y-69780000D01*
X142137614Y-69780000D02*
X142151900Y-69794285D01*
X142151900Y-69794285D02*
X142166185Y-69822857D01*
X142166185Y-69822857D02*
X142166185Y-69851428D01*
X142166185Y-69851428D02*
X142151900Y-69880000D01*
X142151900Y-69880000D02*
X142137614Y-69894285D01*
X142137614Y-69894285D02*
X142109042Y-69908571D01*
X142109042Y-69908571D02*
X142051900Y-69922857D01*
X142051900Y-69922857D02*
X141980471Y-69922857D01*
X141980471Y-69922857D02*
X141923328Y-69908571D01*
X141923328Y-69908571D02*
X141894757Y-69894285D01*
X141894757Y-69894285D02*
X141880471Y-69880000D01*
X141880471Y-69880000D02*
X141866185Y-69851428D01*
X124827143Y-74226185D02*
X124727143Y-74083328D01*
X124655714Y-74226185D02*
X124655714Y-73926185D01*
X124655714Y-73926185D02*
X124770000Y-73926185D01*
X124770000Y-73926185D02*
X124798571Y-73940471D01*
X124798571Y-73940471D02*
X124812857Y-73954757D01*
X124812857Y-73954757D02*
X124827143Y-73983328D01*
X124827143Y-73983328D02*
X124827143Y-74026185D01*
X124827143Y-74026185D02*
X124812857Y-74054757D01*
X124812857Y-74054757D02*
X124798571Y-74069042D01*
X124798571Y-74069042D02*
X124770000Y-74083328D01*
X124770000Y-74083328D02*
X124655714Y-74083328D01*
X125112857Y-74226185D02*
X124941428Y-74226185D01*
X125027143Y-74226185D02*
X125027143Y-73926185D01*
X125027143Y-73926185D02*
X124998571Y-73969042D01*
X124998571Y-73969042D02*
X124970000Y-73997614D01*
X124970000Y-73997614D02*
X124941428Y-74011900D01*
X125384285Y-73926185D02*
X125241428Y-73926185D01*
X125241428Y-73926185D02*
X125227142Y-74069042D01*
X125227142Y-74069042D02*
X125241428Y-74054757D01*
X125241428Y-74054757D02*
X125270000Y-74040471D01*
X125270000Y-74040471D02*
X125341428Y-74040471D01*
X125341428Y-74040471D02*
X125370000Y-74054757D01*
X125370000Y-74054757D02*
X125384285Y-74069042D01*
X125384285Y-74069042D02*
X125398571Y-74097614D01*
X125398571Y-74097614D02*
X125398571Y-74169042D01*
X125398571Y-74169042D02*
X125384285Y-74197614D01*
X125384285Y-74197614D02*
X125370000Y-74211900D01*
X125370000Y-74211900D02*
X125341428Y-74226185D01*
X125341428Y-74226185D02*
X125270000Y-74226185D01*
X125270000Y-74226185D02*
X125241428Y-74211900D01*
X125241428Y-74211900D02*
X125227142Y-74197614D01*
X135607143Y-67797614D02*
X135592857Y-67811900D01*
X135592857Y-67811900D02*
X135550000Y-67826185D01*
X135550000Y-67826185D02*
X135521428Y-67826185D01*
X135521428Y-67826185D02*
X135478571Y-67811900D01*
X135478571Y-67811900D02*
X135450000Y-67783328D01*
X135450000Y-67783328D02*
X135435714Y-67754757D01*
X135435714Y-67754757D02*
X135421428Y-67697614D01*
X135421428Y-67697614D02*
X135421428Y-67654757D01*
X135421428Y-67654757D02*
X135435714Y-67597614D01*
X135435714Y-67597614D02*
X135450000Y-67569042D01*
X135450000Y-67569042D02*
X135478571Y-67540471D01*
X135478571Y-67540471D02*
X135521428Y-67526185D01*
X135521428Y-67526185D02*
X135550000Y-67526185D01*
X135550000Y-67526185D02*
X135592857Y-67540471D01*
X135592857Y-67540471D02*
X135607143Y-67554757D01*
X135892857Y-67826185D02*
X135721428Y-67826185D01*
X135807143Y-67826185D02*
X135807143Y-67526185D01*
X135807143Y-67526185D02*
X135778571Y-67569042D01*
X135778571Y-67569042D02*
X135750000Y-67597614D01*
X135750000Y-67597614D02*
X135721428Y-67611900D01*
X136064285Y-67654757D02*
X136035714Y-67640471D01*
X136035714Y-67640471D02*
X136021428Y-67626185D01*
X136021428Y-67626185D02*
X136007142Y-67597614D01*
X136007142Y-67597614D02*
X136007142Y-67583328D01*
X136007142Y-67583328D02*
X136021428Y-67554757D01*
X136021428Y-67554757D02*
X136035714Y-67540471D01*
X136035714Y-67540471D02*
X136064285Y-67526185D01*
X136064285Y-67526185D02*
X136121428Y-67526185D01*
X136121428Y-67526185D02*
X136150000Y-67540471D01*
X136150000Y-67540471D02*
X136164285Y-67554757D01*
X136164285Y-67554757D02*
X136178571Y-67583328D01*
X136178571Y-67583328D02*
X136178571Y-67597614D01*
X136178571Y-67597614D02*
X136164285Y-67626185D01*
X136164285Y-67626185D02*
X136150000Y-67640471D01*
X136150000Y-67640471D02*
X136121428Y-67654757D01*
X136121428Y-67654757D02*
X136064285Y-67654757D01*
X136064285Y-67654757D02*
X136035714Y-67669042D01*
X136035714Y-67669042D02*
X136021428Y-67683328D01*
X136021428Y-67683328D02*
X136007142Y-67711900D01*
X136007142Y-67711900D02*
X136007142Y-67769042D01*
X136007142Y-67769042D02*
X136021428Y-67797614D01*
X136021428Y-67797614D02*
X136035714Y-67811900D01*
X136035714Y-67811900D02*
X136064285Y-67826185D01*
X136064285Y-67826185D02*
X136121428Y-67826185D01*
X136121428Y-67826185D02*
X136150000Y-67811900D01*
X136150000Y-67811900D02*
X136164285Y-67797614D01*
X136164285Y-67797614D02*
X136178571Y-67769042D01*
X136178571Y-67769042D02*
X136178571Y-67711900D01*
X136178571Y-67711900D02*
X136164285Y-67683328D01*
X136164285Y-67683328D02*
X136150000Y-67669042D01*
X136150000Y-67669042D02*
X136121428Y-67654757D01*
X166866185Y-70342856D02*
X166723328Y-70442856D01*
X166866185Y-70514285D02*
X166566185Y-70514285D01*
X166566185Y-70514285D02*
X166566185Y-70399999D01*
X166566185Y-70399999D02*
X166580471Y-70371428D01*
X166580471Y-70371428D02*
X166594757Y-70357142D01*
X166594757Y-70357142D02*
X166623328Y-70342856D01*
X166623328Y-70342856D02*
X166666185Y-70342856D01*
X166666185Y-70342856D02*
X166694757Y-70357142D01*
X166694757Y-70357142D02*
X166709042Y-70371428D01*
X166709042Y-70371428D02*
X166723328Y-70399999D01*
X166723328Y-70399999D02*
X166723328Y-70514285D01*
X166594757Y-70228571D02*
X166580471Y-70214285D01*
X166580471Y-70214285D02*
X166566185Y-70185714D01*
X166566185Y-70185714D02*
X166566185Y-70114285D01*
X166566185Y-70114285D02*
X166580471Y-70085714D01*
X166580471Y-70085714D02*
X166594757Y-70071428D01*
X166594757Y-70071428D02*
X166623328Y-70057142D01*
X166623328Y-70057142D02*
X166651900Y-70057142D01*
X166651900Y-70057142D02*
X166694757Y-70071428D01*
X166694757Y-70071428D02*
X166866185Y-70242856D01*
X166866185Y-70242856D02*
X166866185Y-70057142D01*
X166666185Y-69800000D02*
X166866185Y-69800000D01*
X166551900Y-69871428D02*
X166766185Y-69942857D01*
X166766185Y-69942857D02*
X166766185Y-69757142D01*
X123221428Y-82456185D02*
X123221428Y-82699042D01*
X123221428Y-82699042D02*
X123235714Y-82727614D01*
X123235714Y-82727614D02*
X123250000Y-82741900D01*
X123250000Y-82741900D02*
X123278571Y-82756185D01*
X123278571Y-82756185D02*
X123335714Y-82756185D01*
X123335714Y-82756185D02*
X123364285Y-82741900D01*
X123364285Y-82741900D02*
X123378571Y-82727614D01*
X123378571Y-82727614D02*
X123392857Y-82699042D01*
X123392857Y-82699042D02*
X123392857Y-82456185D01*
X123550000Y-82756185D02*
X123607143Y-82756185D01*
X123607143Y-82756185D02*
X123635714Y-82741900D01*
X123635714Y-82741900D02*
X123650000Y-82727614D01*
X123650000Y-82727614D02*
X123678571Y-82684757D01*
X123678571Y-82684757D02*
X123692857Y-82627614D01*
X123692857Y-82627614D02*
X123692857Y-82513328D01*
X123692857Y-82513328D02*
X123678571Y-82484757D01*
X123678571Y-82484757D02*
X123664286Y-82470471D01*
X123664286Y-82470471D02*
X123635714Y-82456185D01*
X123635714Y-82456185D02*
X123578571Y-82456185D01*
X123578571Y-82456185D02*
X123550000Y-82470471D01*
X123550000Y-82470471D02*
X123535714Y-82484757D01*
X123535714Y-82484757D02*
X123521428Y-82513328D01*
X123521428Y-82513328D02*
X123521428Y-82584757D01*
X123521428Y-82584757D02*
X123535714Y-82613328D01*
X123535714Y-82613328D02*
X123550000Y-82627614D01*
X123550000Y-82627614D02*
X123578571Y-82641900D01*
X123578571Y-82641900D02*
X123635714Y-82641900D01*
X123635714Y-82641900D02*
X123664286Y-82627614D01*
X123664286Y-82627614D02*
X123678571Y-82613328D01*
X123678571Y-82613328D02*
X123692857Y-82584757D01*
X143148571Y-72366185D02*
X143148571Y-72609042D01*
X143148571Y-72609042D02*
X143162857Y-72637614D01*
X143162857Y-72637614D02*
X143177143Y-72651900D01*
X143177143Y-72651900D02*
X143205714Y-72666185D01*
X143205714Y-72666185D02*
X143262857Y-72666185D01*
X143262857Y-72666185D02*
X143291428Y-72651900D01*
X143291428Y-72651900D02*
X143305714Y-72637614D01*
X143305714Y-72637614D02*
X143320000Y-72609042D01*
X143320000Y-72609042D02*
X143320000Y-72366185D01*
X143620000Y-72666185D02*
X143448571Y-72666185D01*
X143534286Y-72666185D02*
X143534286Y-72366185D01*
X143534286Y-72366185D02*
X143505714Y-72409042D01*
X143505714Y-72409042D02*
X143477143Y-72437614D01*
X143477143Y-72437614D02*
X143448571Y-72451900D01*
X143805714Y-72366185D02*
X143834285Y-72366185D01*
X143834285Y-72366185D02*
X143862857Y-72380471D01*
X143862857Y-72380471D02*
X143877143Y-72394757D01*
X143877143Y-72394757D02*
X143891428Y-72423328D01*
X143891428Y-72423328D02*
X143905714Y-72480471D01*
X143905714Y-72480471D02*
X143905714Y-72551900D01*
X143905714Y-72551900D02*
X143891428Y-72609042D01*
X143891428Y-72609042D02*
X143877143Y-72637614D01*
X143877143Y-72637614D02*
X143862857Y-72651900D01*
X143862857Y-72651900D02*
X143834285Y-72666185D01*
X143834285Y-72666185D02*
X143805714Y-72666185D01*
X143805714Y-72666185D02*
X143777143Y-72651900D01*
X143777143Y-72651900D02*
X143762857Y-72637614D01*
X143762857Y-72637614D02*
X143748571Y-72609042D01*
X143748571Y-72609042D02*
X143734285Y-72551900D01*
X143734285Y-72551900D02*
X143734285Y-72480471D01*
X143734285Y-72480471D02*
X143748571Y-72423328D01*
X143748571Y-72423328D02*
X143762857Y-72394757D01*
X143762857Y-72394757D02*
X143777143Y-72380471D01*
X143777143Y-72380471D02*
X143805714Y-72366185D01*
X135356185Y-66282856D02*
X135213328Y-66382856D01*
X135356185Y-66454285D02*
X135056185Y-66454285D01*
X135056185Y-66454285D02*
X135056185Y-66339999D01*
X135056185Y-66339999D02*
X135070471Y-66311428D01*
X135070471Y-66311428D02*
X135084757Y-66297142D01*
X135084757Y-66297142D02*
X135113328Y-66282856D01*
X135113328Y-66282856D02*
X135156185Y-66282856D01*
X135156185Y-66282856D02*
X135184757Y-66297142D01*
X135184757Y-66297142D02*
X135199042Y-66311428D01*
X135199042Y-66311428D02*
X135213328Y-66339999D01*
X135213328Y-66339999D02*
X135213328Y-66454285D01*
X135084757Y-66168571D02*
X135070471Y-66154285D01*
X135070471Y-66154285D02*
X135056185Y-66125714D01*
X135056185Y-66125714D02*
X135056185Y-66054285D01*
X135056185Y-66054285D02*
X135070471Y-66025714D01*
X135070471Y-66025714D02*
X135084757Y-66011428D01*
X135084757Y-66011428D02*
X135113328Y-65997142D01*
X135113328Y-65997142D02*
X135141900Y-65997142D01*
X135141900Y-65997142D02*
X135184757Y-66011428D01*
X135184757Y-66011428D02*
X135356185Y-66182856D01*
X135356185Y-66182856D02*
X135356185Y-65997142D01*
X135056185Y-65725714D02*
X135056185Y-65868571D01*
X135056185Y-65868571D02*
X135199042Y-65882857D01*
X135199042Y-65882857D02*
X135184757Y-65868571D01*
X135184757Y-65868571D02*
X135170471Y-65840000D01*
X135170471Y-65840000D02*
X135170471Y-65768571D01*
X135170471Y-65768571D02*
X135184757Y-65740000D01*
X135184757Y-65740000D02*
X135199042Y-65725714D01*
X135199042Y-65725714D02*
X135227614Y-65711428D01*
X135227614Y-65711428D02*
X135299042Y-65711428D01*
X135299042Y-65711428D02*
X135327614Y-65725714D01*
X135327614Y-65725714D02*
X135341900Y-65740000D01*
X135341900Y-65740000D02*
X135356185Y-65768571D01*
X135356185Y-65768571D02*
X135356185Y-65840000D01*
X135356185Y-65840000D02*
X135341900Y-65868571D01*
X135341900Y-65868571D02*
X135327614Y-65882857D01*
X152776185Y-69521428D02*
X152476185Y-69521428D01*
X152476185Y-69521428D02*
X152476185Y-69449999D01*
X152476185Y-69449999D02*
X152490471Y-69407142D01*
X152490471Y-69407142D02*
X152519042Y-69378571D01*
X152519042Y-69378571D02*
X152547614Y-69364285D01*
X152547614Y-69364285D02*
X152604757Y-69349999D01*
X152604757Y-69349999D02*
X152647614Y-69349999D01*
X152647614Y-69349999D02*
X152704757Y-69364285D01*
X152704757Y-69364285D02*
X152733328Y-69378571D01*
X152733328Y-69378571D02*
X152761900Y-69407142D01*
X152761900Y-69407142D02*
X152776185Y-69449999D01*
X152776185Y-69449999D02*
X152776185Y-69521428D01*
X152504757Y-69235714D02*
X152490471Y-69221428D01*
X152490471Y-69221428D02*
X152476185Y-69192857D01*
X152476185Y-69192857D02*
X152476185Y-69121428D01*
X152476185Y-69121428D02*
X152490471Y-69092857D01*
X152490471Y-69092857D02*
X152504757Y-69078571D01*
X152504757Y-69078571D02*
X152533328Y-69064285D01*
X152533328Y-69064285D02*
X152561900Y-69064285D01*
X152561900Y-69064285D02*
X152604757Y-69078571D01*
X152604757Y-69078571D02*
X152776185Y-69249999D01*
X152776185Y-69249999D02*
X152776185Y-69064285D01*
D13*
%TO.C,C17*%
X131876235Y-67305600D02*
X131644565Y-67305600D01*
X131876235Y-68025600D02*
X131644565Y-68025600D01*
%TO.C,C15*%
X192426000Y-66686165D02*
X192426000Y-66917835D01*
X193146000Y-66686165D02*
X193146000Y-66917835D01*
D10*
%TO.C,D3*%
X140933000Y-65821000D02*
X141333000Y-65821000D01*
X140933000Y-67021000D02*
X141333000Y-67021000D01*
X139233000Y-66421000D02*
G75*
G02*
X139033000Y-66421000I-100000J0D01*
G01*
X139033000Y-66421000D02*
G75*
G02*
X139233000Y-66421000I100000J0D01*
G01*
%TO.C,U8*%
X131735000Y-73136400D02*
G75*
G02*
X131535000Y-73136400I-100000J0D01*
G01*
X131535000Y-73136400D02*
G75*
G02*
X131735000Y-73136400I100000J0D01*
G01*
D14*
%TO.C,BT2*%
X188926000Y-62818000D02*
X188926000Y-62418000D01*
X189126000Y-62618000D02*
X188726000Y-62618000D01*
X197426000Y-60972000D02*
G75*
G02*
X190626000Y-60972000I-3400000J0D01*
G01*
X190626000Y-60972000D02*
G75*
G02*
X197426000Y-60972000I3400000J0D01*
G01*
D10*
%TO.C,R21*%
X128794000Y-80738200D02*
X128794000Y-79688200D01*
%TO.C,D5*%
X137421400Y-65770200D02*
X137021400Y-65770200D01*
X137421400Y-66970200D02*
X137021400Y-66970200D01*
X139321400Y-66370200D02*
G75*
G02*
X139121400Y-66370200I-100000J0D01*
G01*
X139121400Y-66370200D02*
G75*
G02*
X139321400Y-66370200I100000J0D01*
G01*
%TO.C,R23*%
X120345200Y-83456000D02*
X120345200Y-82406000D01*
D13*
%TO.C,C16*%
X129869635Y-65197400D02*
X129637965Y-65197400D01*
X129869635Y-65917400D02*
X129637965Y-65917400D01*
D10*
%TO.C,J5*%
X137813250Y-83982500D02*
G75*
G02*
X137613250Y-83982500I-100000J0D01*
G01*
X137613250Y-83982500D02*
G75*
G02*
X137813250Y-83982500I100000J0D01*
G01*
D14*
%TO.C,U5*%
X170860000Y-58530000D02*
X183060000Y-58530000D01*
X170860000Y-58810000D02*
X170860000Y-58530000D01*
X170860000Y-74250000D02*
X170860000Y-74530000D01*
X170860000Y-74530000D02*
X183060000Y-74530000D01*
X183060000Y-58530000D02*
X183060000Y-58810000D01*
X183060000Y-74530000D02*
X183060000Y-74250000D01*
D10*
X169460000Y-59130000D02*
G75*
G02*
X169260000Y-59130000I-100000J0D01*
G01*
X169260000Y-59130000D02*
G75*
G02*
X169460000Y-59130000I100000J0D01*
G01*
D15*
%TO.C,G\u002A\u002A\u002A*%
G36*
X186889009Y-95214162D02*
G01*
X186899445Y-95217256D01*
X186915573Y-95222821D01*
X186938329Y-95231191D01*
X186968648Y-95242702D01*
X187004291Y-95256457D01*
X187022118Y-95263176D01*
X187037639Y-95268692D01*
X187045972Y-95271356D01*
X187057348Y-95274503D01*
X187056073Y-96290566D01*
X187054798Y-97306630D01*
X187004291Y-97325745D01*
X186980919Y-97334535D01*
X186958815Y-97342752D01*
X186941087Y-97349245D01*
X186933581Y-97351926D01*
X186914972Y-97358803D01*
X186896301Y-97366235D01*
X186894438Y-97367017D01*
X186875498Y-97375043D01*
X186875498Y-96294124D01*
X186875503Y-96170340D01*
X186875520Y-96056268D01*
X186875552Y-95951516D01*
X186875601Y-95855696D01*
X186875671Y-95768417D01*
X186875764Y-95689289D01*
X186875883Y-95617922D01*
X186876031Y-95553926D01*
X186876211Y-95496911D01*
X186876425Y-95446487D01*
X186876677Y-95402264D01*
X186876968Y-95363852D01*
X186877303Y-95330860D01*
X186877684Y-95302899D01*
X186878113Y-95279579D01*
X186878594Y-95260509D01*
X186879130Y-95245300D01*
X186879722Y-95233561D01*
X186880374Y-95224902D01*
X186881090Y-95218934D01*
X186881870Y-95215266D01*
X186882720Y-95213509D01*
X186883330Y-95213206D01*
X186889009Y-95214162D01*
G37*
G36*
X187346501Y-95209808D02*
G01*
X187360225Y-95214218D01*
X187378777Y-95220564D01*
X187399847Y-95228024D01*
X187421126Y-95235776D01*
X187440303Y-95242998D01*
X187455071Y-95248868D01*
X187458855Y-95250489D01*
X187469872Y-95255032D01*
X187487625Y-95261992D01*
X187509369Y-95270301D01*
X187525789Y-95276461D01*
X187577571Y-95295725D01*
X187576296Y-96291055D01*
X187575021Y-97286384D01*
X187559869Y-97293672D01*
X187547146Y-97299227D01*
X187529070Y-97306452D01*
X187511887Y-97312921D01*
X187490226Y-97320848D01*
X187467966Y-97329047D01*
X187453804Y-97334301D01*
X187413660Y-97349196D01*
X187382542Y-97360566D01*
X187360064Y-97368550D01*
X187345838Y-97373284D01*
X187339477Y-97374906D01*
X187339386Y-97374908D01*
X187338976Y-97369934D01*
X187338577Y-97355320D01*
X187338191Y-97331529D01*
X187337819Y-97299021D01*
X187337463Y-97258259D01*
X187337125Y-97209703D01*
X187336806Y-97153817D01*
X187336510Y-97091061D01*
X187336236Y-97021897D01*
X187335988Y-96946787D01*
X187335768Y-96866192D01*
X187335575Y-96780575D01*
X187335414Y-96690397D01*
X187335285Y-96596119D01*
X187335191Y-96498204D01*
X187335133Y-96397112D01*
X187335112Y-96293307D01*
X187335112Y-96291531D01*
X187335135Y-96162854D01*
X187335201Y-96041383D01*
X187335310Y-95927320D01*
X187335461Y-95820864D01*
X187335653Y-95722216D01*
X187335886Y-95631576D01*
X187336158Y-95549144D01*
X187336469Y-95475120D01*
X187336817Y-95409704D01*
X187337202Y-95353098D01*
X187337623Y-95305500D01*
X187338079Y-95267112D01*
X187338569Y-95238132D01*
X187339093Y-95218763D01*
X187339648Y-95209203D01*
X187339913Y-95208155D01*
X187346501Y-95209808D01*
G37*
G36*
X188354012Y-94330234D02*
G01*
X188377815Y-94332671D01*
X188403569Y-94336237D01*
X188428892Y-94340527D01*
X188451399Y-94345136D01*
X188468710Y-94349658D01*
X188478440Y-94353689D01*
X188478642Y-94353838D01*
X188486470Y-94358129D01*
X188499726Y-94364010D01*
X188505870Y-94366475D01*
X188531072Y-94378663D01*
X188559834Y-94396423D01*
X188589132Y-94417667D01*
X188615941Y-94440308D01*
X188624145Y-94448143D01*
X188664688Y-94495220D01*
X188697142Y-94547352D01*
X188721289Y-94603379D01*
X188736913Y-94662141D01*
X188743797Y-94722476D01*
X188741724Y-94783224D01*
X188730477Y-94843226D01*
X188709841Y-94901320D01*
X188709076Y-94903019D01*
X188677885Y-94960503D01*
X188639762Y-95010650D01*
X188594680Y-95053480D01*
X188542616Y-95089015D01*
X188483546Y-95117276D01*
X188454263Y-95127759D01*
X188435691Y-95133547D01*
X188420033Y-95137577D01*
X188404722Y-95140154D01*
X188387190Y-95141584D01*
X188364870Y-95142173D01*
X188335193Y-95142226D01*
X188332832Y-95142218D01*
X188302603Y-95141970D01*
X188279969Y-95141270D01*
X188262426Y-95139799D01*
X188247466Y-95137240D01*
X188232584Y-95133273D01*
X188215276Y-95127581D01*
X188213935Y-95127119D01*
X188151085Y-95100709D01*
X188095652Y-95067452D01*
X188047666Y-95027382D01*
X188007162Y-94980532D01*
X187974171Y-94926937D01*
X187948725Y-94866629D01*
X187941047Y-94841979D01*
X187933234Y-94803926D01*
X187929166Y-94760465D01*
X187928897Y-94715458D01*
X187932482Y-94672769D01*
X187938220Y-94642648D01*
X187958957Y-94580899D01*
X187987984Y-94524212D01*
X188024702Y-94473293D01*
X188068510Y-94428846D01*
X188118808Y-94391576D01*
X188174994Y-94362187D01*
X188178564Y-94360679D01*
X188213327Y-94348705D01*
X188253418Y-94338882D01*
X188294277Y-94332127D01*
X188331349Y-94329355D01*
X188334543Y-94329332D01*
X188354012Y-94330234D01*
G37*
G36*
X189333299Y-95210224D02*
G01*
X189334105Y-95211715D01*
X189334845Y-95215794D01*
X189335521Y-95222835D01*
X189336135Y-95233212D01*
X189336689Y-95247300D01*
X189337185Y-95265472D01*
X189337625Y-95288104D01*
X189338011Y-95315568D01*
X189338345Y-95348241D01*
X189338629Y-95386495D01*
X189338864Y-95430705D01*
X189339054Y-95481245D01*
X189339199Y-95538490D01*
X189339302Y-95602814D01*
X189339364Y-95674592D01*
X189339388Y-95754196D01*
X189339376Y-95842002D01*
X189339330Y-95938384D01*
X189339251Y-96043717D01*
X189339141Y-96158373D01*
X189339003Y-96282729D01*
X189338992Y-96292571D01*
X189338839Y-96416598D01*
X189338685Y-96530912D01*
X189338526Y-96635897D01*
X189338359Y-96731943D01*
X189338180Y-96819436D01*
X189337987Y-96898763D01*
X189337776Y-96970311D01*
X189337545Y-97034468D01*
X189337289Y-97091619D01*
X189337006Y-97142153D01*
X189336692Y-97186457D01*
X189336345Y-97224918D01*
X189335961Y-97257922D01*
X189335538Y-97285857D01*
X189335071Y-97309110D01*
X189334558Y-97328068D01*
X189333995Y-97343118D01*
X189333380Y-97354647D01*
X189332710Y-97363043D01*
X189331980Y-97368692D01*
X189331188Y-97371981D01*
X189330331Y-97373299D01*
X189330141Y-97373361D01*
X189322516Y-97372074D01*
X189307839Y-97367718D01*
X189288418Y-97361028D01*
X189272058Y-97354893D01*
X189243480Y-97343918D01*
X189211099Y-97331645D01*
X189180512Y-97320193D01*
X189171044Y-97316687D01*
X189148524Y-97308194D01*
X189128206Y-97300190D01*
X189112826Y-97293770D01*
X189106647Y-97290901D01*
X189092758Y-97283736D01*
X189092758Y-96289217D01*
X189092758Y-95294698D01*
X189104122Y-95291330D01*
X189113897Y-95288000D01*
X189131134Y-95281700D01*
X189153896Y-95273159D01*
X189180246Y-95263108D01*
X189208247Y-95252278D01*
X189224076Y-95246086D01*
X189263943Y-95230774D01*
X189294975Y-95219633D01*
X189317082Y-95212694D01*
X189330174Y-95209986D01*
X189333299Y-95210224D01*
G37*
G36*
X189579222Y-95211561D02*
G01*
X189579690Y-95211902D01*
X189579977Y-95217166D01*
X189580256Y-95232067D01*
X189580527Y-95256141D01*
X189580787Y-95288924D01*
X189581036Y-95329952D01*
X189581273Y-95378760D01*
X189581495Y-95434886D01*
X189581703Y-95497864D01*
X189581894Y-95567230D01*
X189582067Y-95642521D01*
X189582222Y-95723271D01*
X189582356Y-95809018D01*
X189582468Y-95899297D01*
X189582558Y-95993644D01*
X189582623Y-96091594D01*
X189582663Y-96192684D01*
X189582677Y-96294898D01*
X189582666Y-96422178D01*
X189582634Y-96539696D01*
X189582577Y-96647794D01*
X189582494Y-96746812D01*
X189582383Y-96837090D01*
X189582242Y-96918970D01*
X189582069Y-96992791D01*
X189581861Y-97058895D01*
X189581618Y-97117621D01*
X189581336Y-97169310D01*
X189581015Y-97214304D01*
X189580651Y-97252941D01*
X189580244Y-97285563D01*
X189579790Y-97312510D01*
X189579288Y-97334123D01*
X189578736Y-97350742D01*
X189578132Y-97362708D01*
X189577475Y-97370361D01*
X189576761Y-97374042D01*
X189576363Y-97374499D01*
X189568213Y-97372429D01*
X189554737Y-97367645D01*
X189547322Y-97364688D01*
X189532701Y-97358853D01*
X189511899Y-97350820D01*
X189488220Y-97341858D01*
X189474086Y-97336591D01*
X189449898Y-97327633D01*
X189426237Y-97318861D01*
X189406574Y-97311562D01*
X189398397Y-97308522D01*
X189384111Y-97303289D01*
X189374383Y-97299886D01*
X189371881Y-97299147D01*
X189371748Y-97294176D01*
X189371619Y-97279583D01*
X189371495Y-97255846D01*
X189371375Y-97223443D01*
X189371260Y-97182855D01*
X189371152Y-97134560D01*
X189371051Y-97079036D01*
X189370957Y-97016763D01*
X189370871Y-96948220D01*
X189370794Y-96873884D01*
X189370726Y-96794235D01*
X189370668Y-96709753D01*
X189370620Y-96620915D01*
X189370584Y-96528200D01*
X189370560Y-96432088D01*
X189370548Y-96333058D01*
X189370547Y-96291973D01*
X189370547Y-95284799D01*
X189404639Y-95271858D01*
X189425179Y-95264060D01*
X189450772Y-95254342D01*
X189477030Y-95244369D01*
X189486713Y-95240691D01*
X189520151Y-95228187D01*
X189545197Y-95219308D01*
X189562776Y-95213767D01*
X189573810Y-95211280D01*
X189579222Y-95211561D01*
G37*
G36*
X189794806Y-96292122D02*
G01*
X189794800Y-96395935D01*
X189794783Y-96497037D01*
X189794756Y-96594968D01*
X189794718Y-96689266D01*
X189794670Y-96779469D01*
X189794614Y-96865116D01*
X189794548Y-96945745D01*
X189794475Y-97020895D01*
X189794395Y-97090103D01*
X189794307Y-97152909D01*
X189794213Y-97208850D01*
X189794113Y-97257465D01*
X189794008Y-97298293D01*
X189793898Y-97330872D01*
X189793784Y-97354740D01*
X189793666Y-97369436D01*
X189793545Y-97374499D01*
X189793543Y-97374499D01*
X189788566Y-97372512D01*
X189777298Y-97367907D01*
X189769553Y-97364721D01*
X189755135Y-97358946D01*
X189735156Y-97351165D01*
X189711888Y-97342236D01*
X189687602Y-97333020D01*
X189664568Y-97324375D01*
X189645058Y-97317160D01*
X189631344Y-97312234D01*
X189626870Y-97310744D01*
X189625833Y-97310069D01*
X189624880Y-97308425D01*
X189624008Y-97305403D01*
X189623213Y-97300590D01*
X189622491Y-97293579D01*
X189621840Y-97283957D01*
X189621254Y-97271316D01*
X189620732Y-97255245D01*
X189620269Y-97235334D01*
X189619862Y-97211173D01*
X189619508Y-97182352D01*
X189619202Y-97148460D01*
X189618941Y-97109087D01*
X189618721Y-97063823D01*
X189618540Y-97012259D01*
X189618393Y-96953984D01*
X189618277Y-96888587D01*
X189618189Y-96815659D01*
X189618124Y-96734790D01*
X189618079Y-96645569D01*
X189618051Y-96547586D01*
X189618037Y-96440431D01*
X189618032Y-96323694D01*
X189618031Y-96290942D01*
X189618040Y-96190360D01*
X189618063Y-96092498D01*
X189618102Y-95997835D01*
X189618154Y-95906846D01*
X189618220Y-95820007D01*
X189618298Y-95737796D01*
X189618388Y-95660688D01*
X189618489Y-95589161D01*
X189618601Y-95523690D01*
X189618721Y-95464753D01*
X189618851Y-95412825D01*
X189618988Y-95368384D01*
X189619132Y-95331905D01*
X189619283Y-95303865D01*
X189619439Y-95284741D01*
X189619600Y-95275010D01*
X189619680Y-95273814D01*
X189624733Y-95272124D01*
X189637505Y-95267479D01*
X189656274Y-95260515D01*
X189679319Y-95251868D01*
X189689127Y-95248163D01*
X189715256Y-95238318D01*
X189739612Y-95229213D01*
X189759845Y-95221724D01*
X189773606Y-95216721D01*
X189775866Y-95215924D01*
X189794806Y-95209336D01*
X189794806Y-96292122D01*
G37*
G36*
X187104043Y-95210939D02*
G01*
X187108595Y-95212400D01*
X187114906Y-95214596D01*
X187124076Y-95217941D01*
X187137205Y-95222849D01*
X187155393Y-95229734D01*
X187179742Y-95239012D01*
X187211351Y-95251096D01*
X187250009Y-95265898D01*
X187273767Y-95275494D01*
X187289321Y-95283128D01*
X187298165Y-95289660D01*
X187301710Y-95295606D01*
X187302180Y-95302358D01*
X187302611Y-95318567D01*
X187303004Y-95343643D01*
X187303360Y-95376994D01*
X187303678Y-95418029D01*
X187303960Y-95466158D01*
X187304206Y-95520789D01*
X187304416Y-95581331D01*
X187304593Y-95647194D01*
X187304735Y-95717786D01*
X187304845Y-95792517D01*
X187304921Y-95870795D01*
X187304966Y-95952030D01*
X187304979Y-96035631D01*
X187304961Y-96121006D01*
X187304914Y-96207564D01*
X187304837Y-96294715D01*
X187304731Y-96381868D01*
X187304597Y-96468431D01*
X187304435Y-96553815D01*
X187304246Y-96637426D01*
X187304031Y-96718676D01*
X187303790Y-96796972D01*
X187303525Y-96871724D01*
X187303234Y-96942341D01*
X187302920Y-97008231D01*
X187302583Y-97068805D01*
X187302223Y-97123470D01*
X187301842Y-97171636D01*
X187301439Y-97212712D01*
X187301015Y-97246107D01*
X187300572Y-97271229D01*
X187300108Y-97287489D01*
X187299627Y-97294295D01*
X187299580Y-97294428D01*
X187293514Y-97302246D01*
X187289670Y-97304198D01*
X187284042Y-97305858D01*
X187270674Y-97310423D01*
X187251293Y-97317264D01*
X187227622Y-97325756D01*
X187201387Y-97335271D01*
X187174313Y-97345185D01*
X187148126Y-97354870D01*
X187124551Y-97363699D01*
X187105312Y-97371046D01*
X187101517Y-97372525D01*
X187100512Y-97372576D01*
X187099585Y-97371644D01*
X187098735Y-97369335D01*
X187097957Y-97365254D01*
X187097248Y-97359007D01*
X187096606Y-97350197D01*
X187096026Y-97338431D01*
X187095507Y-97323313D01*
X187095043Y-97304448D01*
X187094634Y-97281441D01*
X187094274Y-97253898D01*
X187093961Y-97221424D01*
X187093691Y-97183623D01*
X187093462Y-97140100D01*
X187093270Y-97090462D01*
X187093112Y-97034312D01*
X187092984Y-96971256D01*
X187092884Y-96900899D01*
X187092808Y-96822846D01*
X187092753Y-96736701D01*
X187092716Y-96642071D01*
X187092693Y-96538561D01*
X187092682Y-96425774D01*
X187092679Y-96303317D01*
X187092679Y-96291731D01*
X187092679Y-95207474D01*
X187104043Y-95210939D01*
G37*
G36*
X189056881Y-95205947D02*
G01*
X189057565Y-95211205D01*
X189058194Y-95220583D01*
X189058771Y-95234418D01*
X189059297Y-95253050D01*
X189059775Y-95276819D01*
X189060206Y-95306062D01*
X189060592Y-95341119D01*
X189060935Y-95382329D01*
X189061237Y-95430032D01*
X189061501Y-95484565D01*
X189061728Y-95546269D01*
X189061920Y-95615482D01*
X189062079Y-95692544D01*
X189062207Y-95777793D01*
X189062306Y-95871568D01*
X189062378Y-95974209D01*
X189062426Y-96086054D01*
X189062450Y-96207443D01*
X189062454Y-96290991D01*
X189062437Y-96395103D01*
X189062386Y-96496507D01*
X189062303Y-96594741D01*
X189062190Y-96689347D01*
X189062048Y-96779863D01*
X189061879Y-96865829D01*
X189061685Y-96946785D01*
X189061466Y-97022271D01*
X189061225Y-97091826D01*
X189060964Y-97154990D01*
X189060683Y-97211304D01*
X189060385Y-97260305D01*
X189060071Y-97301536D01*
X189059743Y-97334534D01*
X189059402Y-97358839D01*
X189059050Y-97373993D01*
X189058688Y-97379533D01*
X189058666Y-97379550D01*
X189052186Y-97377567D01*
X189039621Y-97372916D01*
X189029624Y-97368981D01*
X188991628Y-97354055D01*
X188944703Y-97336248D01*
X188905882Y-97321830D01*
X188884080Y-97313575D01*
X188862605Y-97305083D01*
X188845933Y-97298127D01*
X188845273Y-97297836D01*
X188826517Y-97290068D01*
X188807378Y-97282896D01*
X188802342Y-97281181D01*
X188794644Y-97278619D01*
X188786363Y-97275751D01*
X188776108Y-97272061D01*
X188762488Y-97267034D01*
X188744112Y-97260155D01*
X188719588Y-97250909D01*
X188687524Y-97238780D01*
X188673549Y-97233488D01*
X188630884Y-97217367D01*
X188596309Y-97204390D01*
X188568495Y-97194062D01*
X188546109Y-97185886D01*
X188539706Y-97183583D01*
X188509829Y-97172758D01*
X188477834Y-97160959D01*
X188446287Y-97149149D01*
X188417750Y-97138292D01*
X188394787Y-97129351D01*
X188385659Y-97125681D01*
X188357880Y-97114297D01*
X188356603Y-96290610D01*
X188355325Y-95466924D01*
X188366704Y-95464355D01*
X188377585Y-95461045D01*
X188393618Y-95455227D01*
X188405862Y-95450383D01*
X188426574Y-95442049D01*
X188450350Y-95432719D01*
X188465174Y-95427028D01*
X188488286Y-95418218D01*
X188513735Y-95408447D01*
X188528308Y-95402817D01*
X188544844Y-95396514D01*
X188568087Y-95387805D01*
X188595250Y-95377725D01*
X188623545Y-95367314D01*
X188630618Y-95364727D01*
X188658599Y-95354461D01*
X188686012Y-95344328D01*
X188710122Y-95335342D01*
X188728197Y-95328520D01*
X188731633Y-95327202D01*
X188752911Y-95319083D01*
X188777745Y-95309737D01*
X188797292Y-95302471D01*
X188821021Y-95293650D01*
X188851199Y-95282330D01*
X188884842Y-95269634D01*
X188918971Y-95256687D01*
X188946288Y-95246267D01*
X188959176Y-95241350D01*
X188978090Y-95234152D01*
X188999611Y-95225973D01*
X189006896Y-95223207D01*
X189026667Y-95215698D01*
X189043175Y-95209418D01*
X189053893Y-95205330D01*
X189056140Y-95204468D01*
X189056881Y-95205947D01*
G37*
G36*
X187624769Y-95208170D02*
G01*
X187634315Y-95211847D01*
X187650467Y-95217893D01*
X187670337Y-95225230D01*
X187678560Y-95228241D01*
X187698991Y-95235816D01*
X187716717Y-95242589D01*
X187728905Y-95247471D01*
X187731593Y-95248648D01*
X187740681Y-95252423D01*
X187758345Y-95259310D01*
X187783670Y-95268964D01*
X187815740Y-95281038D01*
X187853640Y-95295188D01*
X187896455Y-95311066D01*
X187908368Y-95315468D01*
X187932609Y-95324449D01*
X187958367Y-95334041D01*
X187980333Y-95342266D01*
X187981603Y-95342744D01*
X188000839Y-95349923D01*
X188018472Y-95356398D01*
X188029584Y-95360378D01*
X188042523Y-95365092D01*
X188060422Y-95371865D01*
X188075041Y-95377528D01*
X188096197Y-95385711D01*
X188120855Y-95395082D01*
X188147269Y-95404997D01*
X188173692Y-95414812D01*
X188198378Y-95423883D01*
X188219579Y-95431565D01*
X188235550Y-95437216D01*
X188244543Y-95440191D01*
X188245810Y-95440487D01*
X188251763Y-95442436D01*
X188263972Y-95447493D01*
X188276596Y-95453114D01*
X188292109Y-95459865D01*
X188304081Y-95464447D01*
X188309035Y-95465741D01*
X188314786Y-95469785D01*
X188316934Y-95473730D01*
X188317347Y-95479773D01*
X188317727Y-95495232D01*
X188318076Y-95519455D01*
X188318392Y-95551791D01*
X188318677Y-95591588D01*
X188318931Y-95638193D01*
X188319155Y-95690956D01*
X188319347Y-95749224D01*
X188319510Y-95812345D01*
X188319643Y-95879669D01*
X188319746Y-95950543D01*
X188319821Y-96024315D01*
X188319866Y-96100334D01*
X188319883Y-96177949D01*
X188319871Y-96256506D01*
X188319832Y-96335354D01*
X188319765Y-96413843D01*
X188319671Y-96491319D01*
X188319550Y-96567131D01*
X188319402Y-96640628D01*
X188319228Y-96711158D01*
X188319028Y-96778068D01*
X188318803Y-96840708D01*
X188318552Y-96898425D01*
X188318276Y-96950568D01*
X188317975Y-96996485D01*
X188317650Y-97035524D01*
X188317300Y-97067033D01*
X188316927Y-97090361D01*
X188316531Y-97104856D01*
X188316135Y-97109848D01*
X188312123Y-97113650D01*
X188304472Y-97118098D01*
X188291815Y-97123790D01*
X188272783Y-97131323D01*
X188246008Y-97141297D01*
X188235084Y-97145283D01*
X188175613Y-97166954D01*
X188124599Y-97185656D01*
X188080973Y-97201790D01*
X188043668Y-97215754D01*
X188011617Y-97227946D01*
X187983751Y-97238767D01*
X187965188Y-97246129D01*
X187948608Y-97252538D01*
X187935752Y-97257081D01*
X187929509Y-97258756D01*
X187923030Y-97260709D01*
X187910423Y-97265787D01*
X187897793Y-97271368D01*
X187881939Y-97278153D01*
X187869274Y-97282736D01*
X187863710Y-97283995D01*
X187855561Y-97286073D01*
X187842351Y-97291334D01*
X187835402Y-97294542D01*
X187816727Y-97302786D01*
X187797325Y-97310222D01*
X187792785Y-97311746D01*
X187779158Y-97316411D01*
X187758435Y-97323870D01*
X187732938Y-97333256D01*
X187704988Y-97343706D01*
X187676905Y-97354353D01*
X187651010Y-97364332D01*
X187637289Y-97369718D01*
X187623242Y-97374544D01*
X187613351Y-97376572D01*
X187610773Y-97376146D01*
X187610456Y-97370864D01*
X187610158Y-97356044D01*
X187609879Y-97332251D01*
X187609618Y-97300051D01*
X187609376Y-97260006D01*
X187609152Y-97212681D01*
X187608947Y-97158641D01*
X187608761Y-97098450D01*
X187608593Y-97032672D01*
X187608443Y-96961871D01*
X187608312Y-96886613D01*
X187608200Y-96807461D01*
X187608105Y-96724979D01*
X187608029Y-96639733D01*
X187607972Y-96552285D01*
X187607932Y-96463201D01*
X187607911Y-96373046D01*
X187607909Y-96282382D01*
X187607924Y-96191775D01*
X187607958Y-96101789D01*
X187608009Y-96012988D01*
X187608079Y-95925936D01*
X187608167Y-95841199D01*
X187608273Y-95759340D01*
X187608397Y-95680923D01*
X187608539Y-95606513D01*
X187608700Y-95536675D01*
X187608878Y-95471972D01*
X187609074Y-95412968D01*
X187609288Y-95360230D01*
X187609519Y-95314319D01*
X187609769Y-95275802D01*
X187610036Y-95245242D01*
X187610322Y-95223203D01*
X187610625Y-95210250D01*
X187610880Y-95206809D01*
X187617352Y-95206101D01*
X187624769Y-95208170D01*
G37*
D10*
%TO.C,R22*%
X120192800Y-75810600D02*
X120192800Y-74760600D01*
%TO.C,R13*%
X127263800Y-63830400D02*
G75*
G02*
X127163800Y-63830400I-50000J0D01*
G01*
X127163800Y-63830400D02*
G75*
G02*
X127263800Y-63830400I50000J0D01*
G01*
D14*
%TO.C,U6*%
X187476000Y-65776000D02*
X190476000Y-65776000D01*
X190476000Y-68844000D02*
X187476000Y-68844000D01*
D10*
X185676000Y-66010000D02*
G75*
G02*
X185476000Y-66010000I-100000J0D01*
G01*
X185476000Y-66010000D02*
G75*
G02*
X185676000Y-66010000I100000J0D01*
G01*
D14*
%TO.C,L2*%
X143754900Y-74749400D02*
X145927900Y-74749400D01*
X143754900Y-80749400D02*
X145927900Y-80749400D01*
D13*
%TO.C,R26*%
X144170821Y-67946000D02*
X143835579Y-67946000D01*
X144170821Y-68706000D02*
X143835579Y-68706000D01*
D10*
%TO.C,D4*%
X167802000Y-66240000D02*
X167802000Y-65840000D01*
X169002000Y-66240000D02*
X169002000Y-65840000D01*
X168502000Y-68040000D02*
G75*
G02*
X168302000Y-68040000I-100000J0D01*
G01*
X168302000Y-68040000D02*
G75*
G02*
X168502000Y-68040000I100000J0D01*
G01*
D14*
%TO.C,Q3*%
X129027800Y-75243800D02*
X133527800Y-75243800D01*
X129027800Y-78273800D02*
X133527800Y-78273800D01*
D10*
X126937800Y-75383800D02*
G75*
G02*
X126737800Y-75383800I-100000J0D01*
G01*
X126737800Y-75383800D02*
G75*
G02*
X126937800Y-75383800I100000J0D01*
G01*
D14*
%TO.C,J2*%
X134982600Y-68768400D02*
X140882600Y-68768400D01*
X134982600Y-73268400D02*
X134982600Y-68768400D01*
X140882600Y-68768400D02*
X140882600Y-73268400D01*
X140882600Y-73268400D02*
X134982600Y-73268400D01*
D10*
X139032600Y-73968400D02*
G75*
G02*
X138832600Y-73968400I-100000J0D01*
G01*
X138832600Y-73968400D02*
G75*
G02*
X139032600Y-73968400I100000J0D01*
G01*
D16*
%TO.C,AE2*%
X164551300Y-73058865D02*
X164551300Y-74773135D01*
X166608700Y-74773135D02*
X166608700Y-73058865D01*
D14*
%TO.C,U7*%
X130736800Y-59578400D02*
X134736800Y-59578400D01*
X130736800Y-64678400D02*
X134736800Y-64678400D01*
D10*
X128391800Y-59623400D02*
G75*
G02*
X128191800Y-59623400I-100000J0D01*
G01*
X128191800Y-59623400D02*
G75*
G02*
X128391800Y-59623400I100000J0D01*
G01*
D14*
%TO.C,D1*%
X185332000Y-60861000D02*
X185332000Y-58011000D01*
X187032000Y-58011000D02*
X187032000Y-60861000D01*
D10*
X186282000Y-62436000D02*
G75*
G02*
X186082000Y-62436000I-100000J0D01*
G01*
X186082000Y-62436000D02*
G75*
G02*
X186282000Y-62436000I100000J0D01*
G01*
%TO.C,R15*%
X125374400Y-76090000D02*
X125374400Y-75040000D01*
D13*
%TO.C,C18*%
X134289235Y-67305600D02*
X134057565Y-67305600D01*
X134289235Y-68025600D02*
X134057565Y-68025600D01*
D10*
%TO.C,R24*%
X168823000Y-70612000D02*
X167473000Y-70612000D01*
D16*
%TO.C,U9*%
X119862600Y-81737200D02*
X121818400Y-81737200D01*
X121818400Y-81737200D02*
X122428000Y-81737200D01*
X122428000Y-81737200D02*
X124383800Y-81737200D01*
X124383800Y-76657200D02*
X119862600Y-76657200D01*
X121818400Y-81737200D02*
G75*
G02*
X122428000Y-81737200I304800J0D01*
G01*
D13*
%TO.C,U10*%
X143469800Y-70945700D02*
X142669800Y-70945700D01*
X143469800Y-70945700D02*
X144269800Y-70945700D01*
X143469800Y-74065700D02*
X142669800Y-74065700D01*
X143469800Y-74065700D02*
X144269800Y-74065700D01*
X145009800Y-74345700D02*
X144529800Y-74345700D01*
X144769800Y-74015700D01*
X145009800Y-74345700D01*
G36*
X145009800Y-74345700D02*
G01*
X144529800Y-74345700D01*
X144769800Y-74015700D01*
X145009800Y-74345700D01*
G37*
D10*
%TO.C,R25*%
X133513000Y-65790800D02*
X133513000Y-66390800D01*
D14*
%TO.C,D2*%
X146133200Y-65853100D02*
X146133200Y-72728100D01*
X146133200Y-72728100D02*
X147173200Y-72728100D01*
X147173200Y-65853100D02*
X146133200Y-65853100D01*
X150993200Y-72728100D02*
X152033200Y-72728100D01*
X152033200Y-65853100D02*
X150993200Y-65853100D01*
X152033200Y-72728100D02*
X152033200Y-65853100D01*
D10*
X149183200Y-64090600D02*
G75*
G02*
X148983200Y-64090600I-100000J0D01*
G01*
X148983200Y-64090600D02*
G75*
G02*
X149183200Y-64090600I100000J0D01*
G01*
%TD*%
M02*
