%TF.GenerationSoftware,KiCad,Pcbnew,8.0.3*%
%TF.CreationDate,2025-01-08T01:15:00+05:30*%
%TF.ProjectId,gps,6770732e-6b69-4636-9164-5f7063625858,rev?*%
%TF.SameCoordinates,Original*%
%TF.FileFunction,Paste,Top*%
%TF.FilePolarity,Positive*%
%FSLAX46Y46*%
G04 Gerber Fmt 4.6, Leading zero omitted, Abs format (unit mm)*
G04 Created by KiCad (PCBNEW 8.0.3) date 2025-01-08 01:15:00*
%MOMM*%
%LPD*%
G01*
G04 APERTURE LIST*
G04 Aperture macros list*
%AMRoundRect*
0 Rectangle with rounded corners*
0 $1 Rounding radius*
0 $2 $3 $4 $5 $6 $7 $8 $9 X,Y pos of 4 corners*
0 Add a 4 corners polygon primitive as box body*
4,1,4,$2,$3,$4,$5,$6,$7,$8,$9,$2,$3,0*
0 Add four circle primitives for the rounded corners*
1,1,$1+$1,$2,$3*
1,1,$1+$1,$4,$5*
1,1,$1+$1,$6,$7*
1,1,$1+$1,$8,$9*
0 Add four rect primitives between the rounded corners*
20,1,$1+$1,$2,$3,$4,$5,0*
20,1,$1+$1,$4,$5,$6,$7,0*
20,1,$1+$1,$6,$7,$8,$9,0*
20,1,$1+$1,$8,$9,$2,$3,0*%
G04 Aperture macros list end*
%ADD10C,0.000100*%
%ADD11C,0.010000*%
%ADD12RoundRect,0.155000X0.212500X0.155000X-0.212500X0.155000X-0.212500X-0.155000X0.212500X-0.155000X0*%
%ADD13RoundRect,0.155000X-0.155000X0.212500X-0.155000X-0.212500X0.155000X-0.212500X0.155000X0.212500X0*%
%ADD14R,1.020000X1.040000*%
%ADD15R,1.470000X0.970000*%
%ADD16R,1.100000X1.450000*%
%ADD17R,0.590000X1.210000*%
%ADD18R,2.200000X0.650000*%
%ADD19R,2.300000X0.650000*%
%ADD20R,0.950000X1.450000*%
%ADD21R,0.700000X1.200000*%
%ADD22R,0.900000X0.650000*%
%ADD23R,1.470000X1.200000*%
%ADD24R,1.040000X1.020000*%
%ADD25RoundRect,0.122500X-0.627500X-0.122500X0.627500X-0.122500X0.627500X0.122500X-0.627500X0.122500X0*%
%ADD26R,1.700000X5.700000*%
%ADD27RoundRect,0.160000X0.197500X0.160000X-0.197500X0.160000X-0.197500X-0.160000X0.197500X-0.160000X0*%
%ADD28R,1.450000X1.100000*%
%ADD29R,0.970000X1.470000*%
%ADD30RoundRect,0.050000X-0.730000X-0.150000X0.730000X-0.150000X0.730000X0.150000X-0.730000X0.150000X0*%
%ADD31R,1.447800X1.066800*%
%ADD32RoundRect,0.075000X-0.910000X-0.225000X0.910000X-0.225000X0.910000X0.225000X-0.910000X0.225000X0*%
%ADD33R,0.730000X1.210000*%
%ADD34R,1.750000X1.050000*%
%ADD35R,1.473200X0.355600*%
%ADD36RoundRect,0.150000X0.512500X0.150000X-0.512500X0.150000X-0.512500X-0.150000X0.512500X-0.150000X0*%
%ADD37R,0.800000X0.950000*%
%ADD38R,3.180000X2.250000*%
G04 APERTURE END LIST*
D10*
%TO.C,U5*%
X170860000Y-59230000D02*
X171760000Y-59230000D01*
X171760000Y-59830000D01*
X170860000Y-59830000D01*
X170860000Y-59930000D01*
X169660000Y-59930000D01*
X169660000Y-59130000D01*
X170860000Y-59130000D01*
X170860000Y-59230000D01*
G36*
X170860000Y-59230000D02*
G01*
X171760000Y-59230000D01*
X171760000Y-59830000D01*
X170860000Y-59830000D01*
X170860000Y-59930000D01*
X169660000Y-59930000D01*
X169660000Y-59130000D01*
X170860000Y-59130000D01*
X170860000Y-59230000D01*
G37*
X170860000Y-60330000D02*
X171760000Y-60330000D01*
X171760000Y-60930000D01*
X170860000Y-60930000D01*
X170860000Y-61030000D01*
X169660000Y-61030000D01*
X169660000Y-60230000D01*
X170860000Y-60230000D01*
X170860000Y-60330000D01*
G36*
X170860000Y-60330000D02*
G01*
X171760000Y-60330000D01*
X171760000Y-60930000D01*
X170860000Y-60930000D01*
X170860000Y-61030000D01*
X169660000Y-61030000D01*
X169660000Y-60230000D01*
X170860000Y-60230000D01*
X170860000Y-60330000D01*
G37*
X170860000Y-61430000D02*
X171760000Y-61430000D01*
X171760000Y-62030000D01*
X170860000Y-62030000D01*
X170860000Y-62130000D01*
X169660000Y-62130000D01*
X169660000Y-61330000D01*
X170860000Y-61330000D01*
X170860000Y-61430000D01*
G36*
X170860000Y-61430000D02*
G01*
X171760000Y-61430000D01*
X171760000Y-62030000D01*
X170860000Y-62030000D01*
X170860000Y-62130000D01*
X169660000Y-62130000D01*
X169660000Y-61330000D01*
X170860000Y-61330000D01*
X170860000Y-61430000D01*
G37*
X170860000Y-62530000D02*
X171760000Y-62530000D01*
X171760000Y-63130000D01*
X170860000Y-63130000D01*
X170860000Y-63230000D01*
X169660000Y-63230000D01*
X169660000Y-62430000D01*
X170860000Y-62430000D01*
X170860000Y-62530000D01*
G36*
X170860000Y-62530000D02*
G01*
X171760000Y-62530000D01*
X171760000Y-63130000D01*
X170860000Y-63130000D01*
X170860000Y-63230000D01*
X169660000Y-63230000D01*
X169660000Y-62430000D01*
X170860000Y-62430000D01*
X170860000Y-62530000D01*
G37*
X170860000Y-63630000D02*
X171760000Y-63630000D01*
X171760000Y-64230000D01*
X170860000Y-64230000D01*
X170860000Y-64330000D01*
X169660000Y-64330000D01*
X169660000Y-63530000D01*
X170860000Y-63530000D01*
X170860000Y-63630000D01*
G36*
X170860000Y-63630000D02*
G01*
X171760000Y-63630000D01*
X171760000Y-64230000D01*
X170860000Y-64230000D01*
X170860000Y-64330000D01*
X169660000Y-64330000D01*
X169660000Y-63530000D01*
X170860000Y-63530000D01*
X170860000Y-63630000D01*
G37*
X170860000Y-64730000D02*
X171760000Y-64730000D01*
X171760000Y-65330000D01*
X170860000Y-65330000D01*
X170860000Y-65430000D01*
X169660000Y-65430000D01*
X169660000Y-64630000D01*
X170860000Y-64630000D01*
X170860000Y-64730000D01*
G36*
X170860000Y-64730000D02*
G01*
X171760000Y-64730000D01*
X171760000Y-65330000D01*
X170860000Y-65330000D01*
X170860000Y-65430000D01*
X169660000Y-65430000D01*
X169660000Y-64630000D01*
X170860000Y-64630000D01*
X170860000Y-64730000D01*
G37*
X170860000Y-65830000D02*
X171760000Y-65830000D01*
X171760000Y-66430000D01*
X170860000Y-66430000D01*
X170860000Y-66530000D01*
X169660000Y-66530000D01*
X169660000Y-65730000D01*
X170860000Y-65730000D01*
X170860000Y-65830000D01*
G36*
X170860000Y-65830000D02*
G01*
X171760000Y-65830000D01*
X171760000Y-66430000D01*
X170860000Y-66430000D01*
X170860000Y-66530000D01*
X169660000Y-66530000D01*
X169660000Y-65730000D01*
X170860000Y-65730000D01*
X170860000Y-65830000D01*
G37*
X170860000Y-68830000D02*
X171760000Y-68830000D01*
X171760000Y-69430000D01*
X170860000Y-69430000D01*
X170860000Y-69530000D01*
X169660000Y-69530000D01*
X169660000Y-68730000D01*
X170860000Y-68730000D01*
X170860000Y-68830000D01*
G36*
X170860000Y-68830000D02*
G01*
X171760000Y-68830000D01*
X171760000Y-69430000D01*
X170860000Y-69430000D01*
X170860000Y-69530000D01*
X169660000Y-69530000D01*
X169660000Y-68730000D01*
X170860000Y-68730000D01*
X170860000Y-68830000D01*
G37*
X170860000Y-69930000D02*
X171760000Y-69930000D01*
X171760000Y-70530000D01*
X170860000Y-70530000D01*
X170860000Y-70630000D01*
X169660000Y-70630000D01*
X169660000Y-69830000D01*
X170860000Y-69830000D01*
X170860000Y-69930000D01*
G36*
X170860000Y-69930000D02*
G01*
X171760000Y-69930000D01*
X171760000Y-70530000D01*
X170860000Y-70530000D01*
X170860000Y-70630000D01*
X169660000Y-70630000D01*
X169660000Y-69830000D01*
X170860000Y-69830000D01*
X170860000Y-69930000D01*
G37*
X170860000Y-71030000D02*
X171760000Y-71030000D01*
X171760000Y-71630000D01*
X170860000Y-71630000D01*
X170860000Y-71730000D01*
X169660000Y-71730000D01*
X169660000Y-70930000D01*
X170860000Y-70930000D01*
X170860000Y-71030000D01*
G36*
X170860000Y-71030000D02*
G01*
X171760000Y-71030000D01*
X171760000Y-71630000D01*
X170860000Y-71630000D01*
X170860000Y-71730000D01*
X169660000Y-71730000D01*
X169660000Y-70930000D01*
X170860000Y-70930000D01*
X170860000Y-71030000D01*
G37*
X170860000Y-72130000D02*
X171760000Y-72130000D01*
X171760000Y-72730000D01*
X170860000Y-72730000D01*
X170860000Y-72830000D01*
X169660000Y-72830000D01*
X169660000Y-72030000D01*
X170860000Y-72030000D01*
X170860000Y-72130000D01*
G36*
X170860000Y-72130000D02*
G01*
X171760000Y-72130000D01*
X171760000Y-72730000D01*
X170860000Y-72730000D01*
X170860000Y-72830000D01*
X169660000Y-72830000D01*
X169660000Y-72030000D01*
X170860000Y-72030000D01*
X170860000Y-72130000D01*
G37*
X170860000Y-73230000D02*
X171760000Y-73230000D01*
X171760000Y-73830000D01*
X170860000Y-73830000D01*
X170860000Y-73930000D01*
X169660000Y-73930000D01*
X169660000Y-73130000D01*
X170860000Y-73130000D01*
X170860000Y-73230000D01*
G36*
X170860000Y-73230000D02*
G01*
X171760000Y-73230000D01*
X171760000Y-73830000D01*
X170860000Y-73830000D01*
X170860000Y-73930000D01*
X169660000Y-73930000D01*
X169660000Y-73130000D01*
X170860000Y-73130000D01*
X170860000Y-73230000D01*
G37*
X184260000Y-59930000D02*
X183060000Y-59930000D01*
X183060000Y-59830000D01*
X182160000Y-59830000D01*
X182160000Y-59230000D01*
X183060000Y-59230000D01*
X183060000Y-59130000D01*
X184260000Y-59130000D01*
X184260000Y-59930000D01*
G36*
X184260000Y-59930000D02*
G01*
X183060000Y-59930000D01*
X183060000Y-59830000D01*
X182160000Y-59830000D01*
X182160000Y-59230000D01*
X183060000Y-59230000D01*
X183060000Y-59130000D01*
X184260000Y-59130000D01*
X184260000Y-59930000D01*
G37*
X184260000Y-61030000D02*
X183060000Y-61030000D01*
X183060000Y-60930000D01*
X182160000Y-60930000D01*
X182160000Y-60330000D01*
X183060000Y-60330000D01*
X183060000Y-60230000D01*
X184260000Y-60230000D01*
X184260000Y-61030000D01*
G36*
X184260000Y-61030000D02*
G01*
X183060000Y-61030000D01*
X183060000Y-60930000D01*
X182160000Y-60930000D01*
X182160000Y-60330000D01*
X183060000Y-60330000D01*
X183060000Y-60230000D01*
X184260000Y-60230000D01*
X184260000Y-61030000D01*
G37*
X184260000Y-62130000D02*
X183060000Y-62130000D01*
X183060000Y-62030000D01*
X182160000Y-62030000D01*
X182160000Y-61430000D01*
X183060000Y-61430000D01*
X183060000Y-61330000D01*
X184260000Y-61330000D01*
X184260000Y-62130000D01*
G36*
X184260000Y-62130000D02*
G01*
X183060000Y-62130000D01*
X183060000Y-62030000D01*
X182160000Y-62030000D01*
X182160000Y-61430000D01*
X183060000Y-61430000D01*
X183060000Y-61330000D01*
X184260000Y-61330000D01*
X184260000Y-62130000D01*
G37*
X184260000Y-63230000D02*
X183060000Y-63230000D01*
X183060000Y-63130000D01*
X182160000Y-63130000D01*
X182160000Y-62530000D01*
X183060000Y-62530000D01*
X183060000Y-62430000D01*
X184260000Y-62430000D01*
X184260000Y-63230000D01*
G36*
X184260000Y-63230000D02*
G01*
X183060000Y-63230000D01*
X183060000Y-63130000D01*
X182160000Y-63130000D01*
X182160000Y-62530000D01*
X183060000Y-62530000D01*
X183060000Y-62430000D01*
X184260000Y-62430000D01*
X184260000Y-63230000D01*
G37*
X184260000Y-64330000D02*
X183060000Y-64330000D01*
X183060000Y-64230000D01*
X182160000Y-64230000D01*
X182160000Y-63630000D01*
X183060000Y-63630000D01*
X183060000Y-63530000D01*
X184260000Y-63530000D01*
X184260000Y-64330000D01*
G36*
X184260000Y-64330000D02*
G01*
X183060000Y-64330000D01*
X183060000Y-64230000D01*
X182160000Y-64230000D01*
X182160000Y-63630000D01*
X183060000Y-63630000D01*
X183060000Y-63530000D01*
X184260000Y-63530000D01*
X184260000Y-64330000D01*
G37*
X184260000Y-65430000D02*
X183060000Y-65430000D01*
X183060000Y-65330000D01*
X182160000Y-65330000D01*
X182160000Y-64730000D01*
X183060000Y-64730000D01*
X183060000Y-64630000D01*
X184260000Y-64630000D01*
X184260000Y-65430000D01*
G36*
X184260000Y-65430000D02*
G01*
X183060000Y-65430000D01*
X183060000Y-65330000D01*
X182160000Y-65330000D01*
X182160000Y-64730000D01*
X183060000Y-64730000D01*
X183060000Y-64630000D01*
X184260000Y-64630000D01*
X184260000Y-65430000D01*
G37*
X184260000Y-66530000D02*
X183060000Y-66530000D01*
X183060000Y-66430000D01*
X182160000Y-66430000D01*
X182160000Y-65830000D01*
X183060000Y-65830000D01*
X183060000Y-65730000D01*
X184260000Y-65730000D01*
X184260000Y-66530000D01*
G36*
X184260000Y-66530000D02*
G01*
X183060000Y-66530000D01*
X183060000Y-66430000D01*
X182160000Y-66430000D01*
X182160000Y-65830000D01*
X183060000Y-65830000D01*
X183060000Y-65730000D01*
X184260000Y-65730000D01*
X184260000Y-66530000D01*
G37*
X184260000Y-69530000D02*
X183060000Y-69530000D01*
X183060000Y-69430000D01*
X182160000Y-69430000D01*
X182160000Y-68830000D01*
X183060000Y-68830000D01*
X183060000Y-68730000D01*
X184260000Y-68730000D01*
X184260000Y-69530000D01*
G36*
X184260000Y-69530000D02*
G01*
X183060000Y-69530000D01*
X183060000Y-69430000D01*
X182160000Y-69430000D01*
X182160000Y-68830000D01*
X183060000Y-68830000D01*
X183060000Y-68730000D01*
X184260000Y-68730000D01*
X184260000Y-69530000D01*
G37*
X184260000Y-70630000D02*
X183060000Y-70630000D01*
X183060000Y-70530000D01*
X182160000Y-70530000D01*
X182160000Y-69930000D01*
X183060000Y-69930000D01*
X183060000Y-69830000D01*
X184260000Y-69830000D01*
X184260000Y-70630000D01*
G36*
X184260000Y-70630000D02*
G01*
X183060000Y-70630000D01*
X183060000Y-70530000D01*
X182160000Y-70530000D01*
X182160000Y-69930000D01*
X183060000Y-69930000D01*
X183060000Y-69830000D01*
X184260000Y-69830000D01*
X184260000Y-70630000D01*
G37*
X184260000Y-71730000D02*
X183060000Y-71730000D01*
X183060000Y-71630000D01*
X182160000Y-71630000D01*
X182160000Y-71030000D01*
X183060000Y-71030000D01*
X183060000Y-70930000D01*
X184260000Y-70930000D01*
X184260000Y-71730000D01*
G36*
X184260000Y-71730000D02*
G01*
X183060000Y-71730000D01*
X183060000Y-71630000D01*
X182160000Y-71630000D01*
X182160000Y-71030000D01*
X183060000Y-71030000D01*
X183060000Y-70930000D01*
X184260000Y-70930000D01*
X184260000Y-71730000D01*
G37*
X184260000Y-72830000D02*
X183060000Y-72830000D01*
X183060000Y-72730000D01*
X182160000Y-72730000D01*
X182160000Y-72130000D01*
X183060000Y-72130000D01*
X183060000Y-72030000D01*
X184260000Y-72030000D01*
X184260000Y-72830000D01*
G36*
X184260000Y-72830000D02*
G01*
X183060000Y-72830000D01*
X183060000Y-72730000D01*
X182160000Y-72730000D01*
X182160000Y-72130000D01*
X183060000Y-72130000D01*
X183060000Y-72030000D01*
X184260000Y-72030000D01*
X184260000Y-72830000D01*
G37*
X184260000Y-73930000D02*
X183060000Y-73930000D01*
X183060000Y-73830000D01*
X182160000Y-73830000D01*
X182160000Y-73230000D01*
X183060000Y-73230000D01*
X183060000Y-73130000D01*
X184260000Y-73130000D01*
X184260000Y-73930000D01*
G36*
X184260000Y-73930000D02*
G01*
X183060000Y-73930000D01*
X183060000Y-73830000D01*
X182160000Y-73830000D01*
X182160000Y-73230000D01*
X183060000Y-73230000D01*
X183060000Y-73130000D01*
X184260000Y-73130000D01*
X184260000Y-73930000D01*
G37*
D11*
%TO.C,U7*%
X133381800Y-62948400D02*
X132091800Y-62948400D01*
X132091800Y-61308400D01*
X133381800Y-61308400D01*
X133381800Y-62948400D01*
G36*
X133381800Y-62948400D02*
G01*
X132091800Y-62948400D01*
X132091800Y-61308400D01*
X133381800Y-61308400D01*
X133381800Y-62948400D01*
G37*
%TD*%
D12*
%TO.C,C17*%
X132327900Y-67665600D03*
X131192900Y-67665600D03*
%TD*%
D13*
%TO.C,C15*%
X192786000Y-66234500D03*
X192786000Y-67369500D03*
%TD*%
D14*
%TO.C,R18*%
X186182000Y-64489000D03*
X186182000Y-63019000D03*
%TD*%
D15*
%TO.C,C19*%
X144181000Y-65260800D03*
X144181000Y-66920800D03*
%TD*%
D16*
%TO.C,D3*%
X142033000Y-66421000D03*
X140233000Y-66421000D03*
%TD*%
D17*
%TO.C,U8*%
X131635000Y-71836400D03*
X132585000Y-71836400D03*
X133535000Y-71836400D03*
X133535000Y-69326400D03*
X132585000Y-69326400D03*
X131635000Y-69326400D03*
%TD*%
D18*
%TO.C,BT2*%
X188976000Y-61722000D03*
D19*
X189026000Y-60222000D03*
%TD*%
D20*
%TO.C,R21*%
X129794000Y-80213200D03*
X127794000Y-80213200D03*
%TD*%
D16*
%TO.C,D5*%
X136321400Y-66370200D03*
X138121400Y-66370200D03*
%TD*%
D20*
%TO.C,R23*%
X121345200Y-82931000D03*
X119345200Y-82931000D03*
%TD*%
D12*
%TO.C,C16*%
X130321300Y-65557400D03*
X129186300Y-65557400D03*
%TD*%
D21*
%TO.C,J5*%
X137713250Y-85232500D03*
X136613250Y-85232500D03*
X135513250Y-85232500D03*
X134413250Y-85232500D03*
X133313250Y-85232500D03*
X132213250Y-85232500D03*
X131113250Y-85232500D03*
X130013250Y-85232500D03*
X128913250Y-85232500D03*
%TD*%
D20*
%TO.C,R22*%
X121192800Y-75285600D03*
X119192800Y-75285600D03*
%TD*%
D14*
%TO.C,R14*%
X168402000Y-63219000D03*
X168402000Y-61749000D03*
%TD*%
D22*
%TO.C,R13*%
X127213800Y-62980400D03*
X127213800Y-61530400D03*
%TD*%
D23*
%TO.C,L1*%
X168148000Y-73816000D03*
X168148000Y-75536000D03*
%TD*%
D24*
%TO.C,R12*%
X131128600Y-73888600D03*
X132598600Y-73888600D03*
%TD*%
D14*
%TO.C,R11*%
X140447200Y-61569600D03*
X140447200Y-63039600D03*
%TD*%
D25*
%TO.C,U6*%
X186871000Y-66335000D03*
X186871000Y-66985000D03*
X186871000Y-67635000D03*
X186871000Y-68285000D03*
X191081000Y-68285000D03*
X191081000Y-67635000D03*
X191081000Y-66985000D03*
X191081000Y-66335000D03*
%TD*%
D26*
%TO.C,L2*%
X142591400Y-77749400D03*
X147091400Y-77749400D03*
%TD*%
D27*
%TO.C,R26*%
X144600700Y-68326000D03*
X143405700Y-68326000D03*
%TD*%
D28*
%TO.C,D4*%
X168402000Y-65140000D03*
X168402000Y-66940000D03*
%TD*%
D29*
%TO.C,C2*%
X138931400Y-74650600D03*
X140591400Y-74650600D03*
%TD*%
D30*
%TO.C,Q3*%
X128397800Y-75783800D03*
X128397800Y-76433800D03*
X128397800Y-77083800D03*
X128397800Y-77733800D03*
X134157800Y-77733800D03*
X134157800Y-77083800D03*
X134157800Y-76433800D03*
X134157800Y-75783800D03*
%TD*%
D31*
%TO.C,AE2*%
X165580000Y-72392000D03*
X165580000Y-75440000D03*
%TD*%
D32*
%TO.C,U7*%
X130261800Y-60223400D03*
X130261800Y-61493400D03*
X130261800Y-62763400D03*
X130261800Y-64033400D03*
X135211800Y-64033400D03*
X135211800Y-62763400D03*
X135211800Y-61493400D03*
X135211800Y-60223400D03*
%TD*%
D14*
%TO.C,R1*%
X138110400Y-62792000D03*
X138110400Y-64262000D03*
%TD*%
D33*
%TO.C,D1*%
X186182000Y-57756000D03*
X186182000Y-61116000D03*
%TD*%
D24*
%TO.C,R20*%
X143142800Y-69824600D03*
X144612800Y-69824600D03*
%TD*%
D20*
%TO.C,R15*%
X126374400Y-75565000D03*
X124374400Y-75565000D03*
%TD*%
D12*
%TO.C,C18*%
X134740900Y-67665600D03*
X133605900Y-67665600D03*
%TD*%
D34*
%TO.C,R24*%
X168148000Y-69162000D03*
X168148000Y-72062000D03*
%TD*%
D35*
%TO.C,U9*%
X125044200Y-81153000D03*
X125044200Y-80492600D03*
X125044200Y-79857600D03*
X125044200Y-79197200D03*
X125044200Y-78536800D03*
X125044200Y-77901800D03*
X125044200Y-77241400D03*
X119202200Y-77241400D03*
X119202200Y-77901800D03*
X119202200Y-78536800D03*
X119202200Y-79197200D03*
X119202200Y-79857600D03*
X119202200Y-80492600D03*
X119202200Y-81153000D03*
%TD*%
D36*
%TO.C,U10*%
X144607300Y-73455700D03*
X144607300Y-72505700D03*
X144607300Y-71555700D03*
X142332300Y-71555700D03*
X142332300Y-72505700D03*
X142332300Y-73455700D03*
%TD*%
D37*
%TO.C,R25*%
X132713000Y-66090800D03*
X134313000Y-66090800D03*
%TD*%
D38*
%TO.C,D2*%
X149083200Y-72745600D03*
X149083200Y-65835600D03*
%TD*%
M02*
