%TF.GenerationSoftware,KiCad,Pcbnew,8.0.3*%
%TF.CreationDate,2025-01-08T01:15:00+05:30*%
%TF.ProjectId,gps,6770732e-6b69-4636-9164-5f7063625858,rev?*%
%TF.SameCoordinates,Original*%
%TF.FileFunction,Soldermask,Bot*%
%TF.FilePolarity,Negative*%
%FSLAX46Y46*%
G04 Gerber Fmt 4.6, Leading zero omitted, Abs format (unit mm)*
G04 Created by KiCad (PCBNEW 8.0.3) date 2025-01-08 01:15:00*
%MOMM*%
%LPD*%
G01*
G04 APERTURE LIST*
G04 Aperture macros list*
%AMRoundRect*
0 Rectangle with rounded corners*
0 $1 Rounding radius*
0 $2 $3 $4 $5 $6 $7 $8 $9 X,Y pos of 4 corners*
0 Add a 4 corners polygon primitive as box body*
4,1,4,$2,$3,$4,$5,$6,$7,$8,$9,$2,$3,0*
0 Add four circle primitives for the rounded corners*
1,1,$1+$1,$2,$3*
1,1,$1+$1,$4,$5*
1,1,$1+$1,$6,$7*
1,1,$1+$1,$8,$9*
0 Add four rect primitives between the rounded corners*
20,1,$1+$1,$2,$3,$4,$5,0*
20,1,$1+$1,$4,$5,$6,$7,0*
20,1,$1+$1,$6,$7,$8,$9,0*
20,1,$1+$1,$8,$9,$2,$3,0*%
G04 Aperture macros list end*
%ADD10C,0.010000*%
%ADD11O,1.754000X2.554000*%
%ADD12O,1.254000X2.904000*%
%ADD13RoundRect,0.102000X-0.654000X-0.654000X0.654000X-0.654000X0.654000X0.654000X-0.654000X0.654000X0*%
%ADD14C,1.512000*%
%ADD15RoundRect,0.075000X-0.075000X-0.175000X0.075000X-0.175000X0.075000X0.175000X-0.075000X0.175000X0*%
%ADD16R,0.900000X1.000000*%
%ADD17RoundRect,0.102000X0.460000X0.690000X-0.460000X0.690000X-0.460000X-0.690000X0.460000X-0.690000X0*%
%ADD18RoundRect,0.102000X0.485000X0.865000X-0.485000X0.865000X-0.485000X-0.865000X0.485000X-0.865000X0*%
%ADD19R,0.800000X1.000000*%
%ADD20RoundRect,0.155000X0.212500X0.155000X-0.212500X0.155000X-0.212500X-0.155000X0.212500X-0.155000X0*%
%ADD21R,0.900000X0.950000*%
%ADD22RoundRect,0.102000X0.605000X0.365000X-0.605000X0.365000X-0.605000X-0.365000X0.605000X-0.365000X0*%
%ADD23RoundRect,0.102000X0.750000X-0.200000X0.750000X0.200000X-0.750000X0.200000X-0.750000X-0.200000X0*%
%ADD24RoundRect,0.160000X-0.197500X-0.160000X0.197500X-0.160000X0.197500X0.160000X-0.197500X0.160000X0*%
%ADD25C,1.704000*%
%ADD26C,1.404000*%
%ADD27RoundRect,0.102000X1.500000X-0.500000X1.500000X0.500000X-1.500000X0.500000X-1.500000X-0.500000X0*%
%ADD28RoundRect,0.102000X0.550000X-0.500000X0.550000X0.500000X-0.550000X0.500000X-0.550000X-0.500000X0*%
%ADD29RoundRect,0.160000X-0.160000X0.197500X-0.160000X-0.197500X0.160000X-0.197500X0.160000X0.197500X0*%
%ADD30RoundRect,0.102000X-0.865000X0.485000X-0.865000X-0.485000X0.865000X-0.485000X0.865000X0.485000X0*%
%ADD31R,1.470000X0.970000*%
%ADD32RoundRect,0.160000X0.160000X-0.197500X0.160000X0.197500X-0.160000X0.197500X-0.160000X-0.197500X0*%
%ADD33RoundRect,0.102000X-0.450000X-0.700000X0.450000X-0.700000X0.450000X0.700000X-0.450000X0.700000X0*%
%ADD34RoundRect,0.148500X0.148500X-0.483500X0.148500X0.483500X-0.148500X0.483500X-0.148500X-0.483500X0*%
%ADD35R,1.000000X0.950000*%
%ADD36R,1.000000X0.300000*%
%ADD37R,0.300000X1.000000*%
%ADD38R,3.350000X3.350000*%
%ADD39R,0.950000X1.000000*%
%ADD40RoundRect,0.283500X0.543500X0.283500X-0.543500X0.283500X-0.543500X-0.283500X0.543500X-0.283500X0*%
%ADD41RoundRect,0.102000X2.000000X2.000000X-2.000000X2.000000X-2.000000X-2.000000X2.000000X-2.000000X0*%
%ADD42RoundRect,0.102000X-0.520000X-0.510000X0.520000X-0.510000X0.520000X0.510000X-0.520000X0.510000X0*%
%ADD43RoundRect,0.155000X-0.212500X-0.155000X0.212500X-0.155000X0.212500X0.155000X-0.212500X0.155000X0*%
%ADD44R,2.311400X1.651000*%
%ADD45RoundRect,0.102000X0.700000X-0.450000X0.700000X0.450000X-0.700000X0.450000X-0.700000X-0.450000X0*%
%ADD46RoundRect,0.102000X0.300000X-0.400000X0.300000X0.400000X-0.300000X0.400000X-0.300000X-0.400000X0*%
%ADD47RoundRect,0.102000X0.400000X0.300000X-0.400000X0.300000X-0.400000X-0.300000X0.400000X-0.300000X0*%
%ADD48RoundRect,0.155000X0.155000X-0.212500X0.155000X0.212500X-0.155000X0.212500X-0.155000X-0.212500X0*%
%ADD49RoundRect,0.102000X-0.300000X0.400000X-0.300000X-0.400000X0.300000X-0.400000X0.300000X0.400000X0*%
%ADD50RoundRect,0.102000X-0.460000X-0.690000X0.460000X-0.690000X0.460000X0.690000X-0.460000X0.690000X0*%
%ADD51O,0.804000X2.204000*%
%ADD52O,2.204000X0.804000*%
%ADD53RoundRect,0.102000X-1.050000X1.050000X-1.050000X-1.050000X1.050000X-1.050000X1.050000X1.050000X0*%
%ADD54RoundRect,0.102000X-0.450000X0.550000X-0.450000X-0.550000X0.450000X-0.550000X0.450000X0.550000X0*%
%ADD55RoundRect,0.102000X-0.550000X0.450000X-0.550000X-0.450000X0.550000X-0.450000X0.550000X0.450000X0*%
%ADD56R,1.050000X1.600000*%
%ADD57RoundRect,0.085050X0.671950X0.481950X-0.671950X0.481950X-0.671950X-0.481950X0.671950X-0.481950X0*%
%ADD58RoundRect,0.113550X0.643450X1.608450X-0.643450X1.608450X-0.643450X-1.608450X0.643450X-1.608450X0*%
G04 APERTURE END LIST*
D10*
%TO.C,J1*%
X121647800Y-64894800D02*
X121683800Y-64897800D01*
X121720800Y-64902800D01*
X121756800Y-64908800D01*
X121791800Y-64917800D01*
X121826800Y-64927800D01*
X121861800Y-64939800D01*
X121895800Y-64954800D01*
X121928800Y-64969800D01*
X121960800Y-64987800D01*
X121991800Y-65006800D01*
X122021800Y-65027800D01*
X122051800Y-65049800D01*
X122078800Y-65073800D01*
X122105800Y-65098800D01*
X122130800Y-65125800D01*
X122154800Y-65152800D01*
X122176800Y-65182800D01*
X122197800Y-65212800D01*
X122216800Y-65243800D01*
X122234800Y-65275800D01*
X122249800Y-65308800D01*
X122264800Y-65342800D01*
X122276800Y-65377800D01*
X122286800Y-65412800D01*
X122295800Y-65447800D01*
X122301800Y-65483800D01*
X122306800Y-65520800D01*
X122309800Y-65556800D01*
X122310800Y-65593800D01*
X122309800Y-65630800D01*
X122306800Y-65666800D01*
X122301800Y-65703800D01*
X122295800Y-65739800D01*
X122286800Y-65774800D01*
X122276800Y-65809800D01*
X122264800Y-65844800D01*
X122249800Y-65878800D01*
X122234800Y-65911800D01*
X122216800Y-65943800D01*
X122197800Y-65974800D01*
X122176800Y-66004800D01*
X122154800Y-66034800D01*
X122130800Y-66061800D01*
X122105800Y-66088800D01*
X122078800Y-66113800D01*
X122051800Y-66137800D01*
X122021800Y-66159800D01*
X121991800Y-66180800D01*
X121960800Y-66199800D01*
X121928800Y-66217800D01*
X121895800Y-66232800D01*
X121861800Y-66247800D01*
X121826800Y-66259800D01*
X121791800Y-66269800D01*
X121756800Y-66278800D01*
X121720800Y-66284800D01*
X121683800Y-66289800D01*
X121647800Y-66292800D01*
X121610800Y-66293800D01*
X121060800Y-66293800D01*
X121023800Y-66292800D01*
X120987800Y-66289800D01*
X120950800Y-66284800D01*
X120914800Y-66278800D01*
X120879800Y-66269800D01*
X120844800Y-66259800D01*
X120809800Y-66247800D01*
X120775800Y-66232800D01*
X120742800Y-66217800D01*
X120710800Y-66199800D01*
X120679800Y-66180800D01*
X120649800Y-66159800D01*
X120619800Y-66137800D01*
X120592800Y-66113800D01*
X120565800Y-66088800D01*
X120540800Y-66061800D01*
X120516800Y-66034800D01*
X120494800Y-66004800D01*
X120473800Y-65974800D01*
X120454800Y-65943800D01*
X120436800Y-65911800D01*
X120421800Y-65878800D01*
X120406800Y-65844800D01*
X120394800Y-65809800D01*
X120384800Y-65774800D01*
X120375800Y-65739800D01*
X120369800Y-65703800D01*
X120364800Y-65666800D01*
X120361800Y-65630800D01*
X120360800Y-65593800D01*
X120361800Y-65556800D01*
X120364800Y-65520800D01*
X120369800Y-65483800D01*
X120375800Y-65447800D01*
X120384800Y-65412800D01*
X120394800Y-65377800D01*
X120406800Y-65342800D01*
X120421800Y-65308800D01*
X120436800Y-65275800D01*
X120454800Y-65243800D01*
X120473800Y-65212800D01*
X120494800Y-65182800D01*
X120516800Y-65152800D01*
X120540800Y-65125800D01*
X120565800Y-65098800D01*
X120592800Y-65073800D01*
X120619800Y-65049800D01*
X120649800Y-65027800D01*
X120679800Y-65006800D01*
X120710800Y-64987800D01*
X120742800Y-64969800D01*
X120775800Y-64954800D01*
X120809800Y-64939800D01*
X120844800Y-64927800D01*
X120879800Y-64917800D01*
X120914800Y-64908800D01*
X120950800Y-64902800D01*
X120987800Y-64897800D01*
X121023800Y-64894800D01*
X121060800Y-64893800D01*
X121610800Y-64893800D01*
X121647800Y-64894800D01*
G36*
X121647800Y-64894800D02*
G01*
X121683800Y-64897800D01*
X121720800Y-64902800D01*
X121756800Y-64908800D01*
X121791800Y-64917800D01*
X121826800Y-64927800D01*
X121861800Y-64939800D01*
X121895800Y-64954800D01*
X121928800Y-64969800D01*
X121960800Y-64987800D01*
X121991800Y-65006800D01*
X122021800Y-65027800D01*
X122051800Y-65049800D01*
X122078800Y-65073800D01*
X122105800Y-65098800D01*
X122130800Y-65125800D01*
X122154800Y-65152800D01*
X122176800Y-65182800D01*
X122197800Y-65212800D01*
X122216800Y-65243800D01*
X122234800Y-65275800D01*
X122249800Y-65308800D01*
X122264800Y-65342800D01*
X122276800Y-65377800D01*
X122286800Y-65412800D01*
X122295800Y-65447800D01*
X122301800Y-65483800D01*
X122306800Y-65520800D01*
X122309800Y-65556800D01*
X122310800Y-65593800D01*
X122309800Y-65630800D01*
X122306800Y-65666800D01*
X122301800Y-65703800D01*
X122295800Y-65739800D01*
X122286800Y-65774800D01*
X122276800Y-65809800D01*
X122264800Y-65844800D01*
X122249800Y-65878800D01*
X122234800Y-65911800D01*
X122216800Y-65943800D01*
X122197800Y-65974800D01*
X122176800Y-66004800D01*
X122154800Y-66034800D01*
X122130800Y-66061800D01*
X122105800Y-66088800D01*
X122078800Y-66113800D01*
X122051800Y-66137800D01*
X122021800Y-66159800D01*
X121991800Y-66180800D01*
X121960800Y-66199800D01*
X121928800Y-66217800D01*
X121895800Y-66232800D01*
X121861800Y-66247800D01*
X121826800Y-66259800D01*
X121791800Y-66269800D01*
X121756800Y-66278800D01*
X121720800Y-66284800D01*
X121683800Y-66289800D01*
X121647800Y-66292800D01*
X121610800Y-66293800D01*
X121060800Y-66293800D01*
X121023800Y-66292800D01*
X120987800Y-66289800D01*
X120950800Y-66284800D01*
X120914800Y-66278800D01*
X120879800Y-66269800D01*
X120844800Y-66259800D01*
X120809800Y-66247800D01*
X120775800Y-66232800D01*
X120742800Y-66217800D01*
X120710800Y-66199800D01*
X120679800Y-66180800D01*
X120649800Y-66159800D01*
X120619800Y-66137800D01*
X120592800Y-66113800D01*
X120565800Y-66088800D01*
X120540800Y-66061800D01*
X120516800Y-66034800D01*
X120494800Y-66004800D01*
X120473800Y-65974800D01*
X120454800Y-65943800D01*
X120436800Y-65911800D01*
X120421800Y-65878800D01*
X120406800Y-65844800D01*
X120394800Y-65809800D01*
X120384800Y-65774800D01*
X120375800Y-65739800D01*
X120369800Y-65703800D01*
X120364800Y-65666800D01*
X120361800Y-65630800D01*
X120360800Y-65593800D01*
X120361800Y-65556800D01*
X120364800Y-65520800D01*
X120369800Y-65483800D01*
X120375800Y-65447800D01*
X120384800Y-65412800D01*
X120394800Y-65377800D01*
X120406800Y-65342800D01*
X120421800Y-65308800D01*
X120436800Y-65275800D01*
X120454800Y-65243800D01*
X120473800Y-65212800D01*
X120494800Y-65182800D01*
X120516800Y-65152800D01*
X120540800Y-65125800D01*
X120565800Y-65098800D01*
X120592800Y-65073800D01*
X120619800Y-65049800D01*
X120649800Y-65027800D01*
X120679800Y-65006800D01*
X120710800Y-64987800D01*
X120742800Y-64969800D01*
X120775800Y-64954800D01*
X120809800Y-64939800D01*
X120844800Y-64927800D01*
X120879800Y-64917800D01*
X120914800Y-64908800D01*
X120950800Y-64902800D01*
X120987800Y-64897800D01*
X121023800Y-64894800D01*
X121060800Y-64893800D01*
X121610800Y-64893800D01*
X121647800Y-64894800D01*
G37*
X121647800Y-72044800D02*
X121683800Y-72047800D01*
X121720800Y-72052800D01*
X121756800Y-72058800D01*
X121791800Y-72067800D01*
X121826800Y-72077800D01*
X121861800Y-72089800D01*
X121895800Y-72104800D01*
X121928800Y-72119800D01*
X121960800Y-72137800D01*
X121991800Y-72156800D01*
X122021800Y-72177800D01*
X122051800Y-72199800D01*
X122078800Y-72223800D01*
X122105800Y-72248800D01*
X122130800Y-72275800D01*
X122154800Y-72302800D01*
X122176800Y-72332800D01*
X122197800Y-72362800D01*
X122216800Y-72393800D01*
X122234800Y-72425800D01*
X122249800Y-72458800D01*
X122264800Y-72492800D01*
X122276800Y-72527800D01*
X122286800Y-72562800D01*
X122295800Y-72597800D01*
X122301800Y-72633800D01*
X122306800Y-72670800D01*
X122309800Y-72706800D01*
X122310800Y-72743800D01*
X122309800Y-72780800D01*
X122306800Y-72816800D01*
X122301800Y-72853800D01*
X122295800Y-72889800D01*
X122286800Y-72924800D01*
X122276800Y-72959800D01*
X122264800Y-72994800D01*
X122249800Y-73028800D01*
X122234800Y-73061800D01*
X122216800Y-73093800D01*
X122197800Y-73124800D01*
X122176800Y-73154800D01*
X122154800Y-73184800D01*
X122130800Y-73211800D01*
X122105800Y-73238800D01*
X122078800Y-73263800D01*
X122051800Y-73287800D01*
X122021800Y-73309800D01*
X121991800Y-73330800D01*
X121960800Y-73349800D01*
X121928800Y-73367800D01*
X121895800Y-73382800D01*
X121861800Y-73397800D01*
X121826800Y-73409800D01*
X121791800Y-73419800D01*
X121756800Y-73428800D01*
X121720800Y-73434800D01*
X121683800Y-73439800D01*
X121647800Y-73442800D01*
X121610800Y-73443800D01*
X121060800Y-73443800D01*
X121023800Y-73442800D01*
X120987800Y-73439800D01*
X120950800Y-73434800D01*
X120914800Y-73428800D01*
X120879800Y-73419800D01*
X120844800Y-73409800D01*
X120809800Y-73397800D01*
X120775800Y-73382800D01*
X120742800Y-73367800D01*
X120710800Y-73349800D01*
X120679800Y-73330800D01*
X120649800Y-73309800D01*
X120619800Y-73287800D01*
X120592800Y-73263800D01*
X120565800Y-73238800D01*
X120540800Y-73211800D01*
X120516800Y-73184800D01*
X120494800Y-73154800D01*
X120473800Y-73124800D01*
X120454800Y-73093800D01*
X120436800Y-73061800D01*
X120421800Y-73028800D01*
X120406800Y-72994800D01*
X120394800Y-72959800D01*
X120384800Y-72924800D01*
X120375800Y-72889800D01*
X120369800Y-72853800D01*
X120364800Y-72816800D01*
X120361800Y-72780800D01*
X120360800Y-72743800D01*
X120361800Y-72706800D01*
X120364800Y-72670800D01*
X120369800Y-72633800D01*
X120375800Y-72597800D01*
X120384800Y-72562800D01*
X120394800Y-72527800D01*
X120406800Y-72492800D01*
X120421800Y-72458800D01*
X120436800Y-72425800D01*
X120454800Y-72393800D01*
X120473800Y-72362800D01*
X120494800Y-72332800D01*
X120516800Y-72302800D01*
X120540800Y-72275800D01*
X120565800Y-72248800D01*
X120592800Y-72223800D01*
X120619800Y-72199800D01*
X120649800Y-72177800D01*
X120679800Y-72156800D01*
X120710800Y-72137800D01*
X120742800Y-72119800D01*
X120775800Y-72104800D01*
X120809800Y-72089800D01*
X120844800Y-72077800D01*
X120879800Y-72067800D01*
X120914800Y-72058800D01*
X120950800Y-72052800D01*
X120987800Y-72047800D01*
X121023800Y-72044800D01*
X121060800Y-72043800D01*
X121610800Y-72043800D01*
X121647800Y-72044800D01*
G36*
X121647800Y-72044800D02*
G01*
X121683800Y-72047800D01*
X121720800Y-72052800D01*
X121756800Y-72058800D01*
X121791800Y-72067800D01*
X121826800Y-72077800D01*
X121861800Y-72089800D01*
X121895800Y-72104800D01*
X121928800Y-72119800D01*
X121960800Y-72137800D01*
X121991800Y-72156800D01*
X122021800Y-72177800D01*
X122051800Y-72199800D01*
X122078800Y-72223800D01*
X122105800Y-72248800D01*
X122130800Y-72275800D01*
X122154800Y-72302800D01*
X122176800Y-72332800D01*
X122197800Y-72362800D01*
X122216800Y-72393800D01*
X122234800Y-72425800D01*
X122249800Y-72458800D01*
X122264800Y-72492800D01*
X122276800Y-72527800D01*
X122286800Y-72562800D01*
X122295800Y-72597800D01*
X122301800Y-72633800D01*
X122306800Y-72670800D01*
X122309800Y-72706800D01*
X122310800Y-72743800D01*
X122309800Y-72780800D01*
X122306800Y-72816800D01*
X122301800Y-72853800D01*
X122295800Y-72889800D01*
X122286800Y-72924800D01*
X122276800Y-72959800D01*
X122264800Y-72994800D01*
X122249800Y-73028800D01*
X122234800Y-73061800D01*
X122216800Y-73093800D01*
X122197800Y-73124800D01*
X122176800Y-73154800D01*
X122154800Y-73184800D01*
X122130800Y-73211800D01*
X122105800Y-73238800D01*
X122078800Y-73263800D01*
X122051800Y-73287800D01*
X122021800Y-73309800D01*
X121991800Y-73330800D01*
X121960800Y-73349800D01*
X121928800Y-73367800D01*
X121895800Y-73382800D01*
X121861800Y-73397800D01*
X121826800Y-73409800D01*
X121791800Y-73419800D01*
X121756800Y-73428800D01*
X121720800Y-73434800D01*
X121683800Y-73439800D01*
X121647800Y-73442800D01*
X121610800Y-73443800D01*
X121060800Y-73443800D01*
X121023800Y-73442800D01*
X120987800Y-73439800D01*
X120950800Y-73434800D01*
X120914800Y-73428800D01*
X120879800Y-73419800D01*
X120844800Y-73409800D01*
X120809800Y-73397800D01*
X120775800Y-73382800D01*
X120742800Y-73367800D01*
X120710800Y-73349800D01*
X120679800Y-73330800D01*
X120649800Y-73309800D01*
X120619800Y-73287800D01*
X120592800Y-73263800D01*
X120565800Y-73238800D01*
X120540800Y-73211800D01*
X120516800Y-73184800D01*
X120494800Y-73154800D01*
X120473800Y-73124800D01*
X120454800Y-73093800D01*
X120436800Y-73061800D01*
X120421800Y-73028800D01*
X120406800Y-72994800D01*
X120394800Y-72959800D01*
X120384800Y-72924800D01*
X120375800Y-72889800D01*
X120369800Y-72853800D01*
X120364800Y-72816800D01*
X120361800Y-72780800D01*
X120360800Y-72743800D01*
X120361800Y-72706800D01*
X120364800Y-72670800D01*
X120369800Y-72633800D01*
X120375800Y-72597800D01*
X120384800Y-72562800D01*
X120394800Y-72527800D01*
X120406800Y-72492800D01*
X120421800Y-72458800D01*
X120436800Y-72425800D01*
X120454800Y-72393800D01*
X120473800Y-72362800D01*
X120494800Y-72332800D01*
X120516800Y-72302800D01*
X120540800Y-72275800D01*
X120565800Y-72248800D01*
X120592800Y-72223800D01*
X120619800Y-72199800D01*
X120649800Y-72177800D01*
X120679800Y-72156800D01*
X120710800Y-72137800D01*
X120742800Y-72119800D01*
X120775800Y-72104800D01*
X120809800Y-72089800D01*
X120844800Y-72077800D01*
X120879800Y-72067800D01*
X120914800Y-72058800D01*
X120950800Y-72052800D01*
X120987800Y-72047800D01*
X121023800Y-72044800D01*
X121060800Y-72043800D01*
X121610800Y-72043800D01*
X121647800Y-72044800D01*
G37*
%TD*%
D11*
%TO.C,J5*%
X126963250Y-86582500D03*
X143413250Y-86582500D03*
D12*
X127263250Y-95482500D03*
X143663250Y-95482500D03*
%TD*%
D13*
%TO.C,J2*%
X138932600Y-71568400D03*
D14*
X136932600Y-71568400D03*
%TD*%
D15*
%TO.C,U3*%
X123669300Y-68783200D03*
X124369300Y-68783200D03*
%TD*%
D16*
%TO.C,R9*%
X137960200Y-80416400D03*
X139560200Y-80416400D03*
%TD*%
D17*
%TO.C,R34*%
X168237000Y-66827400D03*
X166327000Y-66827400D03*
%TD*%
%TO.C,R4*%
X138750000Y-73863200D03*
X136840000Y-73863200D03*
%TD*%
D18*
%TO.C,R19*%
X187636600Y-70510400D03*
X184676600Y-70510400D03*
%TD*%
D19*
%TO.C,R5*%
X142152000Y-81508600D03*
X143852000Y-81508600D03*
%TD*%
D20*
%TO.C,C5*%
X134628700Y-62357000D03*
X133493700Y-62357000D03*
%TD*%
D21*
%TO.C,R31*%
X187528200Y-61010800D03*
X185928200Y-61010800D03*
%TD*%
D22*
%TO.C,D6*%
X127682200Y-68173600D03*
X131042200Y-68173600D03*
%TD*%
D23*
%TO.C,J1*%
X122225800Y-70468800D03*
X122225800Y-69818800D03*
X122225800Y-69168800D03*
X122225800Y-68518800D03*
X122225800Y-67868800D03*
%TD*%
D24*
%TO.C,R28*%
X198856600Y-87172800D03*
X200051600Y-87172800D03*
%TD*%
D25*
%TO.C,J4*%
X199075400Y-69737400D03*
D26*
X207375400Y-60737400D03*
D27*
X203225400Y-60037400D03*
X203225400Y-70637400D03*
D28*
X197325400Y-62797400D03*
X197325400Y-65337400D03*
X197325400Y-67877400D03*
X209125400Y-62797400D03*
X209125400Y-65337400D03*
X209125400Y-67877400D03*
%TD*%
D21*
%TO.C,R33*%
X185648600Y-66548000D03*
X184048600Y-66548000D03*
%TD*%
D29*
%TO.C,R27*%
X200101200Y-88404100D03*
X200101200Y-89599100D03*
%TD*%
D30*
%TO.C,R29*%
X192887600Y-62883600D03*
X192887600Y-65843600D03*
%TD*%
D16*
%TO.C,R10*%
X131152800Y-73736200D03*
X129552800Y-73736200D03*
%TD*%
D31*
%TO.C,C21*%
X134467600Y-66362000D03*
X134467600Y-64702000D03*
%TD*%
D32*
%TO.C,R17*%
X200075800Y-92037500D03*
X200075800Y-90842500D03*
%TD*%
D33*
%TO.C,S1*%
X132971400Y-83515200D03*
X139471400Y-83515200D03*
%TD*%
D34*
%TO.C,U11*%
X202910200Y-90978000D03*
X202260200Y-90978000D03*
X201610200Y-90978000D03*
X201610200Y-89108000D03*
X202260200Y-89108000D03*
X202910200Y-89108000D03*
%TD*%
D35*
%TO.C,C12*%
X130225800Y-77901600D03*
X130225800Y-76301600D03*
%TD*%
D36*
%TO.C,IC1*%
X136485000Y-66383800D03*
X136485000Y-65883800D03*
X136485000Y-65383800D03*
X136485000Y-64883800D03*
X136485000Y-64383800D03*
X136485000Y-63883800D03*
X136485000Y-63383800D03*
D37*
X137335000Y-62533800D03*
X137835000Y-62533800D03*
X138335000Y-62533800D03*
X138835000Y-62533800D03*
X139335000Y-62533800D03*
X139835000Y-62533800D03*
X140335000Y-62533800D03*
D36*
X141185000Y-63383800D03*
X141185000Y-63883800D03*
X141185000Y-64383800D03*
X141185000Y-64883800D03*
X141185000Y-65383800D03*
X141185000Y-65883800D03*
X141185000Y-66383800D03*
D37*
X140335000Y-67233800D03*
X139835000Y-67233800D03*
X139335000Y-67233800D03*
X138835000Y-67233800D03*
X138335000Y-67233800D03*
X137835000Y-67233800D03*
X137335000Y-67233800D03*
D38*
X138835000Y-64883800D03*
%TD*%
D39*
%TO.C,C10*%
X168402000Y-69367400D03*
X166802000Y-69367400D03*
%TD*%
%TO.C,C11*%
X133705800Y-79857600D03*
X135305800Y-79857600D03*
%TD*%
D15*
%TO.C,U4*%
X123679200Y-69799200D03*
X124379200Y-69799200D03*
%TD*%
D40*
%TO.C,A1*%
X163779200Y-63728600D03*
X163779200Y-64998600D03*
X163779200Y-66268600D03*
X163779200Y-67538600D03*
X163779200Y-68808600D03*
X163779200Y-70078600D03*
X163779200Y-71348600D03*
X163779200Y-72618600D03*
X163779200Y-73888600D03*
X163779200Y-75158600D03*
X163779200Y-76428600D03*
X163779200Y-77698600D03*
X163779200Y-78968600D03*
X163779200Y-80238600D03*
X163779200Y-81508600D03*
X163779200Y-82778600D03*
X163779200Y-84048600D03*
X163779200Y-85318600D03*
X163779200Y-86588600D03*
X146159200Y-86588600D03*
X146159200Y-85318600D03*
X146159200Y-84048600D03*
X146159200Y-82778600D03*
X146159200Y-81508600D03*
X146159200Y-80238600D03*
X146159200Y-78968600D03*
X146159200Y-77698600D03*
X146159200Y-76428600D03*
X146159200Y-75158600D03*
X146159200Y-73888600D03*
X146159200Y-72618600D03*
X146159200Y-71348600D03*
X146159200Y-70078600D03*
X146159200Y-68808600D03*
X146159200Y-67538600D03*
X146159200Y-66268600D03*
X146159200Y-64998600D03*
X146159200Y-63728600D03*
D41*
X156349200Y-71518600D03*
%TD*%
D42*
%TO.C,R35*%
X175412400Y-70891400D03*
X176882400Y-70891400D03*
%TD*%
D43*
%TO.C,C14*%
X198847900Y-86029800D03*
X199982900Y-86029800D03*
%TD*%
D20*
%TO.C,C13*%
X202954700Y-87680800D03*
X201819700Y-87680800D03*
%TD*%
D43*
%TO.C,C9*%
X166873400Y-61087000D03*
X168008400Y-61087000D03*
%TD*%
D19*
%TO.C,R6*%
X142101200Y-79806800D03*
X143801200Y-79806800D03*
%TD*%
D20*
%TO.C,C4*%
X134645400Y-63398400D03*
X133510400Y-63398400D03*
%TD*%
D44*
%TO.C,AE1*%
X167990000Y-84865900D03*
X167990000Y-89514100D03*
%TD*%
D45*
%TO.C,S2*%
X126415800Y-80212000D03*
X126415800Y-73712000D03*
%TD*%
D46*
%TO.C,Q5*%
X189291000Y-68574000D03*
X187391000Y-68574000D03*
X188341000Y-66554000D03*
%TD*%
D47*
%TO.C,Q1*%
X139567000Y-76799400D03*
X139567000Y-78699400D03*
X137547000Y-77749400D03*
%TD*%
%TO.C,Q4*%
X134874000Y-72826800D03*
X134874000Y-74726800D03*
X132854000Y-73776800D03*
%TD*%
D21*
%TO.C,R30*%
X190906400Y-70789800D03*
X189306400Y-70789800D03*
%TD*%
%TO.C,R32*%
X189179200Y-61036200D03*
X190779200Y-61036200D03*
%TD*%
D48*
%TO.C,C1*%
X132562600Y-66048700D03*
X132562600Y-64913700D03*
%TD*%
D49*
%TO.C,Q2*%
X187401200Y-62636400D03*
X189301200Y-62636400D03*
X188351200Y-64656400D03*
%TD*%
D50*
%TO.C,R7*%
X133588800Y-76784200D03*
X135498800Y-76784200D03*
%TD*%
D51*
%TO.C,U1*%
X176903800Y-73009400D03*
X177903800Y-73009400D03*
X178903800Y-73009400D03*
X179903800Y-73009400D03*
X180903800Y-73009400D03*
X181903800Y-73009400D03*
X182903800Y-73009400D03*
X183903800Y-73009400D03*
X184903800Y-73009400D03*
X185903800Y-73009400D03*
X186903800Y-73009400D03*
X187903800Y-73009400D03*
X188903800Y-73009400D03*
X189903800Y-73009400D03*
X190903800Y-73009400D03*
X191903800Y-73009400D03*
X192903800Y-73009400D03*
D52*
X196903800Y-77009400D03*
X196903800Y-78009400D03*
X196903800Y-79009400D03*
X196903800Y-80009400D03*
X196903800Y-81009400D03*
X196903800Y-82009400D03*
X196903800Y-83009400D03*
X196903800Y-84009400D03*
X196903800Y-85009400D03*
X196903800Y-86009400D03*
X196903800Y-87009400D03*
X196903800Y-88009400D03*
X196903800Y-89009400D03*
X196903800Y-90009400D03*
X196903800Y-91009400D03*
X196903800Y-92009400D03*
X196903800Y-93009400D03*
D51*
X192903800Y-97009400D03*
X191903800Y-97009400D03*
X190903800Y-97009400D03*
X189903800Y-97009400D03*
X188903800Y-97009400D03*
X187903800Y-97009400D03*
X186903800Y-97009400D03*
X185903800Y-97009400D03*
X184903800Y-97009400D03*
X183903800Y-97009400D03*
X182903800Y-97009400D03*
X181903800Y-97009400D03*
X180903800Y-97009400D03*
X179903800Y-97009400D03*
X178903800Y-97009400D03*
X177903800Y-97009400D03*
X176903800Y-97009400D03*
D52*
X172903800Y-93009400D03*
X172903800Y-92009400D03*
X172903800Y-91009400D03*
X172903800Y-90009400D03*
X172903800Y-89009400D03*
X172903800Y-88009400D03*
X172903800Y-87009400D03*
X172903800Y-86009400D03*
X172903800Y-85009400D03*
X172903800Y-84009400D03*
X172903800Y-83009400D03*
X172903800Y-82009400D03*
X172903800Y-81009400D03*
X172903800Y-80009400D03*
X172903800Y-79009400D03*
X172903800Y-78009400D03*
X172903800Y-77009400D03*
D53*
X177303800Y-77409400D03*
X181103800Y-77409400D03*
X184903800Y-77409400D03*
X188703800Y-77409400D03*
X192503800Y-77409400D03*
X192503800Y-81209400D03*
X192503800Y-85009400D03*
X192503800Y-88809400D03*
X192503800Y-92609400D03*
X188703800Y-92609400D03*
X184903800Y-92609400D03*
X181103800Y-92609400D03*
X177303800Y-92609400D03*
X177303800Y-88809400D03*
X177303800Y-85009400D03*
X177303800Y-81209400D03*
X184903800Y-81209400D03*
X188703800Y-85009400D03*
X184903800Y-88809400D03*
X181103800Y-85009400D03*
D52*
X196903800Y-74009400D03*
X196903800Y-75009400D03*
X196903800Y-76009400D03*
X196903800Y-94009400D03*
X196903800Y-95009400D03*
X196903800Y-96009400D03*
X172903800Y-96009400D03*
X172903800Y-95009400D03*
X172903800Y-94009400D03*
X172903800Y-76009400D03*
X172903800Y-75009400D03*
X172903800Y-74009400D03*
D54*
X181403800Y-75209400D03*
X182803800Y-75209400D03*
X184203800Y-75209400D03*
X185603800Y-75209400D03*
X187003800Y-75209400D03*
X188403800Y-75209400D03*
D55*
X194703800Y-81509400D03*
X194703800Y-82909400D03*
X194703800Y-84309400D03*
X194703800Y-85709400D03*
X194703800Y-87109400D03*
X194703800Y-88509400D03*
D54*
X188403800Y-94809400D03*
X187003800Y-94809400D03*
X185603800Y-94809400D03*
X184203800Y-94809400D03*
X182803800Y-94809400D03*
X181403800Y-94809400D03*
D55*
X175103800Y-88509400D03*
X175103800Y-87109400D03*
X175103800Y-85709400D03*
X175103800Y-84309400D03*
X175103800Y-82909400D03*
X175103800Y-81509400D03*
%TD*%
D56*
%TO.C,C8*%
X169837200Y-63652400D03*
X166887200Y-63652400D03*
%TD*%
D16*
%TO.C,R3*%
X135826600Y-69621400D03*
X137426600Y-69621400D03*
%TD*%
D19*
%TO.C,R16*%
X170865800Y-76022200D03*
X169265800Y-76022200D03*
%TD*%
D43*
%TO.C,C7*%
X137363200Y-60071000D03*
X138498200Y-60071000D03*
%TD*%
%TO.C,C6*%
X137345800Y-61214000D03*
X138480800Y-61214000D03*
%TD*%
D57*
%TO.C,U2*%
X131025500Y-61006800D03*
X131025500Y-63296800D03*
X131025500Y-65586800D03*
D58*
X124335500Y-63296800D03*
%TD*%
M02*
