%TF.GenerationSoftware,KiCad,Pcbnew,8.0.3*%
%TF.CreationDate,2025-01-08T01:15:00+05:30*%
%TF.ProjectId,gps,6770732e-6b69-4636-9164-5f7063625858,rev?*%
%TF.SameCoordinates,Original*%
%TF.FileFunction,Paste,Bot*%
%TF.FilePolarity,Positive*%
%FSLAX46Y46*%
G04 Gerber Fmt 4.6, Leading zero omitted, Abs format (unit mm)*
G04 Created by KiCad (PCBNEW 8.0.3) date 2025-01-08 01:15:00*
%MOMM*%
%LPD*%
G01*
G04 APERTURE LIST*
G04 Aperture macros list*
%AMRoundRect*
0 Rectangle with rounded corners*
0 $1 Rounding radius*
0 $2 $3 $4 $5 $6 $7 $8 $9 X,Y pos of 4 corners*
0 Add a 4 corners polygon primitive as box body*
4,1,4,$2,$3,$4,$5,$6,$7,$8,$9,$2,$3,0*
0 Add four circle primitives for the rounded corners*
1,1,$1+$1,$2,$3*
1,1,$1+$1,$4,$5*
1,1,$1+$1,$6,$7*
1,1,$1+$1,$8,$9*
0 Add four rect primitives between the rounded corners*
20,1,$1+$1,$2,$3,$4,$5,0*
20,1,$1+$1,$4,$5,$6,$7,0*
20,1,$1+$1,$6,$7,$8,$9,0*
20,1,$1+$1,$8,$9,$2,$3,0*%
G04 Aperture macros list end*
%ADD10C,0.010000*%
%ADD11RoundRect,0.075000X-0.075000X-0.175000X0.075000X-0.175000X0.075000X0.175000X-0.075000X0.175000X0*%
%ADD12R,0.900000X1.000000*%
%ADD13R,0.920000X1.380000*%
%ADD14R,0.970000X1.730000*%
%ADD15R,0.800000X1.000000*%
%ADD16RoundRect,0.155000X0.212500X0.155000X-0.212500X0.155000X-0.212500X-0.155000X0.212500X-0.155000X0*%
%ADD17R,0.900000X0.950000*%
%ADD18R,1.210000X0.730000*%
%ADD19R,1.500000X0.400000*%
%ADD20RoundRect,0.160000X-0.197500X-0.160000X0.197500X-0.160000X0.197500X0.160000X-0.197500X0.160000X0*%
%ADD21R,3.000000X1.000000*%
%ADD22R,1.100000X1.000000*%
%ADD23RoundRect,0.160000X-0.160000X0.197500X-0.160000X-0.197500X0.160000X-0.197500X0.160000X0.197500X0*%
%ADD24R,1.730000X0.970000*%
%ADD25R,1.470000X0.970000*%
%ADD26RoundRect,0.160000X0.160000X-0.197500X0.160000X0.197500X-0.160000X0.197500X-0.160000X-0.197500X0*%
%ADD27R,0.900000X1.400000*%
%ADD28RoundRect,0.097500X0.097500X-0.432500X0.097500X0.432500X-0.097500X0.432500X-0.097500X-0.432500X0*%
%ADD29R,1.000000X0.950000*%
%ADD30R,1.000000X0.300000*%
%ADD31R,0.300000X1.000000*%
%ADD32R,3.350000X3.350000*%
%ADD33R,0.950000X1.000000*%
%ADD34RoundRect,0.232500X0.492500X0.232500X-0.492500X0.232500X-0.492500X-0.232500X0.492500X-0.232500X0*%
%ADD35R,1.040000X1.020000*%
%ADD36RoundRect,0.155000X-0.212500X-0.155000X0.212500X-0.155000X0.212500X0.155000X-0.212500X0.155000X0*%
%ADD37R,2.311400X1.651000*%
%ADD38R,1.400000X0.900000*%
%ADD39R,0.600000X0.800000*%
%ADD40R,0.800000X0.600000*%
%ADD41RoundRect,0.155000X0.155000X-0.212500X0.155000X0.212500X-0.155000X0.212500X-0.155000X-0.212500X0*%
%ADD42O,0.600000X2.000000*%
%ADD43O,2.000000X0.600000*%
%ADD44R,2.100000X2.100000*%
%ADD45R,0.900000X1.100000*%
%ADD46R,1.100000X0.900000*%
%ADD47R,1.050000X1.600000*%
%ADD48RoundRect,0.069750X0.585250X0.395250X-0.585250X0.395250X-0.585250X-0.395250X0.585250X-0.395250X0*%
%ADD49RoundRect,0.098250X0.556750X1.521750X-0.556750X1.521750X-0.556750X-1.521750X0.556750X-1.521750X0*%
G04 APERTURE END LIST*
D10*
%TO.C,A1*%
X157617670Y-72784644D02*
X155084200Y-72784644D01*
X155084200Y-70253600D01*
X157617670Y-70253600D01*
X157617670Y-72784644D01*
G36*
X157617670Y-72784644D02*
G01*
X155084200Y-72784644D01*
X155084200Y-70253600D01*
X157617670Y-70253600D01*
X157617670Y-72784644D01*
G37*
%TD*%
D11*
%TO.C,U3*%
X123669300Y-68783200D03*
X124369300Y-68783200D03*
%TD*%
D12*
%TO.C,R9*%
X137960200Y-80416400D03*
X139560200Y-80416400D03*
%TD*%
D13*
%TO.C,R34*%
X168237000Y-66827400D03*
X166327000Y-66827400D03*
%TD*%
%TO.C,R4*%
X138750000Y-73863200D03*
X136840000Y-73863200D03*
%TD*%
D14*
%TO.C,R19*%
X187636600Y-70510400D03*
X184676600Y-70510400D03*
%TD*%
D15*
%TO.C,R5*%
X142152000Y-81508600D03*
X143852000Y-81508600D03*
%TD*%
D16*
%TO.C,C5*%
X134628700Y-62357000D03*
X133493700Y-62357000D03*
%TD*%
D17*
%TO.C,R31*%
X187528200Y-61010800D03*
X185928200Y-61010800D03*
%TD*%
D18*
%TO.C,D6*%
X127682200Y-68173600D03*
X131042200Y-68173600D03*
%TD*%
D19*
%TO.C,J1*%
X122225800Y-70468800D03*
X122225800Y-69818800D03*
X122225800Y-69168800D03*
X122225800Y-68518800D03*
X122225800Y-67868800D03*
%TD*%
D20*
%TO.C,R28*%
X198856600Y-87172800D03*
X200051600Y-87172800D03*
%TD*%
D21*
%TO.C,J4*%
X203225400Y-60037400D03*
X203225400Y-70637400D03*
D22*
X197325400Y-62797400D03*
X197325400Y-65337400D03*
X197325400Y-67877400D03*
X209125400Y-62797400D03*
X209125400Y-65337400D03*
X209125400Y-67877400D03*
%TD*%
D17*
%TO.C,R33*%
X185648600Y-66548000D03*
X184048600Y-66548000D03*
%TD*%
D23*
%TO.C,R27*%
X200101200Y-88404100D03*
X200101200Y-89599100D03*
%TD*%
D24*
%TO.C,R29*%
X192887600Y-62883600D03*
X192887600Y-65843600D03*
%TD*%
D12*
%TO.C,R10*%
X131152800Y-73736200D03*
X129552800Y-73736200D03*
%TD*%
D25*
%TO.C,C21*%
X134467600Y-66362000D03*
X134467600Y-64702000D03*
%TD*%
D26*
%TO.C,R17*%
X200075800Y-92037500D03*
X200075800Y-90842500D03*
%TD*%
D27*
%TO.C,S1*%
X132971400Y-83515200D03*
X139471400Y-83515200D03*
%TD*%
D28*
%TO.C,U11*%
X202910200Y-90978000D03*
X202260200Y-90978000D03*
X201610200Y-90978000D03*
X201610200Y-89108000D03*
X202260200Y-89108000D03*
X202910200Y-89108000D03*
%TD*%
D29*
%TO.C,C12*%
X130225800Y-77901600D03*
X130225800Y-76301600D03*
%TD*%
D30*
%TO.C,IC1*%
X136485000Y-66383800D03*
X136485000Y-65883800D03*
X136485000Y-65383800D03*
X136485000Y-64883800D03*
X136485000Y-64383800D03*
X136485000Y-63883800D03*
X136485000Y-63383800D03*
D31*
X137335000Y-62533800D03*
X137835000Y-62533800D03*
X138335000Y-62533800D03*
X138835000Y-62533800D03*
X139335000Y-62533800D03*
X139835000Y-62533800D03*
X140335000Y-62533800D03*
D30*
X141185000Y-63383800D03*
X141185000Y-63883800D03*
X141185000Y-64383800D03*
X141185000Y-64883800D03*
X141185000Y-65383800D03*
X141185000Y-65883800D03*
X141185000Y-66383800D03*
D31*
X140335000Y-67233800D03*
X139835000Y-67233800D03*
X139335000Y-67233800D03*
X138835000Y-67233800D03*
X138335000Y-67233800D03*
X137835000Y-67233800D03*
X137335000Y-67233800D03*
D32*
X138835000Y-64883800D03*
%TD*%
D33*
%TO.C,C10*%
X168402000Y-69367400D03*
X166802000Y-69367400D03*
%TD*%
%TO.C,C11*%
X133705800Y-79857600D03*
X135305800Y-79857600D03*
%TD*%
D11*
%TO.C,U4*%
X123679200Y-69799200D03*
X124379200Y-69799200D03*
%TD*%
D34*
%TO.C,A1*%
X163779200Y-63728600D03*
X163779200Y-64998600D03*
X163779200Y-66268600D03*
X163779200Y-67538600D03*
X163779200Y-68808600D03*
X163779200Y-70078600D03*
X163779200Y-71348600D03*
X163779200Y-72618600D03*
X163779200Y-73888600D03*
X163779200Y-75158600D03*
X163779200Y-76428600D03*
X163779200Y-77698600D03*
X163779200Y-78968600D03*
X163779200Y-80238600D03*
X163779200Y-81508600D03*
X163779200Y-82778600D03*
X163779200Y-84048600D03*
X163779200Y-85318600D03*
X163779200Y-86588600D03*
X146159200Y-86588600D03*
X146159200Y-85318600D03*
X146159200Y-84048600D03*
X146159200Y-82778600D03*
X146159200Y-81508600D03*
X146159200Y-80238600D03*
X146159200Y-78968600D03*
X146159200Y-77698600D03*
X146159200Y-76428600D03*
X146159200Y-75158600D03*
X146159200Y-73888600D03*
X146159200Y-72618600D03*
X146159200Y-71348600D03*
X146159200Y-70078600D03*
X146159200Y-68808600D03*
X146159200Y-67538600D03*
X146159200Y-66268600D03*
X146159200Y-64998600D03*
X146159200Y-63728600D03*
%TD*%
D35*
%TO.C,R35*%
X175412400Y-70891400D03*
X176882400Y-70891400D03*
%TD*%
D36*
%TO.C,C14*%
X198847900Y-86029800D03*
X199982900Y-86029800D03*
%TD*%
D16*
%TO.C,C13*%
X202954700Y-87680800D03*
X201819700Y-87680800D03*
%TD*%
D36*
%TO.C,C9*%
X166873400Y-61087000D03*
X168008400Y-61087000D03*
%TD*%
D15*
%TO.C,R6*%
X142101200Y-79806800D03*
X143801200Y-79806800D03*
%TD*%
D16*
%TO.C,C4*%
X134645400Y-63398400D03*
X133510400Y-63398400D03*
%TD*%
D37*
%TO.C,AE1*%
X167990000Y-84865900D03*
X167990000Y-89514100D03*
%TD*%
D38*
%TO.C,S2*%
X126415800Y-80212000D03*
X126415800Y-73712000D03*
%TD*%
D39*
%TO.C,Q5*%
X189291000Y-68574000D03*
X187391000Y-68574000D03*
X188341000Y-66554000D03*
%TD*%
D40*
%TO.C,Q1*%
X139567000Y-76799400D03*
X139567000Y-78699400D03*
X137547000Y-77749400D03*
%TD*%
%TO.C,Q4*%
X134874000Y-72826800D03*
X134874000Y-74726800D03*
X132854000Y-73776800D03*
%TD*%
D17*
%TO.C,R30*%
X190906400Y-70789800D03*
X189306400Y-70789800D03*
%TD*%
%TO.C,R32*%
X189179200Y-61036200D03*
X190779200Y-61036200D03*
%TD*%
D41*
%TO.C,C1*%
X132562600Y-66048700D03*
X132562600Y-64913700D03*
%TD*%
D39*
%TO.C,Q2*%
X187401200Y-62636400D03*
X189301200Y-62636400D03*
X188351200Y-64656400D03*
%TD*%
D13*
%TO.C,R7*%
X133588800Y-76784200D03*
X135498800Y-76784200D03*
%TD*%
D42*
%TO.C,U1*%
X176903800Y-73009400D03*
X177903800Y-73009400D03*
X178903800Y-73009400D03*
X179903800Y-73009400D03*
X180903800Y-73009400D03*
X181903800Y-73009400D03*
X182903800Y-73009400D03*
X183903800Y-73009400D03*
X184903800Y-73009400D03*
X185903800Y-73009400D03*
X186903800Y-73009400D03*
X187903800Y-73009400D03*
X188903800Y-73009400D03*
X189903800Y-73009400D03*
X190903800Y-73009400D03*
X191903800Y-73009400D03*
X192903800Y-73009400D03*
D43*
X196903800Y-77009400D03*
X196903800Y-78009400D03*
X196903800Y-79009400D03*
X196903800Y-80009400D03*
X196903800Y-81009400D03*
X196903800Y-82009400D03*
X196903800Y-83009400D03*
X196903800Y-84009400D03*
X196903800Y-85009400D03*
X196903800Y-86009400D03*
X196903800Y-87009400D03*
X196903800Y-88009400D03*
X196903800Y-89009400D03*
X196903800Y-90009400D03*
X196903800Y-91009400D03*
X196903800Y-92009400D03*
X196903800Y-93009400D03*
D42*
X192903800Y-97009400D03*
X191903800Y-97009400D03*
X190903800Y-97009400D03*
X189903800Y-97009400D03*
X188903800Y-97009400D03*
X187903800Y-97009400D03*
X186903800Y-97009400D03*
X185903800Y-97009400D03*
X184903800Y-97009400D03*
X183903800Y-97009400D03*
X182903800Y-97009400D03*
X181903800Y-97009400D03*
X180903800Y-97009400D03*
X179903800Y-97009400D03*
X178903800Y-97009400D03*
X177903800Y-97009400D03*
X176903800Y-97009400D03*
D43*
X172903800Y-93009400D03*
X172903800Y-92009400D03*
X172903800Y-91009400D03*
X172903800Y-90009400D03*
X172903800Y-89009400D03*
X172903800Y-88009400D03*
X172903800Y-87009400D03*
X172903800Y-86009400D03*
X172903800Y-85009400D03*
X172903800Y-84009400D03*
X172903800Y-83009400D03*
X172903800Y-82009400D03*
X172903800Y-81009400D03*
X172903800Y-80009400D03*
X172903800Y-79009400D03*
X172903800Y-78009400D03*
X172903800Y-77009400D03*
D44*
X177303800Y-77409400D03*
X181103800Y-77409400D03*
X184903800Y-77409400D03*
X188703800Y-77409400D03*
X192503800Y-77409400D03*
X192503800Y-81209400D03*
X192503800Y-85009400D03*
X192503800Y-88809400D03*
X192503800Y-92609400D03*
X188703800Y-92609400D03*
X184903800Y-92609400D03*
X181103800Y-92609400D03*
X177303800Y-92609400D03*
X177303800Y-88809400D03*
X177303800Y-85009400D03*
X177303800Y-81209400D03*
X184903800Y-81209400D03*
X188703800Y-85009400D03*
X184903800Y-88809400D03*
X181103800Y-85009400D03*
D43*
X196903800Y-74009400D03*
X196903800Y-75009400D03*
X196903800Y-76009400D03*
X196903800Y-94009400D03*
X196903800Y-95009400D03*
X196903800Y-96009400D03*
X172903800Y-96009400D03*
X172903800Y-95009400D03*
X172903800Y-94009400D03*
X172903800Y-76009400D03*
X172903800Y-75009400D03*
X172903800Y-74009400D03*
D45*
X181403800Y-75209400D03*
X182803800Y-75209400D03*
X184203800Y-75209400D03*
X185603800Y-75209400D03*
X187003800Y-75209400D03*
X188403800Y-75209400D03*
D46*
X194703800Y-81509400D03*
X194703800Y-82909400D03*
X194703800Y-84309400D03*
X194703800Y-85709400D03*
X194703800Y-87109400D03*
X194703800Y-88509400D03*
D45*
X188403800Y-94809400D03*
X187003800Y-94809400D03*
X185603800Y-94809400D03*
X184203800Y-94809400D03*
X182803800Y-94809400D03*
X181403800Y-94809400D03*
D46*
X175103800Y-88509400D03*
X175103800Y-87109400D03*
X175103800Y-85709400D03*
X175103800Y-84309400D03*
X175103800Y-82909400D03*
X175103800Y-81509400D03*
%TD*%
D47*
%TO.C,C8*%
X169837200Y-63652400D03*
X166887200Y-63652400D03*
%TD*%
D12*
%TO.C,R3*%
X135826600Y-69621400D03*
X137426600Y-69621400D03*
%TD*%
D15*
%TO.C,R16*%
X170865800Y-76022200D03*
X169265800Y-76022200D03*
%TD*%
D36*
%TO.C,C7*%
X137363200Y-60071000D03*
X138498200Y-60071000D03*
%TD*%
%TO.C,C6*%
X137345800Y-61214000D03*
X138480800Y-61214000D03*
%TD*%
D48*
%TO.C,U2*%
X131025500Y-61006800D03*
X131025500Y-63296800D03*
X131025500Y-65586800D03*
D49*
X124335500Y-63296800D03*
%TD*%
M02*
