%TF.GenerationSoftware,KiCad,Pcbnew,8.0.3*%
%TF.CreationDate,2025-01-08T01:14:57+05:30*%
%TF.ProjectId,gps,6770732e-6b69-4636-9164-5f7063625858,rev?*%
%TF.SameCoordinates,Original*%
%TF.FileFunction,Plated,1,4,PTH,Mixed*%
%TF.FilePolarity,Positive*%
%FSLAX46Y46*%
G04 Gerber Fmt 4.6, Leading zero omitted, Abs format (unit mm)*
G04 Created by KiCad (PCBNEW 8.0.3) date 2025-01-08 01:14:57*
%MOMM*%
%LPD*%
G01*
G04 APERTURE LIST*
%TA.AperFunction,ViaDrill*%
%ADD10C,0.300000*%
%TD*%
G04 aperture for slot hole*
%TA.AperFunction,ComponentDrill*%
%ADD11C,0.450000*%
%TD*%
G04 aperture for slot hole*
%TA.AperFunction,ComponentDrill*%
%ADD12C,0.550000*%
%TD*%
G04 aperture for slot hole*
%TA.AperFunction,ComponentDrill*%
%ADD13C,0.600000*%
%TD*%
%TA.AperFunction,ComponentDrill*%
%ADD14C,0.700000*%
%TD*%
%TA.AperFunction,ComponentDrill*%
%ADD15C,0.800000*%
%TD*%
%TA.AperFunction,ComponentDrill*%
%ADD16C,0.900000*%
%TD*%
G04 APERTURE END LIST*
D10*
X119190000Y-78540000D03*
X119410000Y-80470000D03*
X125030000Y-79170000D03*
X125040000Y-77220000D03*
X125050000Y-81160000D03*
X129740000Y-60230000D03*
X129800000Y-80200000D03*
X131114800Y-65633600D03*
X131340000Y-77060000D03*
X132080000Y-80594200D03*
X132130000Y-83240000D03*
X133197600Y-81940400D03*
X133610000Y-67660000D03*
X134000000Y-81950000D03*
X134600000Y-58720000D03*
X136448800Y-68148200D03*
X136510000Y-58770000D03*
X137363200Y-60071000D03*
X137860000Y-75400000D03*
X138500000Y-69220000D03*
X138658600Y-68478400D03*
X139776200Y-70434200D03*
X140870000Y-77300000D03*
X141706600Y-68503800D03*
X142090000Y-69210000D03*
X144180000Y-66900000D03*
X144703800Y-77571600D03*
X146100800Y-82804000D03*
X147730000Y-64090000D03*
X148110000Y-87570000D03*
X149220000Y-63560000D03*
X149990000Y-74790000D03*
X151650000Y-64060000D03*
X161690000Y-66290000D03*
X162380000Y-77300000D03*
X163730000Y-81500000D03*
X163750000Y-66300000D03*
X163790000Y-72590000D03*
X163830000Y-80238600D03*
X166890000Y-63660000D03*
X170027600Y-93116400D03*
X170980000Y-66160000D03*
X171380000Y-81210000D03*
X173760000Y-67350000D03*
X173761400Y-72110600D03*
X176870000Y-70830000D03*
X179933600Y-63474600D03*
X180790000Y-71310000D03*
X181180000Y-66550000D03*
X182854600Y-67208400D03*
X183692800Y-68072000D03*
X186283600Y-70027800D03*
X187710000Y-56970000D03*
X188380000Y-67640000D03*
X189306200Y-62611000D03*
X192790000Y-67370000D03*
X192862200Y-62839600D03*
X196900800Y-89001600D03*
X196930000Y-83010000D03*
X203040000Y-79840000D03*
X203630000Y-90430000D03*
X204419200Y-89585800D03*
X204530000Y-77830000D03*
X206560000Y-92330000D03*
D11*
%TO.C,J5*%
X127263250Y-96307500D02*
X127263250Y-94657500D01*
X143663250Y-96307500D02*
X143663250Y-94657500D01*
D12*
X126963250Y-86982500D02*
X126963250Y-86182500D01*
X143413250Y-86982500D02*
X143413250Y-86182500D01*
D13*
%TO.C,J1*%
X121610800Y-65593800D02*
X121060800Y-65593800D01*
X121610800Y-72743800D02*
X121060800Y-72743800D01*
D14*
%TO.C,J4*%
X207375400Y-60737400D03*
D15*
%TO.C,J2*%
X136932600Y-71568400D03*
X138932600Y-71568400D03*
D16*
%TO.C,J4*%
X199075400Y-69737400D03*
M02*
